SplineFontDB: 3.2
FontName: 
FullName: 
FamilyName: 
Weight: Regular
Copyright: Copyright (c) 2020, Sacha Chua
UComments: "2020-6-11: Created with FontForge (http://fontforge.org)"
Version: 001.000
ItalicAngle: 0
UnderlinePosition: -100
UnderlineWidth: 50
Ascent: 800
Descent: 200
InvalidEm: 0
LayerCount: 2
Layer: 0 0 "Back" 1
Layer: 1 0 "Fore" 0
XUID: [1021 668 -260323269 1045479]
OS2Version: 0
OS2_WeightWidthSlopeOnly: 0
OS2_UseTypoMetrics: 1
CreationTime: 1591933755
ModificationTime: 1591935701
OS2TypoAscent: 0
OS2TypoAOffset: 1
OS2TypoDescent: 0
OS2TypoDOffset: 1
OS2TypoLinegap: 0
OS2WinAscent: 0
OS2WinAOffset: 1
OS2WinDescent: 0
OS2WinDOffset: 1
HheadAscent: 0
HheadAOffset: 1
HheadDescent: 0
HheadDOffset: 1
OS2Vendor: 'PfEd'
DEI: 91125
Encoding: UnicodeFull
UnicodeInterp: none
NameList: AGL For New Fonts
DisplaySize: -48
AntiAlias: 1
FitToEm: 0
WinInfo: 16 16 9
Grid
-1000 688.749206543 m 0
 2000 688.749206543 l 1024
  Named: "cap"
EndSplineSet
BeginChars: 1114113 99

StartChar: H
Encoding: 72 72 0
Width: 1000
VWidth: 0
Flags: HW
LayerCount: 2
Back
Fore
SplineSet
618 380 m 1
 615 396 618 414 618 430 c 0
 618 467 619 505 616 542 c 0
 615 555 615 569 612 582 c 0
 609 596 601 607 604 622 c 0
 612 663 663 668 688 640 c 0
 698 628 701 611 703 596 c 0
 708 562 711 528 712 494 c 0
 715 379 713 263 720 148 c 0
 722 117 725 85 730 54 c 0
 733 36 739 20 732 2 c 0
 713 -45 656 -24 643 14 c 0
 624 68 623 133 618 190 c 0
 616 218 611 252 616 280 c 1
 614 282 l 1
 571 274 525 279 482 279 c 0
 468 279 444 286 434 273 c 0
 426 262 430 226 430 212 c 0
 430 161 425 111 424 60 c 0
 424 27 420 -15 376 -14 c 0
 357 -14 339 0 334 18 c 0
 323 57 330 106 330 146 c 0
 330 242 337 340 332 436 c 0
 330 474 331 512 328 550 c 0
 326 574 319 589 325 614 c 0
 334 654 388 662 409 628 c 0
 431 594 421 537 425 498 c 0
 429 456 430 414 430 372 c 1
 544 378 l 1
 618 380 l 1
EndSplineSet
EndChar

StartChar: e
Encoding: 101 101 1
Width: 1000
VWidth: 0
Flags: HWO
LayerCount: 2
Back
Fore
SplineSet
422 136 m 1
 432 100 459 96 493 94 c 0
 545 91 596 95 648 98 c 0
 680 100 707 73 698 40 c 0
 687 0 628 1 594 -0 c 0
 508 -3 385 -20 339 74 c 0
 319 115 318 171 327 214 c 0
 336 255 345 295 370 330 c 0
 447 437 618 402 683 298 c 0
 720 239 709 160 634 143 c 0
 607 137 580 136 552 136 c 0
 510 136 464 131 422 136 c 1
432 228 m 1
 538 231 l 1
 604 236 l 1
 587 275 513 312 472 291 c 0
 449 280 438 251 432 228 c 1
EndSplineSet
EndChar

StartChar: q
Encoding: 113 113 2
Width: 1000
VWidth: 0
Flags: HW
LayerCount: 2
Back
Fore
SplineSet
538 16 m 1
 447 -36 337 23 321 123 c 0
 305 225 377 335 476 363 c 0
 546 383 625 354 643 278 c 0
 651 245 644 213 642 180 c 0
 638 122 637 64 632 6 c 0
 629 -27 628 -61 628 -94 c 0
 628 -116 628 -140 606 -153 c 0
 582 -168 547 -156 539 -128 c 0
 526 -85 537 -28 538 16 c 1
512 275 m 0
 465 267 426 218 418 172 c 0
 412 133 429 91 475 99 c 0
 529 108 540 177 545 221 c 0
 546 233 554 253 550 264 c 0
 544 278 524 277 512 275 c 0
EndSplineSet
EndChar

StartChar: A
Encoding: 65 65 3
Width: 1000
VWidth: 0
Flags: HW
LayerCount: 2
Back
Fore
SplineSet
594 110 m 1
 529 4 383 -99 262 -8 c 0
 245 5 230 20 219 38 c 0
 162 134 181 266 217 366 c 0
 252 464 315 558 410 605 c 0
 487 644 590 629 636 550 c 0
 659 510 658 472 664 428 c 0
 666 414 677 404 678 390 c 0
 681 351 667 316 664 278 c 0
 662 243 671 203 677 169 c 0
 682 144 688 113 704 92 c 0
 722 68 755 69 750 30 c 0
 745 -12 700 -13 670 2 c 0
 626 24 610 67 594 110 c 1
485 531 m 0
 443 524 406 492 380 460 c 0
 323 391 289 296 284 207 c 0
 281 146 292 46 378 58 c 0
 452 69 496 135 528 196 c 0
 540 220 553 246 559 272 c 0
 562 285 551 297 552 310 c 0
 554 335 567 361 570 386 c 0
 578 444 569 546 485 531 c 0
594 112 m 1
 596 110 l 1
 594 112 l 1
EndSplineSet
EndChar

StartChar: M
Encoding: 77 77 4
Width: 1000
VWidth: 0
Flags: HW
LayerCount: 2
Back
Fore
SplineSet
488 390 m 1
 511 439 542 485 566 534 c 0
 578 558 593 580 605 604 c 0
 615 624 624 649 642 664 c 0
 674 691 716 673 733 638 c 0
 757 589 747 519 750 466 c 0
 756 362 769 257 779 153 c 0
 783 108 794 62 796 18 c 0
 797 -1 791 -18 774 -28 c 0
 736 -50 710 -14 703 19 c 0
 687 102 683 186 671 269 c 0
 661 338 657 407 650 476 c 1
 619 425 593 372 561 322 c 0
 549 303 539 277 518 267 c 0
 489 253 458 270 438 292 c 0
 416 315 400 346 382 372 c 0
 355 411 322 453 302 496 c 1
 300 496 l 1
 300 424 305 349 311 277 c 0
 315 231 314 186 314 140 c 2
 314 40 l 2
 314 24 318 7 311 -8 c 0
 296 -42 244 -43 228 -10 c 0
 220 7 221 30 220 48 c 0
 219 80 218 112 216 144 c 0
 209 263 206 383 205 503 c 0
 205 533 205 562 204 592 c 0
 203 618 202 644 228 660 c 0
 249 673 267 661 286 653 c 0
 336 631 367 566 396 522 c 0
 425 479 463 436 486 390 c 1
 488 390 l 1
298 498 m 1
 300 496 l 1
 298 498 l 1
EndSplineSet
EndChar

StartChar: Y
Encoding: 89 89 5
Width: 1000
VWidth: 0
Flags: HW
LayerCount: 2
Back
Fore
SplineSet
616 406 m 1
 605 376 576 351 552 332 c 0
 537 320 520 309 502 302 c 0
 443 279 387 302 360 360 c 0
 329 426 323 503 326 575 c 0
 328 612 325 688 384 676 c 0
 403 672 418 657 421 637 c 0
 424 617 419 594 418 574 c 0
 416 536 418 497 427 460 c 0
 432 441 436 421 445 404 c 0
 449 397 453 388 462 391 c 0
 486 398 507 421 521 440 c 0
 557 487 580 548 599 604 c 0
 605 621 605 642 614 658 c 0
 633 691 683 690 701 656 c 0
 711 637 706 614 704 594 c 0
 702 566 703 538 706 510 c 0
 715 412 728 316 727 217 c 0
 726 162 721 102 692 54 c 0
 637 -36 513 -21 428 9 c 0
 402 18 357 31 342 56 c 0
 324 86 346 127 382 126 c 0
 404 125 426 110 446 102 c 0
 488 86 541 71 586 86 c 0
 615 95 623 136 626 162 c 0
 632 215 629 268 625 321 c 0
 623 348 624 380 616 406 c 1
EndSplineSet
EndChar

StartChar: eight
Encoding: 56 56 6
Width: 1000
VWidth: 0
Flags: HW
LayerCount: 2
Back
Fore
SplineSet
624 628 m 1
 653 662 705 622 697 584 c 0
 694 571 686 559 684 546 c 0
 681 529 689 516 677 500 c 0
 667 486 652 487 641 477 c 0
 617 454 600 415 584 386 c 0
 579 377 567 362 569 352 c 0
 573 330 600 303 612 284 c 0
 647 226 682 155 661 86 c 0
 637 6 557 -19 481 -7 c 0
 439 0 400 18 381 58 c 0
 348 129 393 211 422 276 c 0
 429 293 445 315 447 333 c 0
 448 346 414 371 406 380 c 0
 377 410 356 447 347 488 c 0
 343 506 342 526 345 544 c 0
 350 580 368 620 398 642 c 0
 459 687 567 671 624 628 c 1
498 428 m 1
 576 550 l 1
 550 568 484 591 455 565 c 0
 413 526 462 450 498 428 c 1
516 248 m 1
 502 214 486 181 475 146 c 0
 471 134 465 116 470 104 c 0
 474 95 485 93 494 91 c 0
 515 87 549 84 561 106 c 0
 580 140 552 187 536 216 c 0
 530 227 525 239 516 248 c 1
EndSplineSet
EndChar

StartChar: quotesingle
Encoding: 39 39 7
Width: 1000
VWidth: 0
Flags: HW
LayerCount: 2
Back
Fore
SplineSet
507 665 m 0
 534 669 554 646 560 622 c 0
 572 576 578 464 512 458 c 0
 440 451 468 544 470 584 c 0
 471 602 463 619 470 636 c 0
 476 652 490 663 507 665 c 0
EndSplineSet
EndChar

StartChar: numbersign
Encoding: 35 35 8
Width: 1000
VWidth: 0
Flags: HW
LayerCount: 2
Back
Fore
SplineSet
390 384 m 1
 369 378 346 379 325 374 c 0
 308 370 296 362 278 367 c 0
 243 377 235 422 262 445 c 0
 285 465 321 468 350 473 c 0
 359 475 381 474 388 481 c 0
 393 486 390 501 389 507 c 0
 386 527 378 551 389 570 c 0
 405 598 447 600 466 574 c 0
 481 552 482 516 484 490 c 1
 528 494 l 1
 527 516 522 543 532 564 c 0
 547 594 591 596 610 570 c 0
 625 550 616 519 622 496 c 1
 651 502 706 500 732 484 c 0
 760 467 759 425 734 407 c 0
 718 396 704 400 686 400 c 0
 667 400 647 398 628 398 c 1
 636 370 637 322 632 294 c 1
 663 293 713 301 738 281 c 0
 763 261 761 223 734 206 c 0
 712 192 659 191 634 196 c 1
 634 180 633 165 633 149 c 0
 633 133 631 118 620 106 c 0
 599 85 561 90 547 116 c 0
 539 130 539 148 538 164 c 0
 538 170 539 183 534 187 c 0
 526 194 501 188 492 186 c 1
 498 167 507 136 502 116 c 0
 493 83 453 71 427 93 c 0
 406 111 403 150 396 176 c 1
 368 168 316 156 288 165 c 0
 257 175 247 217 270 240 c 0
 282 252 298 253 314 256 c 0
 339 261 365 264 390 272 c 1
 390 318 l 1
 392 382 l 1
 390 384 l 1
488 392 m 1
 488 288 l 1
 490 286 l 1
 534 290 l 1
 532 394 l 1
 488 392 l 1
EndSplineSet
EndChar

StartChar: less
Encoding: 60 60 9
Width: 1000
VWidth: 0
Flags: HW
LayerCount: 2
Back
Fore
SplineSet
456 334 m 1
 516 316 572 257 618 217 c 0
 635 202 659 192 674 176 c 0
 693 156 689 122 666 107 c 0
 641 91 608 105 586 120 c 0
 538 154 495 195 444 226 c 0
 429 235 413 246 396 253 c 0
 379 260 360 263 346 275 c 0
 326 292 321 318 332 342 c 0
 347 374 380 399 404 424 c 0
 446 469 485 517 528 560 c 0
 550 582 585 609 614 580 c 0
 630 564 631 536 617 518 c 0
 599 495 576 475 557 452 c 0
 524 413 492 371 456 334 c 1
EndSplineSet
EndChar

StartChar: O
Encoding: 79 79 10
Width: 1000
VWidth: 0
Flags: HW
LayerCount: 2
Back
Fore
SplineSet
455 691 m 0
 558 707 646 629 685 540 c 0
 742 409 762 261 685 134 c 0
 655 84 602 35 541 25 c 0
 510 20 476 25 446 33 c 0
 225 95 231 389 323 552 c 0
 332 568 349 585 355 602 c 0
 361 618 351 632 363 648 c 0
 382 674 425 686 455 691 c 0
476 598 m 1
 471 569 440 561 424 540 c 0
 396 502 376 454 366 408 c 0
 357 364 356 320 362 276 c 0
 367 238 381 195 408 166 c 0
 453 118 534 106 580 158 c 0
 660 248 646 380 604 484 c 0
 581 541 544 597 476 598 c 1
EndSplineSet
EndChar

StartChar: b
Encoding: 98 98 11
Width: 1000
VWidth: 0
Flags: HW
LayerCount: 2
Back
Fore
SplineSet
424 382 m 1
 497 428 614 391 665 326 c 0
 721 255 723 127 658 62 c 0
 591 -5 497 -9 410 13 c 0
 383 20 341 27 326 52 c 0
 309 80 332 92 337 116 c 0
 341 136 338 167 336 188 c 0
 328 300 334 414 326 526 c 0
 324 557 324 589 322 620 c 0
 321 639 317 661 326 678 c 0
 343 710 391 709 407 676 c 0
 415 660 411 640 412 622 c 0
 413 588 417 554 418 520 c 0
 419 474 424 428 424 382 c 1
438 102 m 1
 464 97 490 91 517 94 c 0
 535 96 554 104 570 114 c 0
 618 144 625 239 576 274 c 0
 533 304 464 323 447 256 c 0
 442 238 437 218 436 199 c 0
 434 167 437 134 438 102 c 1
EndSplineSet
EndChar

StartChar: r
Encoding: 114 114 12
Width: 1000
VWidth: 0
Flags: HW
LayerCount: 2
Back
Fore
SplineSet
410 318 m 1
 462 362 549 392 616 369 c 0
 649 357 695 332 680 290 c 0
 678 284 674 279 670 274 c 0
 636 240 609 281 574 283 c 0
 537 285 489 258 464 232 c 0
 439 207 420 164 419 128 c 0
 418 94 436 52 402 28 c 0
 369 4 328 30 319 65 c 0
 310 97 320 130 322 162 c 0
 325 209 320 258 318 305 c 0
 317 331 308 369 324 392 c 0
 343 419 385 416 401 388 c 0
 412 370 409 339 410 318 c 1
EndSplineSet
EndChar

StartChar: B
Encoding: 66 66 13
Width: 1000
VWidth: 0
Flags: HW
LayerCount: 2
Back
Fore
SplineSet
620 376 m 1
 648 370 677 360 698 340 c 0
 747 292 748 203 719 144 c 0
 686 77 611 27 540 8 c 0
 502 -2 463 -6 424 -4 c 0
 410 -3 395 2 381 2 c 0
 357 2 341 -15 319 5 c 0
 294 27 296 79 294 110 c 0
 288 205 292 299 292 394 c 0
 292 452 299 511 293 568 c 0
 290 597 271 627 302 650 c 0
 312 658 325 662 338 659 c 0
 345 658 353 651 360 653 c 0
 377 658 393 670 410 675 c 0
 467 692 534 696 590 675 c 0
 607 669 621 659 634 647 c 0
 716 573 692 448 620 376 c 1
390 362 m 1
 413 369 438 372 460 380 c 0
 473 385 486 394 498 402 c 0
 543 432 615 497 583 560 c 0
 572 581 553 588 532 592 c 0
 487 601 413 597 388 552 c 0
 381 540 388 515 388 502 c 0
 388 455 390 409 390 362 c 1
392 262 m 1
 390 218 l 1
 390 96 l 1
 459 67 561 106 610 156 c 0
 631 178 659 240 630 267 c 0
 617 279 593 280 577 282 c 0
 550 285 516 289 489 283 c 0
 457 276 427 255 392 262 c 1
EndSplineSet
EndChar

StartChar: N
Encoding: 78 78 14
Width: 1000
VWidth: 0
Flags: HW
LayerCount: 2
Back
Fore
SplineSet
388 448 m 1
 382 382 390 313 390 246 c 0
 390 206 388 166 390 126 c 0
 391 100 392 74 392 48 c 0
 392 35 394 22 388 10 c 0
 371 -23 320 -23 305 12 c 0
 288 52 294 109 292 152 c 0
 285 273 291 394 293 515 c 0
 294 550 288 598 299 632 c 0
 304 649 316 664 334 667 c 0
 374 674 380 646 393 618 c 0
 401 602 413 587 422 572 c 0
 490 462 562 354 630 244 c 1
 635 304 632 366 636 427 c 0
 639 479 647 532 652 584 c 0
 654 602 643 618 650 636 c 0
 665 676 719 672 736 636 c 0
 757 590 740 525 736 476 c 0
 728 382 730 288 730 194 c 0
 730 151 743 98 733 56 c 0
 729 37 712 21 694 16 c 0
 658 6 635 35 618 62 c 0
 574 129 540 202 497 270 c 0
 473 309 448 347 425 386 c 0
 413 406 398 426 390 448 c 1
 388 448 l 1
386 450 m 1
 388 448 l 1
 386 450 l 1
630 242 m 1
 632 240 l 1
 630 242 l 1
EndSplineSet
EndChar

StartChar: Z
Encoding: 90 90 15
Width: 1000
VWidth: 0
Flags: HW
LayerCount: 2
Back
Fore
SplineSet
558 604 m 1
 516 607 472 598 430 596 c 0
 407 595 383 592 360 590 c 0
 342 588 323 582 306 591 c 0
 277 606 274 649 300 668 c 0
 321 684 357 681 382 684 c 0
 445 691 510 700 574 700 c 0
 605 700 637 695 655 666 c 0
 683 620 640 545 622 502 c 0
 562 360 504 211 426 78 c 1
 428 76 l 1
 451 84 478 84 502 86 c 0
 560 91 619 90 677 86 c 0
 707 84 729 53 718 24 c 0
 704 -15 657 -5 625 -5 c 0
 594 -5 563 -3 532 -6 c 0
 479 -12 427 -25 374 -28 c 0
 344 -30 308 -24 298 10 c 0
 291 34 304 52 314 72 c 0
 331 105 345 140 362 174 c 0
 410 271 454 369 499 468 c 0
 519 513 535 561 558 604 c 1
EndSplineSet
EndChar

StartChar: nine
Encoding: 57 57 16
Width: 1000
VWidth: 0
Flags: HW
LayerCount: 2
Back
Fore
SplineSet
594 380 m 1
 513 302 392 276 309 365 c 0
 293 382 284 404 278 426 c 0
 271 455 284 488 294 514 c 0
 320 581 352 651 414 691 c 0
 482 735 571 734 632 677 c 0
 652 659 659 635 674 614 c 0
 684 599 702 597 707 577 c 0
 717 540 697 490 694 452 c 0
 688 374 693 294 693 216 c 0
 693 167 691 119 690 70 c 0
 690 49 694 20 680 2 c 0
 659 -26 611 -20 600 14 c 0
 594 33 598 58 598 78 c 2
 598 208 l 2
 598 265 594 323 594 380 c 1
509 629 m 0
 439 618 410 544 388 486 c 0
 383 473 374 456 377 442 c 0
 381 417 417 404 439 407 c 0
 506 416 573 485 594 548 c 0
 608 592 547 635 509 629 c 0
EndSplineSet
EndChar

StartChar: quoteright
Encoding: 8217 8217 17
Width: 1000
VWidth: 0
Flags: HW
LayerCount: 2
Back
Fore
SplineSet
505 651 m 0
 542 659 567 626 574 594 c 0
 584 550 576 497 551 460 c 0
 540 443 525 426 504 423 c 0
 496 422 487 421 480 424 c 0
 414 447 475 516 480 556 c 0
 483 578 465 594 470 616 c 0
 474 634 487 647 505 651 c 0
EndSplineSet
EndChar

StartChar: dollar
Encoding: 36 36 18
Width: 1000
VWidth: 0
Flags: HW
LayerCount: 2
Back
Fore
SplineSet
484 586 m 1
 486 609 489 642 510 656 c 0
 548 681 591 644 580 602 c 1
 613 602 651 601 678 579 c 0
 705 556 717 504 680 485 c 0
 663 476 642 479 628 491 c 0
 623 496 619 503 613 507 c 0
 602 514 584 509 572 508 c 1
 575 483 562 440 574 418 c 0
 581 406 603 397 614 389 c 0
 635 373 655 352 670 330 c 0
 717 258 745 124 644 81 c 0
 632 76 618 72 605 71 c 0
 589 70 570 70 554 74 c 1
 554 60 553 44 545 32 c 0
 529 8 494 6 474 26 c 0
 452 49 474 83 458 106 c 0
 450 117 429 124 418 132 c 0
 389 151 347 179 330 210 c 0
 311 243 341 283 378 277 c 0
 409 272 440 235 464 216 c 1
 472 356 l 1
 428 373 368 402 350 448 c 0
 326 508 386 551 434 571 c 0
 449 577 468 587 484 586 c 1
476 486 m 1
 456 476 l 1
 476 464 l 1
 476 486 l 1
568 294 m 1
 562 170 l 1
 575 169 595 163 606 173 c 0
 616 181 615 197 613 208 c 0
 609 236 594 279 568 294 c 1
EndSplineSet
EndChar

StartChar: greater
Encoding: 62 62 19
Width: 1000
VWidth: 0
Flags: HW
LayerCount: 2
Back
Fore
SplineSet
558 394 m 1
 496 420 429 454 376 495 c 0
 352 514 335 549 364 573 c 0
 399 603 436 564 466 547 c 0
 527 512 596 493 654 453 c 0
 683 433 704 401 687 366 c 0
 678 348 661 345 646 335 c 0
 634 327 623 316 612 306 c 0
 559 258 519 193 460 152 c 0
 433 133 389 120 372 160 c 0
 356 198 391 213 414 236 c 0
 464 286 508 344 558 394 c 1
EndSplineSet
EndChar

StartChar: n
Encoding: 110 110 20
Width: 1000
VWidth: 0
Flags: HW
LayerCount: 2
Back
Fore
SplineSet
410 330 m 1
 473 385 608 425 666 342 c 0
 708 283 709 185 706 115 c 0
 704 81 702 47 697 13 c 0
 695 -3 694 -21 682 -33 c 0
 656 -59 607 -44 604 -6 c 0
 602 22 609 50 610 78 c 0
 612 124 609 169 604 214 c 0
 602 232 600 282 578 287 c 0
 556 292 534 286 514 276 c 0
 433 236 425 133 414 54 c 0
 411 31 411 3 401 -18 c 0
 384 -52 331 -52 314 -18 c 0
 300 9 310 53 310 82 c 2
 310 182 l 2
 310 231 315 280 321 328 c 0
 328 378 402 381 410 330 c 1
EndSplineSet
EndChar

StartChar: h
Encoding: 104 104 21
Width: 1000
VWidth: 0
Flags: HW
LayerCount: 2
Back
Fore
SplineSet
446 336 m 1
 498 397 590 385 639 328 c 0
 699 258 695 148 690 62 c 0
 688 34 693 -8 672 -30 c 0
 646 -58 598 -42 593 -5 c 0
 590 16 597 41 598 62 c 0
 600 108 599 158 590 204 c 0
 585 230 575 268 546 277 c 0
 517 286 490 230 479 210 c 0
 451 158 446 98 442 40 c 0
 441 22 447 4 442 -14 c 0
 436 -39 410 -56 384 -51 c 0
 323 -38 344 49 345 93 c 0
 347 216 348 339 352 462 c 0
 353 486 354 512 352 536 c 0
 351 554 346 576 352 594 c 0
 365 631 416 633 435 600 c 0
 443 587 442 567 442 552 c 0
 442 525 443 499 444 472 c 0
 445 427 442 381 446 336 c 1
444 336 m 1
 446 334 l 1
 444 336 l 1
EndSplineSet
EndChar

StartChar: u
Encoding: 117 117 22
Width: 1000
VWidth: 0
Flags: HW
LayerCount: 2
Back
Fore
SplineSet
349 375 m 0
 379 382 408 359 406 328 c 0
 405 318 401 308 400 298 c 0
 396 255 398 209 406 166 c 0
 410 144 415 116 440 109 c 0
 482 97 556 104 580 146 c 0
 599 179 595 228 594 264 c 0
 593 299 567 345 612 365 c 0
 618 368 625 369 631 369 c 0
 687 366 690 282 690 240 c 0
 691 155 677 72 594 29 c 0
 577 20 558 14 540 10 c 0
 476 -5 387 0 344 56 c 0
 313 96 307 153 306 202 c 0
 305 243 304 283 310 323 c 0
 313 346 324 369 349 375 c 0
EndSplineSet
EndChar

StartChar: R
Encoding: 82 82 23
Width: 1000
VWidth: 0
Flags: HW
LayerCount: 2
Back
Fore
SplineSet
370 256 m 1
 365 237 367 215 366 195 c 0
 364 160 360 124 360 88 c 0
 360 56 366 8 350 -20 c 0
 335 -47 294 -50 275 -26 c 0
 263 -11 265 10 264 28 c 0
 263 63 263 97 263 132 c 0
 264 233 274 335 280 436 c 0
 283 482 274 535 283 580 c 0
 289 609 328 649 354 661 c 0
 421 692 488 676 552 645 c 0
 581 631 610 615 631 590 c 0
 675 536 682 460 653 398 c 0
 631 352 589 326 542 312 c 0
 520 305 497 303 476 294 c 1
 496 283 512 263 528 248 c 0
 568 209 604 166 642 125 c 0
 662 104 695 90 711 66 c 0
 731 37 709 -1 676 -5 c 0
 642 -9 602 31 580 52 c 0
 546 85 517 122 483 155 c 0
 447 191 408 222 370 256 c 1
372 554 m 1
 377 498 380 432 372 376 c 1
 417 381 462 393 506 405 c 0
 527 411 550 418 562 438 c 0
 605 507 528 557 472 576 c 0
 457 581 439 588 423 587 c 0
 396 585 391 568 372 554 c 1
368 258 m 1
 370 256 l 1
 368 258 l 1
EndSplineSet
EndChar

StartChar: P
Encoding: 80 80 24
Width: 1000
VWidth: 0
Flags: HW
LayerCount: 2
Back
Fore
SplineSet
432 262 m 1
 441 232 436 193 436 162 c 0
 436 115 443 61 433 14 c 0
 427 -12 399 -27 374 -18 c 0
 350 -10 345 13 342 36 c 0
 336 84 338 133 336 182 c 0
 331 298 327 413 327 529 c 0
 327 556 326 583 326 610 c 0
 326 627 325 644 335 658 c 0
 350 679 366 673 387 676 c 0
 405 679 421 687 439 689 c 0
 511 698 587 682 644 635 c 0
 717 575 741 457 689 378 c 0
 632 290 529 272 432 262 c 1
428 356 m 1
 459 357 491 365 520 374 c 0
 542 381 567 390 584 406 c 0
 626 447 628 512 586 556 c 0
 570 573 548 582 526 589 c 0
 497 599 440 611 421 580 c 0
 412 566 421 534 421 518 c 0
 423 464 428 410 428 356 c 1
EndSplineSet
EndChar

StartChar: zero
Encoding: 48 48 25
Width: 1000
VWidth: 0
Flags: HW
LayerCount: 2
Back
Fore
SplineSet
408 570 m 1
 368 570 335 613 369 647 c 0
 388 666 429 666 454 666 c 0
 490 666 527 661 560 645 c 0
 663 593 712 453 741 350 c 0
 763 272 774 179 724 108 c 0
 667 27 542 -34 452 28 c 0
 406 60 376 119 361 172 c 0
 345 228 345 283 346 340 c 0
 347 418 375 501 408 570 c 1
510 564 m 1
 488 532 474 493 463 456 c 0
 440 376 430 289 452 208 c 0
 463 169 493 90 546 102 c 0
 564 106 579 114 594 124 c 0
 613 136 633 150 645 170 c 0
 661 198 663 235 658 266 c 0
 649 325 629 383 606 438 c 0
 587 483 557 544 510 564 c 1
EndSplineSet
EndChar

StartChar: question
Encoding: 63 63 26
Width: 1000
VWidth: 0
Flags: HW
LayerCount: 2
Back
Fore
SplineSet
560 598 m 1
 518 601 475 551 458 518 c 0
 446 494 443 466 409 463 c 0
 362 460 354 513 369 546 c 0
 400 615 451 669 524 693 c 0
 558 705 596 710 626 685 c 0
 656 659 663 609 659 572 c 0
 651 488 607 422 579 344 c 0
 575 332 570 319 571 306 c 0
 572 280 587 259 562 238 c 0
 527 208 492 241 482 276 c 0
 466 332 491 389 513 440 c 0
 528 474 544 508 553 544 c 0
 557 562 556 581 560 598 c 1
500 111 m 0
 570 128 594 18 522 0 c 0
 455 -16 439 97 500 111 c 0
EndSplineSet
EndChar

StartChar: quotedbl
Encoding: 34 34 27
Width: 1000
VWidth: 0
Flags: HW
LayerCount: 2
Back
Fore
SplineSet
446 661 m 0
 478 668 500 644 508 616 c 0
 521 574 509 523 499 482 c 0
 493 460 483 438 458 433 c 0
 433 428 407 444 403 470 c 0
 398 507 413 545 416 581 c 0
 417 597 409 612 413 628 c 0
 417 644 430 657 446 661 c 0
574 661 m 0
 614 670 624 637 636 608 c 0
 654 564 664 515 653 468 c 0
 648 444 635 419 609 413 c 0
 588 409 566 421 558 440 c 0
 549 462 559 486 558 508 c 0
 557 528 555 550 550 570 c 0
 545 589 538 606 541 626 c 0
 544 643 557 657 574 661 c 0
EndSplineSet
EndChar

StartChar: bracketleft
Encoding: 91 91 28
Width: 1000
VWidth: 0
Flags: HW
LayerCount: 2
Back
Fore
SplineSet
603 483 m 0
 642 490 665 449 652 416 c 0
 640 386 623 357 607 328 c 0
 578 275 550 222 510 176 c 0
 492 155 467 119 437 116 c 0
 403 112 378 148 391 180 c 0
 404 211 433 239 453 266 c 0
 486 313 515 363 545 412 c 0
 561 437 570 477 603 483 c 0
411 475 m 0
 470 486 486 395 427 385 c 0
 370 375 354 464 411 475 c 0
673 237 m 0
 737 252 760 155 696 141 c 0
 635 128 611 223 673 237 c 0
EndSplineSet
EndChar

StartChar: o
Encoding: 111 111 29
Width: 1000
VWidth: 0
Flags: HW
LayerCount: 2
Back
Fore
SplineSet
444 381 m 0
 462 385 474 374 490 373 c 0
 536 369 577 361 613 329 c 0
 700 252 729 98 620 27 c 0
 600 14 577 6 554 -0 c 0
 485 -16 402 14 363 74 c 0
 326 130 322 211 348 272 c 0
 365 312 398 370 444 381 c 0
483 279 m 0
 474 278 461 277 453 272 c 0
 444 266 440 252 436 242 c 0
 423 208 423 162 443 130 c 0
 460 103 499 92 529 96 c 0
 645 113 577 292 483 279 c 0
EndSplineSet
EndChar

StartChar: k
Encoding: 107 107 30
Width: 1000
VWidth: 0
Flags: HW
LayerCount: 2
Back
Fore
SplineSet
440 156 m 1
 440 129 439 101 440 74 c 0
 441 53 443 28 434 8 c 0
 420 -21 378 -27 357 -2 c 0
 343 15 347 37 346 57 c 0
 344 103 341 148 340 194 c 0
 339 283 342 374 346 463 c 0
 347 494 340 540 356 568 c 0
 375 601 427 597 439 560 c 0
 445 543 440 520 440 502 c 2
 440 374 l 1
 466 397 492 422 518 445 c 0
 530 455 538 469 554 474 c 0
 592 487 627 445 609 410 c 0
 590 371 542 341 513 309 c 0
 506 301 484 284 485 272 c 0
 487 252 512 229 524 214 c 0
 555 177 588 142 622 108 c 0
 639 91 664 71 672 48 c 0
 685 9 641 -25 606 -6 c 0
 588 4 574 22 559 35 c 0
 516 73 478 113 440 156 c 1
EndSplineSet
EndChar

StartChar: w
Encoding: 119 119 31
Width: 1000
VWidth: 0
Flags: HW
LayerCount: 2
Back
Fore
SplineSet
482 40 m 1
 425 -17 332 -18 294 62 c 0
 264 125 268 207 276 274 c 0
 280 307 277 367 308 387 c 0
 334 403 372 388 377 357 c 0
 380 337 372 312 370 292 c 0
 365 250 360 204 367 162 c 0
 369 147 372 98 392 97 c 0
 409 96 426 129 432 142 c 0
 453 183 444 275 500 284 c 0
 526 288 550 271 556 246 c 0
 559 232 555 218 554 204 c 0
 552 180 552 156 555 132 c 0
 558 108 564 86 592 85 c 0
 618 84 639 114 649 134 c 0
 674 185 681 262 667 318 c 0
 661 341 640 351 642 378 c 0
 644 406 676 425 702 415 c 0
 722 408 737 388 747 370 c 0
 765 338 766 294 766 258 c 0
 766 171 754 92 692 26 c 0
 641 -28 520 -34 482 40 c 1
EndSplineSet
EndChar

StartChar: D
Encoding: 68 68 32
Width: 1000
VWidth: 0
Flags: HW
LayerCount: 2
Back
Fore
SplineSet
413 685 m 0
 463 691 512 674 556 652 c 0
 596 632 643 606 671 570 c 0
 753 463 751 305 722 180 c 0
 711 130 693 83 662 42 c 0
 601 -38 495 -48 402 -55 c 0
 371 -57 326 -65 313 -28 c 0
 304 -2 323 6 326 29 c 0
 331 60 323 98 322 130 c 0
 318 250 322 370 326 490 c 0
 328 532 317 581 325 622 c 0
 332 660 379 681 413 685 c 0
416 594 m 1
 419 218 l 1
 420 104 l 1
 422 40 l 1
 477 54 541 49 581 98 c 0
 614 138 624 191 632 240 c 0
 646 325 650 443 592 514 c 0
 570 542 530 562 498 577 c 0
 470 590 446 594 416 594 c 1
EndSplineSet
EndChar

StartChar: Q
Encoding: 81 81 33
Width: 1000
VWidth: 0
Flags: HW
LayerCount: 2
Back
Fore
SplineSet
750 92 m 1
 771 81 801 50 808 26 c 0
 815 0 797 -29 770 -32 c 0
 723 -37 705 21 664 30 c 0
 651 33 631 19 618 16 c 0
 586 8 556 3 524 9 c 0
 431 25 312 68 263 154 c 0
 237 200 234 259 238 310 c 0
 248 428 292 541 378 624 c 0
 390 636 406 647 417 660 c 0
 428 674 430 689 448 697 c 0
 465 704 484 705 502 708 c 0
 619 728 713 670 763 564 c 0
 820 444 844 281 790 156 c 0
 780 132 765 113 750 92 c 1
588 110 m 1
 580 126 565 137 556 152 c 0
 539 180 563 217 595 218 c 0
 617 219 633 201 646 186 c 0
 651 180 664 158 674 161 c 0
 682 163 688 175 692 182 c 0
 706 205 711 232 715 258 c 0
 723 312 718 364 709 418 c 0
 703 452 693 484 679 516 c 0
 655 571 616 618 553 619 c 0
 541 619 526 621 515 616 c 0
 491 606 467 582 448 564 c 0
 380 499 340 411 334 317 c 0
 331 279 329 232 350 198 c 0
 373 161 427 142 466 128 c 0
 508 113 544 106 588 110 c 1
EndSplineSet
EndChar

StartChar: one
Encoding: 49 49 34
Width: 1000
VWidth: 0
Flags: HW
LayerCount: 2
Back
Fore
SplineSet
552 558 m 1
 522 537 502 507 474 485 c 0
 442 459 395 488 401 528 c 0
 405 553 426 572 444 588 c 0
 483 624 537 694 598 677 c 0
 663 659 650 561 652 510 c 0
 656 407 654 303 658 200 c 0
 660 157 658 113 654 70 c 0
 652 55 655 36 649 22 c 0
 635 -16 581 -16 565 20 c 0
 557 38 561 59 562 78 c 0
 564 111 565 147 562 180 c 0
 557 229 558 279 558 328 c 0
 558 405 555 481 552 558 c 1
EndSplineSet
EndChar

StartChar: colon
Encoding: 58 58 35
Width: 1000
VWidth: 0
Flags: HW
LayerCount: 2
Back
Fore
SplineSet
490 355 m 0
 550 369 575 280 514 266 c 0
 456 253 430 341 490 355 c 0
486 147 m 0
 552 159 574 66 504 53 c 0
 442 42 423 135 486 147 c 0
EndSplineSet
EndChar

StartChar: quotedblleft
Encoding: 8220 8220 36
Width: 1000
VWidth: 0
Flags: HW
LayerCount: 2
Back
Fore
SplineSet
600 699 m 0
 621 701 640 686 646 666 c 0
 654 637 629 615 632 585 c 0
 636 545 703 534 675 484 c 0
 672 478 667 474 662 470 c 0
 655 465 648 462 640 461 c 0
 618 458 594 471 578 485 c 0
 535 522 522 581 540 634 c 0
 550 663 566 696 600 699 c 0
450 685 m 0
 457 686 465 684 472 681 c 0
 529 657 477 599 480 560 c 0
 481 546 500 533 508 522 c 0
 529 493 515 451 477 447 c 0
 458 445 442 456 428 467 c 0
 373 510 375 562 397 622 c 0
 407 648 417 682 450 685 c 0
EndSplineSet
EndChar

StartChar: ampersand
Encoding: 38 38 37
Width: 1000
VWidth: 0
Flags: HW
LayerCount: 2
Back
Fore
SplineSet
392 402 m 1
 360 489 303 587 340 682 c 0
 396 827 603 758 663 656 c 0
 706 583 668 483 612 428 c 0
 595 411 576 396 556 383 c 0
 550 379 536 374 536 366 c 0
 536 359 545 351 549 346 c 0
 561 330 574 315 586 300 c 1
 595 318 604 347 622 358 c 0
 650 376 690 358 692 324 c 0
 693 300 679 279 668 258 c 0
 664 251 654 239 655 231 c 0
 656 221 677 207 684 200 c 0
 709 173 732 132 710 96 c 0
 695 72 657 69 638 90 c 0
 629 101 630 112 625 124 c 0
 623 130 608 149 600 147 c 0
 592 145 585 132 580 126 c 0
 566 111 551 98 534 87 c 0
 477 49 401 43 336 59 c 0
 313 65 289 73 268 85 c 0
 204 124 190 204 225 268 c 0
 257 326 330 379 392 402 c 1
476 452 m 1
 496 458 515 476 530 489 c 0
 556 511 597 565 579 602 c 0
 563 637 520 657 484 663 c 0
 469 666 450 668 438 656 c 0
 412 630 433 564 443 534 c 0
 452 506 462 478 476 452 c 1
534 216 m 1
 534 218 l 1
 448 320 l 1
 407 305 351 272 323 238 c 0
 311 223 297 202 305 182 c 0
 312 163 344 155 362 151 c 0
 433 134 490 160 534 216 c 1
EndSplineSet
EndChar

StartChar: bracketright
Encoding: 93 93 38
Width: 1000
VWidth: 0
Flags: HW
LayerCount: 2
Back
Fore
SplineSet
512 606 m 1
 495 602 476 600 459 598 c 0
 444 596 428 594 414 601 c 0
 387 615 380 651 401 673 c 0
 413 686 429 687 445 689 c 0
 482 695 542 714 576 692 c 0
 620 664 608 591 611 547 c 0
 621 408 611 267 627 128 c 0
 632 83 649 -3 608 -34 c 0
 573 -61 503 -54 462 -48 c 0
 447 -46 431 -45 418 -36 c 0
 387 -14 398 38 436 45 c 0
 467 50 504 43 536 44 c 1
 524 164 l 1
 512 606 l 1
EndSplineSet
EndChar

StartChar: d
Encoding: 100 100 39
Width: 1000
VWidth: 0
Flags: HW
LayerCount: 2
Back
Fore
SplineSet
580 392 m 1
 580 435 577 478 577 521 c 0
 577 546 576 575 585 598 c 0
 602 640 663 647 680 600 c 0
 690 571 687 535 688 504 c 0
 689 444 686 387 682 328 c 0
 677 261 690 182 704 116 c 0
 706 105 709 79 722 75 c 0
 732 72 746 81 756 82 c 0
 782 85 806 66 808 40 c 0
 810 14 790 -2 768 -10 c 0
 733 -23 693 -23 662 -0 c 0
 632 22 631 56 612 84 c 1
 580 16 488 -47 412 -17 c 0
 380 -4 354 23 336 52 c 0
 325 71 316 93 313 115 c 0
 299 208 369 296 440 347 c 0
 476 373 534 409 580 392 c 1
554 303 m 0
 539 300 523 290 510 282 c 0
 469 257 423 212 410 164 c 0
 402 136 418 69 458 75 c 0
 477 78 491 91 504 104 c 0
 538 139 552 186 562 232 c 0
 565 244 561 256 562 268 c 0
 563 277 567 288 565 297 c 0
 564 302 559 304 554 303 c 0
614 86 m 1
 616 84 l 1
 614 86 l 1
EndSplineSet
EndChar

StartChar: l
Encoding: 108 108 40
Width: 1000
VWidth: 0
Flags: HW
LayerCount: 2
Back
Fore
SplineSet
480 613 m 0
 512 621 541 596 538 563 c 0
 527 443 520 322 535 201 c 0
 540 159 541 109 559 70 c 0
 568 51 591 48 601 30 c 0
 616 4 602 -29 574 -37 c 0
 516 -54 471 20 459 66 c 0
 426 197 425 328 434 462 c 0
 436 500 439 539 447 576 c 0
 451 593 462 609 480 613 c 0
EndSplineSet
EndChar

StartChar: v
Encoding: 118 118 41
Width: 1000
VWidth: 0
Flags: HW
LayerCount: 2
Back
Fore
SplineSet
490 138 m 1
 509 182 519 231 536 276 c 0
 545 301 555 325 564 350 c 0
 572 372 577 402 596 417 c 0
 624 439 666 418 669 383 c 0
 672 344 646 296 633 260 c 0
 607 187 586 111 565 36 c 0
 555 0 543 -45 497 -45 c 0
 454 -45 441 1 428 34 c 0
 397 110 365 186 334 262 c 0
 323 289 297 325 299 355 c 0
 301 392 346 410 374 387 c 0
 386 377 391 360 398 346 c 0
 412 317 424 288 437 258 c 0
 454 218 473 178 490 138 c 1
EndSplineSet
EndChar

StartChar: L
Encoding: 76 76 42
Width: 1000
VWidth: 0
Flags: HW
LayerCount: 2
Back
Fore
SplineSet
426 50 m 1
 445 46 468 50 487 51 c 0
 519 52 552 48 584 48 c 0
 600 48 616 53 632 51 c 0
 665 46 682 8 664 -20 c 0
 649 -43 618 -42 594 -44 c 0
 545 -48 495 -43 446 -48 c 0
 424 -50 406 -60 385 -63 c 0
 363 -66 342 -58 331 -38 c 0
 319 -15 324 16 326 40 c 0
 329 73 328 105 328 138 c 0
 328 247 328 357 324 466 c 0
 323 505 320 545 320 584 c 0
 320 601 318 620 322 636 c 0
 334 681 397 681 410 636 c 0
 417 612 412 590 412 566 c 0
 413 519 414 471 416 424 c 0
 419 334 428 244 428 154 c 0
 428 120 432 83 426 50 c 1
EndSplineSet
EndChar

StartChar: S
Encoding: 83 83 43
Width: 1000
VWidth: 0
Flags: HW
LayerCount: 2
Back
Fore
SplineSet
509 695 m 0
 564 702 629 680 658 630 c 0
 677 597 686 525 637 513 c 0
 611 507 588 526 582 550 c 0
 580 560 583 573 578 582 c 0
 571 595 552 601 538 602 c 0
 512 604 483 591 462 576 c 0
 454 570 443 561 442 550 c 0
 441 536 453 521 461 510 c 0
 482 482 505 457 527 430 c 0
 571 377 627 320 654 256 c 0
 689 174 672 67 586 26 c 0
 562 15 535 10 509 7 c 0
 430 -1 384 42 328 91 c 0
 302 114 267 155 310 183 c 0
 337 200 363 184 384 166 c 0
 418 137 448 98 497 103 c 0
 524 106 561 111 568 143 c 0
 578 190 558 226 531 262 c 0
 514 285 496 307 478 330 c 0
 421 404 304 499 357 604 c 0
 363 616 371 627 380 636 c 0
 393 649 410 658 426 667 c 0
 451 681 480 692 509 695 c 0
EndSplineSet
EndChar

StartChar: two
Encoding: 50 50 44
Width: 1000
VWidth: 0
Flags: HW
LayerCount: 2
Back
Fore
SplineSet
456 96 m 1
 494 96 531 94 569 89 c 0
 583 87 597 89 610 84 c 0
 638 73 648 35 629 12 c 0
 605 -18 551 -2 519 0 c 0
 468 3 416 -6 365 1 c 0
 340 5 319 23 316 49 c 0
 315 60 316 71 318 82 c 0
 325 128 384 161 409 198 c 0
 459 272 496 362 521 448 c 0
 529 477 543 514 537 544 c 0
 533 563 513 577 494 571 c 0
 458 559 419 509 402 476 c 0
 391 455 399 434 374 420 c 0
 325 393 297 452 309 492 c 0
 329 559 395 635 460 661 c 0
 529 689 611 646 631 576 c 0
 646 525 630 467 616 418 c 0
 591 331 556 243 508 166 c 0
 492 141 473 120 456 96 c 1
EndSplineSet
EndChar

StartChar: semicolon
Encoding: 59 59 45
Width: 1000
VWidth: 0
Flags: HW
LayerCount: 2
Back
Fore
SplineSet
513 383 m 0
 569 392 586 304 529 293 c 0
 470 282 453 373 513 383 c 0
497 129 m 0
 527 134 552 106 561 80 c 0
 575 39 565 -16 548 -54 c 0
 539 -74 525 -94 501 -97 c 0
 476 -100 452 -81 450 -56 c 0
 447 -22 468 12 470 46 c 0
 471 64 456 77 462 98 c 0
 467 114 481 126 497 129 c 0
EndSplineSet
EndChar

StartChar: quotedblright
Encoding: 8221 8221 46
Width: 1000
VWidth: 0
Flags: HW
LayerCount: 2
Back
Fore
SplineSet
551 667 m 0
 573 671 596 657 610 642 c 0
 645 606 650 548 637 502 c 0
 630 477 620 452 591 447 c 0
 584 446 577 447 570 449 c 0
 514 466 548 526 543 564 c 0
 541 582 526 587 519 602 c 0
 506 629 522 661 551 667 c 0
418 665 m 0
 444 671 467 652 478 630 c 0
 498 588 500 485 442 472 c 0
 435 471 429 470 422 472 c 0
 370 484 392 549 391 587 c 0
 391 604 380 616 385 634 c 0
 390 650 402 661 418 665 c 0
EndSplineSet
EndChar

StartChar: parenleft
Encoding: 40 40 47
Width: 1000
VWidth: 0
Flags: HW
LayerCount: 2
Back
Fore
SplineSet
549 785 m 0
 583 793 620 765 610 728 c 0
 605 711 591 705 582 692 c 0
 569 673 560 649 552 628 c 0
 492 478 460 322 526 168 c 0
 539 137 557 107 578 80 c 0
 591 64 610 51 618 32 c 0
 628 9 616 -20 592 -28 c 0
 564 -38 544 -20 525 -3 c 0
 483 35 452 88 430 140 c 0
 359 304 388 479 456 640 c 0
 471 676 486 713 506 746 c 0
 516 763 529 780 549 785 c 0
EndSplineSet
EndChar

StartChar: asciicircum
Encoding: 94 94 48
Width: 1000
VWidth: 0
Flags: HW
LayerCount: 2
Back
Fore
SplineSet
506 586 m 1
 492 561 468 520 442 506 c 0
 417 493 383 501 373 528 c 0
 361 560 388 580 404 604 c 0
 436 653 483 739 554 690 c 0
 572 678 577 659 590 643 c 0
 613 615 659 588 667 551 c 0
 674 516 641 487 608 497 c 0
 587 503 572 523 557 537 c 0
 540 553 522 569 506 586 c 1
EndSplineSet
EndChar

StartChar: p
Encoding: 112 112 49
Width: 1000
VWidth: 0
Flags: HW
LayerCount: 2
Back
Fore
SplineSet
412 24 m 1
 412 -12 412 -48 414 -84 c 0
 415 -107 421 -133 416 -156 c 0
 410 -185 377 -201 350 -187 c 0
 326 -174 327 -148 323 -124 c 0
 315 -70 312 -17 314 38 c 0
 317 108 314 178 318 248 c 0
 319 273 316 311 326 334 c 0
 340 366 363 352 386 362 c 0
 402 369 416 384 432 392 c 0
 467 411 511 417 550 409 c 0
 717 376 746 151 628 47 c 0
 565 -9 486 0 412 24 c 1
412 274 m 1
 411 242 413 210 412 178 c 0
 412 163 407 145 411 130 c 0
 413 121 426 119 434 116 c 0
 458 107 483 102 508 102 c 0
 617 102 638 294 528 317 c 0
 507 321 479 317 462 304 c 0
 444 291 438 275 412 274 c 1
EndSplineSet
EndChar

StartChar: f
Encoding: 102 102 50
Width: 1000
VWidth: 0
Flags: HW
LayerCount: 2
Back
Fore
SplineSet
426 386 m 1
 422 405 427 430 430 450 c 0
 442 522 485 610 568 614 c 0
 643 617 733 538 703 458 c 0
 690 423 639 420 621 452 c 0
 612 467 619 487 609 500 c 0
 602 509 588 517 576 517 c 0
 564 517 553 501 547 492 c 0
 526 459 532 424 524 388 c 1
 547 388 579 393 600 381 c 0
 627 365 630 323 604 304 c 0
 584 289 552 289 528 288 c 1
 528 218 534 148 540 78 c 0
 542 51 550 17 528 -4 c 0
 503 -27 460 -14 453 20 c 0
 434 106 428 202 428 290 c 1
 405 285 354 288 334 301 c 0
 309 317 306 354 328 374 c 0
 352 396 396 379 426 386 c 1
EndSplineSet
EndChar

StartChar: x
Encoding: 120 120 51
Width: 1000
VWidth: 0
Flags: HW
LayerCount: 2
Back
Fore
SplineSet
520 274 m 1
 535 309 569 342 593 370 c 0
 604 382 615 399 630 407 c 0
 661 425 706 406 703 367 c 0
 701 344 685 334 672 318 c 0
 649 290 627 260 607 230 c 0
 601 221 584 204 583 193 c 0
 582 183 601 166 607 158 c 0
 625 132 660 94 664 62 c 0
 668 26 631 -1 598 15 c 0
 569 29 536 77 522 106 c 1
 495 75 477 15 440 -5 c 0
 405 -24 364 7 373 46 c 0
 381 81 409 119 428 148 c 0
 435 158 453 178 453 190 c 0
 453 202 437 217 431 226 c 0
 409 259 374 292 358 328 c 0
 341 367 376 412 418 391 c 0
 432 384 439 371 448 360 c 0
 470 333 492 295 520 274 c 1
EndSplineSet
EndChar

StartChar: E
Encoding: 69 69 52
Width: 1000
VWidth: 0
Flags: HW
LayerCount: 2
Back
Fore
SplineSet
364 278 m 1
 357 259 360 235 359 215 c 0
 358 182 355 149 355 116 c 0
 355 105 350 73 361 67 c 0
 377 59 416 69 434 70 c 0
 489 72 545 73 600 69 c 0
 636 66 680 54 669 8 c 0
 658 -39 588 -28 552 -28 c 0
 499 -28 447 -26 394 -26 c 0
 370 -26 340 -32 318 -22 c 0
 296 -12 273 26 266 48 c 0
 249 101 257 169 260 224 c 0
 265 317 271 409 280 502 c 0
 283 534 289 566 290 598 c 0
 291 617 285 634 299 650 c 0
 318 671 358 669 384 672 c 0
 459 680 535 687 611 689 c 0
 641 690 682 691 694 656 c 0
 705 623 679 599 649 595 c 0
 596 588 543 587 490 584 c 0
 455 582 417 576 382 580 c 1
 374 487 l 1
 366 370 l 1
 442 385 523 392 600 376 c 0
 635 369 681 348 661 304 c 0
 651 281 627 276 605 278 c 0
 554 283 502 287 450 285 c 0
 422 284 391 275 364 278 c 1
EndSplineSet
EndChar

StartChar: T
Encoding: 84 84 53
Width: 1000
VWidth: 0
Flags: HWO
LayerCount: 2
Back
Fore
SplineSet
450 591 m 5
 414 595 376 591 340 591 c 4
 326 591 309 589 296 593 c 4
 248 609 261 674 306 682 c 4
 359 692 418 684 472 687 c 4
 517 690 561 689 606 691 c 4
 640 693 678 698 711 694 c 4
 754 689 768 629 728 608 c 4
 711 599 689 599 670 597 c 4
 627 592 583 591 540 591 c 5
 544 554 537 505 538 468 c 0
 540 356 540 252 544 140 c 0
 545 119 543 80 544 59 c 0
 546 27 551 -4 510 -13 c 0
 443 -28 448 93 446 132 c 0
 440 245 438 351 444 464 c 0
 446 502 442 554 450 591 c 5
EndSplineSet
EndChar

StartChar: three
Encoding: 51 51 54
Width: 1000
VWidth: 0
Flags: HW
LayerCount: 2
Back
Fore
SplineSet
584 420 m 1
 662 402 688 318 689 248 c 0
 690 206 689 162 674 122 c 0
 645 43 567 -15 482 -10 c 0
 427 -7 366 9 316 31 c 0
 291 42 268 60 275 90 c 0
 288 146 345 117 380 107 c 0
 419 96 477 74 518 89 c 0
 539 97 558 117 570 136 c 0
 578 148 583 161 586 175 c 0
 594 219 604 323 539 328 c 0
 494 331 428 245 392 312 c 0
 388 319 386 327 385 335 c 0
 382 373 424 388 448 409 c 0
 479 436 504 477 522 514 c 0
 529 528 549 568 538 583 c 0
 532 592 518 597 508 600 c 0
 468 612 422 588 405 550 c 0
 395 529 403 503 384 486 c 0
 362 466 327 472 313 498 c 0
 306 511 307 527 308 541 c 0
 319 653 443 723 546 688 c 0
 583 675 619 653 633 614 c 0
 657 549 613 475 584 420 c 1
EndSplineSet
EndChar

StartChar: hyphen
Encoding: 45 45 55
Width: 1000
VWidth: 0
Flags: HW
LayerCount: 2
Back
Fore
SplineSet
453 267 m 0
 497 272 544 268 588 268 c 0
 614 268 645 272 670 262 c 0
 716 244 702 181 658 173 c 0
 592 161 524 172 458 172 c 0
 434 172 403 158 380 167 c 0
 348 179 340 223 366 245 c 0
 388 263 426 264 453 267 c 0
EndSplineSet
EndChar

StartChar: at
Encoding: 64 64 56
Width: 1000
VWidth: 0
Flags: HW
LayerCount: 2
Back
Fore
SplineSet
475 685 m 0
 562 696 635 641 688 578 c 0
 713 548 736 512 744 472 c 0
 760 390 721 299 654 251 c 0
 618 225 568 209 526 228 c 0
 514 233 496 256 485 257 c 0
 476 258 462 244 454 239 c 0
 435 228 412 219 390 218 c 0
 336 215 280 254 280 312 c 0
 280 343 298 377 315 402 c 0
 362 471 473 556 551 475 c 0
 571 454 579 424 572 396 c 0
 568 381 560 368 559 353 c 0
 558 332 564 313 588 327 c 0
 628 352 657 409 645 456 c 0
 639 478 623 499 609 516 c 0
 567 567 514 601 448 576 c 0
 395 556 361 516 328 472 c 0
 278 405 226 322 288 244 c 0
 301 228 317 214 334 202 c 0
 351 189 375 171 396 167 c 0
 450 156 520 160 570 183 c 0
 603 198 640 244 678 218 c 0
 731 181 668 129 634 111 c 0
 590 87 542 75 492 70 c 0
 449 65 399 65 358 78 c 0
 327 88 295 110 270 129 c 0
 228 162 190 200 173 252 c 0
 141 351 181 439 238 518 c 0
 298 602 369 671 475 685 c 0
378 314 m 1
 419 316 442 355 462 386 c 0
 468 395 477 402 482 412 c 1
 439 422 384 353 378 314 c 1
EndSplineSet
EndChar

StartChar: parenright
Encoding: 41 41 57
Width: 1000
VWidth: 0
Flags: HW
LayerCount: 2
Back
Fore
SplineSet
457 741 m 0
 480 745 504 726 519 710 c 0
 554 672 576 622 588 572 c 0
 629 410 593 236 524 86 c 0
 507 49 490 12 464 -20 c 0
 452 -35 438 -50 418 -50 c 0
 383 -51 360 -13 377 18 c 0
 390 43 407 64 419 90 c 0
 439 130 453 173 467 216 c 0
 505 335 528 467 484 588 c 0
 477 607 468 628 454 644 c 0
 445 654 431 660 424 672 c 0
 407 700 425 736 457 741 c 0
EndSplineSet
EndChar

StartChar: grave
Encoding: 96 96 58
Width: 1000
VWidth: 0
Flags: HW
LayerCount: 2
Back
Fore
SplineSet
450 737 m 0
 476 743 488 726 506 712 c 0
 536 689 580 677 602 644 c 0
 620 617 611 579 578 570 c 0
 559 565 542 573 526 582 c 0
 490 601 448 628 425 662 c 0
 407 689 416 729 450 737 c 0
EndSplineSet
EndChar

StartChar: a
Encoding: 97 97 59
Width: 1000
VWidth: 0
Flags: HW
LayerCount: 2
Back
Fore
SplineSet
572 62 m 1
 518 19 468 -20 395 -18 c 0
 379 -18 361 -14 346 -8 c 0
 214 40 257 232 326 316 c 0
 390 394 509 437 592 360 c 0
 605 348 616 334 625 318 c 0
 660 254 646 185 661 116 c 0
 665 98 672 77 684 62 c 0
 701 41 728 29 717 -4 c 0
 707 -34 674 -43 648 -28 c 0
 611 -6 589 30 576 70 c 1
 570 66 l 1
 572 62 l 1
496 378 m 1
 498 376 l 1
 496 378 l 1
450 374 m 1
 452 372 l 1
 450 374 l 1
446 372 m 1
 448 370 l 1
 446 372 l 1
462 372 m 1
 464 370 l 1
 462 372 l 1
488 372 m 1
 490 370 l 1
 488 372 l 1
510 372 m 1
 512 370 l 1
 510 372 l 1
476 370 m 1
 478 368 l 1
 476 370 l 1
522 370 m 1
 524 368 l 1
 522 370 l 1
534 368 m 1
 536 366 l 1
 534 368 l 1
546 364 m 1
 548 362 l 1
 546 364 l 1
440 362 m 1
 442 360 l 1
 440 362 l 1
436 360 m 1
 438 358 l 1
 436 360 l 1
420 358 m 1
 422 356 l 1
 420 358 l 1
432 358 m 1
 434 356 l 1
 432 358 l 1
506 358 m 1
 508 356 l 1
 506 358 l 1
560 358 m 1
 562 356 l 1
 560 358 l 1
416 356 m 1
 418 354 l 1
 416 356 l 1
502 356 m 1
 504 354 l 1
 502 356 l 1
474 354 m 1
 476 352 l 1
 474 354 l 1
498 354 m 1
 500 352 l 1
 498 354 l 1
468 352 m 1
 470 350 l 1
 468 352 l 1
488 352 m 1
 490 350 l 1
 488 352 l 1
522 352 m 1
 524 350 l 1
 522 352 l 1
464 350 m 1
 466 348 l 1
 464 350 l 1
534 350 m 1
 536 348 l 1
 534 350 l 1
574 350 m 1
 576 348 l 1
 574 350 l 1
460 348 m 1
 462 346 l 1
 460 348 l 1
408 346 m 1
 410 344 l 1
 408 346 l 1
548 346 m 1
 550 344 l 1
 548 346 l 1
588 346 m 1
 590 344 l 1
 588 346 l 1
400 340 m 1
 402 338 l 1
 400 340 l 1
562 340 m 1
 564 338 l 1
 562 340 l 1
392 336 m 1
 394 334 l 1
 392 336 l 1
454 336 m 1
 456 334 l 1
 454 336 l 1
388 334 m 1
 390 332 l 1
 388 334 l 1
430 334 m 1
 432 332 l 1
 430 334 l 1
450 334 m 1
 452 332 l 1
 450 334 l 1
524 334 m 1
 526 332 l 1
 524 334 l 1
578 334 m 1
 580 332 l 1
 578 334 l 1
424 332 m 1
 426 330 l 1
 424 332 l 1
442 332 m 1
 444 330 l 1
 442 332 l 1
492 332 m 1
 494 330 l 1
 492 332 l 1
520 332 m 1
 522 330 l 1
 520 332 l 1
538 332 m 1
 540 330 l 1
 538 332 l 1
382 330 m 1
 384 328 l 1
 382 330 l 1
516 330 m 1
 518 328 l 1
 516 330 l 1
506 328 m 1
 508 326 l 1
 506 328 l 1
552 328 m 1
 554 326 l 1
 552 328 l 1
596 328 m 1
 598 326 l 1
 596 328 l 1
354 326 m 1
 356 324 l 1
 354 326 l 1
376 326 m 1
 378 324 l 1
 376 326 l 1
418 326 m 1
 420 324 l 1
 418 326 l 1
592 326 m 1
 594 324 l 1
 592 326 l 1
368 324 m 1
 370 322 l 1
 368 324 l 1
484 324 m 1
 486 322 l 1
 484 324 l 1
568 324 m 1
 570 322 l 1
 568 324 l 1
480 322 m 1
 482 320 l 1
 480 322 l 1
474 320 m 1
 476 318 l 1
 474 320 l 1
348 316 m 1
 350 314 l 1
 348 316 l 1
412 316 m 1
 414 314 l 1
 412 316 l 1
582 316 m 1
 584 314 l 1
 582 316 l 1
612 316 m 1
 614 314 l 1
 612 316 l 1
546 314 m 1
 548 312 l 1
 546 314 l 1
468 312 m 1
 470 310 l 1
 468 312 l 1
502 312 m 1
 504 310 l 1
 502 312 l 1
542 312 m 1
 544 310 l 1
 542 312 l 1
562 312 m 1
 564 310 l 1
 562 312 l 1
446 310 m 1
 448 308 l 1
 446 310 l 1
464 310 m 1
 466 308 l 1
 464 310 l 1
366 308 m 1
 368 306 l 1
 366 308 l 1
406 308 m 1
 408 306 l 1
 406 308 l 1
440 308 m 1
 442 306 l 1
 440 308 l 1
460 308 m 1
 462 306 l 1
 460 308 l 1
404 262 m 1
 406 258 l 1
 395 252 388 237 383 226 c 0
 369 195 359 162 360 128 c 0
 360 117 361 101 369 93 c 0
 392 68 443 88 466 102 c 0
 499 122 518 158 535 192 c 0
 541 203 551 219 551 232 c 0
 552 270 527 315 482 307 c 0
 450 302 429 279 404 262 c 1
516 308 m 1
 518 306 l 1
 516 308 l 1
436 306 m 1
 438 304 l 1
 436 306 l 1
534 306 m 1
 536 304 l 1
 534 306 l 1
398 304 m 1
 400 302 l 1
 398 304 l 1
432 304 m 1
 434 302 l 1
 432 304 l 1
576 304 m 1
 578 302 l 1
 576 304 l 1
598 304 m 1
 600 302 l 1
 598 304 l 1
608 304 m 1
 610 302 l 1
 608 304 l 1
394 302 m 1
 396 300 l 1
 394 302 l 1
428 302 m 1
 430 300 l 1
 428 302 l 1
594 302 m 1
 596 300 l 1
 594 302 l 1
358 300 m 1
 360 298 l 1
 358 300 l 1
382 300 m 1
 384 298 l 1
 382 300 l 1
346 298 m 1
 348 296 l 1
 346 298 l 1
560 294 m 1
 562 292 l 1
 560 294 l 1
570 294 m 1
 572 292 l 1
 570 294 l 1
624 292 m 1
 626 290 l 1
 624 292 l 1
376 290 m 1
 378 288 l 1
 376 290 l 1
422 290 m 1
 424 288 l 1
 422 290 l 1
588 290 m 1
 590 288 l 1
 588 290 l 1
550 288 m 1
 552 286 l 1
 550 288 l 1
340 286 m 1
 342 284 l 1
 340 286 l 1
546 286 m 1
 548 284 l 1
 546 286 l 1
370 284 m 1
 372 282 l 1
 370 284 l 1
364 282 m 1
 366 280 l 1
 364 282 l 1
394 282 m 1
 396 280 l 1
 394 282 l 1
414 282 m 1
 416 280 l 1
 414 282 l 1
618 282 m 1
 620 280 l 1
 618 282 l 1
356 280 m 1
 358 278 l 1
 356 280 l 1
612 280 m 1
 614 278 l 1
 612 280 l 1
408 278 m 1
 410 276 l 1
 408 278 l 1
604 278 m 1
 606 276 l 1
 604 278 l 1
334 276 m 1
 336 274 l 1
 334 276 l 1
582 276 m 1
 584 274 l 1
 582 276 l 1
576 274 m 1
 578 272 l 1
 576 274 l 1
568 272 m 1
 570 270 l 1
 568 272 l 1
596 272 m 1
 598 270 l 1
 596 272 l 1
328 270 m 1
 330 268 l 1
 328 270 l 1
352 268 m 1
 354 266 l 1
 352 268 l 1
390 268 m 1
 392 266 l 1
 390 268 l 1
322 264 m 1
 324 262 l 1
 322 264 l 1
382 258 m 1
 384 256 l 1
 382 258 l 1
566 258 m 1
 568 256 l 1
 566 258 l 1
632 258 m 1
 634 256 l 1
 632 258 l 1
348 256 m 1
 350 254 l 1
 348 256 l 1
370 256 m 1
 372 254 l 1
 370 256 l 1
628 256 m 1
 630 254 l 1
 628 256 l 1
366 254 m 1
 368 252 l 1
 366 254 l 1
610 254 m 1
 612 252 l 1
 610 254 l 1
620 254 m 1
 622 252 l 1
 620 254 l 1
596 252 m 1
 598 250 l 1
 596 252 l 1
606 252 m 1
 608 250 l 1
 606 252 l 1
318 250 m 1
 320 248 l 1
 318 250 l 1
590 250 m 1
 592 248 l 1
 590 250 l 1
342 248 m 1
 344 246 l 1
 342 248 l 1
560 248 m 1
 562 246 l 1
 560 248 l 1
584 248 m 1
 586 246 l 1
 584 248 l 1
336 244 m 1
 338 242 l 1
 336 244 l 1
362 240 m 1
 364 238 l 1
 362 240 l 1
578 240 m 1
 580 238 l 1
 578 240 l 1
314 238 m 1
 316 236 l 1
 314 238 l 1
330 234 m 1
 332 232 l 1
 330 234 l 1
380 232 m 1
 382 230 l 1
 380 232 l 1
572 232 m 1
 574 230 l 1
 572 232 l 1
308 230 m 1
 310 228 l 1
 308 230 l 1
638 230 m 1
 640 228 l 1
 638 230 l 1
358 228 m 1
 360 226 l 1
 358 228 l 1
626 228 m 1
 628 226 l 1
 626 228 l 1
618 226 m 1
 620 224 l 1
 618 226 l 1
352 224 m 1
 354 222 l 1
 352 224 l 1
608 224 m 1
 610 222 l 1
 608 224 l 1
374 222 m 1
 376 220 l 1
 374 222 l 1
568 222 m 1
 570 220 l 1
 568 222 l 1
600 222 m 1
 602 220 l 1
 600 222 l 1
346 220 m 1
 348 218 l 1
 346 220 l 1
594 220 m 1
 596 218 l 1
 594 220 l 1
302 218 m 1
 304 216 l 1
 302 218 l 1
326 218 m 1
 328 216 l 1
 326 218 l 1
590 218 m 1
 592 216 l 1
 590 218 l 1
340 216 m 1
 342 214 l 1
 340 216 l 1
320 212 m 1
 322 210 l 1
 320 212 l 1
296 210 m 1
 298 208 l 1
 296 210 l 1
642 210 m 1
 644 208 l 1
 642 210 l 1
584 208 m 1
 586 206 l 1
 584 208 l 1
638 208 m 1
 640 206 l 1
 638 208 l 1
566 204 m 1
 568 202 l 1
 566 204 l 1
578 204 m 1
 580 202 l 1
 578 204 l 1
632 204 m 1
 634 202 l 1
 632 204 l 1
314 202 m 1
 316 200 l 1
 314 202 l 1
624 202 m 1
 626 200 l 1
 624 202 l 1
290 200 m 1
 292 198 l 1
 290 200 l 1
340 198 m 1
 342 196 l 1
 340 198 l 1
366 198 m 1
 368 196 l 1
 366 198 l 1
336 196 m 1
 338 194 l 1
 336 196 l 1
616 196 m 1
 618 194 l 1
 616 196 l 1
358 194 m 1
 360 192 l 1
 358 194 l 1
612 194 m 1
 614 192 l 1
 612 194 l 1
606 192 m 1
 608 190 l 1
 606 192 l 1
306 190 m 1
 308 188 l 1
 306 190 l 1
564 190 m 1
 566 188 l 1
 564 190 l 1
602 190 m 1
 604 188 l 1
 602 190 l 1
328 188 m 1
 330 186 l 1
 328 188 l 1
286 186 m 1
 288 184 l 1
 286 186 l 1
322 184 m 1
 324 182 l 1
 322 184 l 1
580 184 m 1
 582 182 l 1
 580 184 l 1
594 184 m 1
 596 182 l 1
 594 184 l 1
300 180 m 1
 302 178 l 1
 300 180 l 1
356 180 m 1
 358 178 l 1
 356 180 l 1
558 178 m 1
 560 176 l 1
 558 178 l 1
640 178 m 1
 642 176 l 1
 640 178 l 1
636 176 m 1
 638 174 l 1
 636 176 l 1
350 174 m 1
 352 172 l 1
 350 174 l 1
316 172 m 1
 318 170 l 1
 316 172 l 1
574 172 m 1
 576 170 l 1
 574 172 l 1
282 170 m 1
 284 168 l 1
 282 170 l 1
344 170 m 1
 346 168 l 1
 344 170 l 1
294 168 m 1
 296 166 l 1
 294 168 l 1
592 168 m 1
 594 166 l 1
 592 168 l 1
630 168 m 1
 632 166 l 1
 630 168 l 1
336 164 m 1
 338 162 l 1
 336 164 l 1
554 164 m 1
 556 162 l 1
 554 164 l 1
610 164 m 1
 612 162 l 1
 610 164 l 1
624 164 m 1
 626 162 l 1
 624 164 l 1
606 162 m 1
 608 160 l 1
 606 162 l 1
310 160 m 1
 312 158 l 1
 310 160 l 1
568 160 m 1
 570 158 l 1
 568 160 l 1
330 158 m 1
 332 156 l 1
 330 158 l 1
586 158 m 1
 588 156 l 1
 586 158 l 1
548 154 m 1
 550 152 l 1
 548 154 l 1
284 152 m 1
 286 150 l 1
 284 152 l 1
298 150 m 1
 300 148 l 1
 298 150 l 1
324 150 m 1
 326 148 l 1
 324 150 l 1
542 150 m 1
 544 148 l 1
 542 150 l 1
648 148 m 1
 650 146 l 1
 648 148 l 1
580 146 m 1
 582 144 l 1
 580 146 l 1
600 146 m 1
 602 144 l 1
 600 146 l 1
316 144 m 1
 318 142 l 1
 316 144 l 1
352 144 m 1
 354 142 l 1
 352 144 l 1
536 144 m 1
 538 142 l 1
 536 144 l 1
566 144 m 1
 568 142 l 1
 566 144 l 1
642 144 m 1
 644 142 l 1
 642 144 l 1
312 142 m 1
 314 140 l 1
 312 142 l 1
622 142 m 1
 624 140 l 1
 622 142 l 1
632 142 m 1
 634 140 l 1
 632 142 l 1
616 140 m 1
 618 138 l 1
 616 140 l 1
280 138 m 1
 282 136 l 1
 280 138 l 1
344 138 m 1
 346 136 l 1
 344 138 l 1
594 136 m 1
 596 134 l 1
 594 136 l 1
294 134 m 1
 296 132 l 1
 294 134 l 1
528 134 m 1
 530 132 l 1
 528 134 l 1
306 132 m 1
 308 130 l 1
 306 132 l 1
562 132 m 1
 564 130 l 1
 562 132 l 1
338 130 m 1
 340 128 l 1
 338 130 l 1
578 128 m 1
 580 126 l 1
 578 128 l 1
588 128 m 1
 590 126 l 1
 588 128 l 1
610 128 m 1
 612 126 l 1
 610 128 l 1
522 126 m 1
 524 124 l 1
 522 126 l 1
556 126 m 1
 558 124 l 1
 556 126 l 1
550 124 m 1
 552 122 l 1
 550 124 l 1
332 122 m 1
 334 120 l 1
 332 122 l 1
544 122 m 1
 546 120 l 1
 544 122 l 1
284 120 m 1
 286 118 l 1
 284 120 l 1
642 120 m 1
 644 118 l 1
 642 120 l 1
326 118 m 1
 328 116 l 1
 326 118 l 1
634 118 m 1
 636 116 l 1
 634 118 l 1
298 116 m 1
 300 114 l 1
 298 116 l 1
322 116 m 1
 324 114 l 1
 322 116 l 1
626 116 m 1
 628 114 l 1
 626 116 l 1
318 114 m 1
 320 112 l 1
 318 114 l 1
606 114 m 1
 608 112 l 1
 606 114 l 1
312 112 m 1
 314 110 l 1
 312 112 l 1
354 112 m 1
 356 110 l 1
 354 112 l 1
538 112 m 1
 540 110 l 1
 538 112 l 1
578 112 m 1
 580 110 l 1
 578 112 l 1
518 110 m 1
 520 108 l 1
 518 110 l 1
620 110 m 1
 622 108 l 1
 620 110 l 1
532 108 m 1
 534 106 l 1
 532 108 l 1
598 108 m 1
 600 106 l 1
 598 108 l 1
594 106 m 1
 596 104 l 1
 594 106 l 1
656 106 m 1
 658 104 l 1
 656 106 l 1
282 104 m 1
 284 102 l 1
 282 104 l 1
294 102 m 1
 296 100 l 1
 294 102 l 1
348 102 m 1
 350 100 l 1
 348 102 l 1
572 102 m 1
 574 100 l 1
 572 102 l 1
512 100 m 1
 514 98 l 1
 512 100 l 1
566 98 m 1
 568 96 l 1
 566 98 l 1
308 96 m 1
 310 94 l 1
 308 96 l 1
560 96 m 1
 562 94 l 1
 560 96 l 1
556 94 m 1
 558 92 l 1
 556 94 l 1
590 94 m 1
 592 92 l 1
 590 94 l 1
646 94 m 1
 648 92 l 1
 646 94 l 1
484 92 m 1
 486 90 l 1
 484 92 l 1
506 92 m 1
 508 90 l 1
 506 92 l 1
530 92 m 1
 532 90 l 1
 530 92 l 1
616 92 m 1
 618 90 l 1
 616 92 l 1
640 92 m 1
 642 90 l 1
 640 92 l 1
344 90 m 1
 346 88 l 1
 344 90 l 1
500 90 m 1
 502 88 l 1
 500 90 l 1
550 90 m 1
 552 88 l 1
 550 90 l 1
630 90 m 1
 632 88 l 1
 630 90 l 1
340 88 m 1
 342 86 l 1
 340 88 l 1
284 86 m 1
 286 84 l 1
 284 86 l 1
326 86 m 1
 328 84 l 1
 326 86 l 1
298 84 m 1
 300 82 l 1
 298 84 l 1
322 84 m 1
 324 82 l 1
 322 84 l 1
362 82 m 1
 364 80 l 1
 362 82 l 1
478 82 m 1
 480 80 l 1
 478 82 l 1
526 82 m 1
 528 80 l 1
 526 82 l 1
544 82 m 1
 546 80 l 1
 544 82 l 1
608 82 m 1
 610 80 l 1
 608 82 l 1
662 82 m 1
 664 80 l 1
 662 82 l 1
588 80 m 1
 590 78 l 1
 588 80 l 1
314 78 m 1
 316 76 l 1
 314 78 l 1
496 76 m 1
 498 74 l 1
 496 76 l 1
472 74 m 1
 474 72 l 1
 472 74 l 1
624 74 m 1
 626 72 l 1
 624 74 l 1
468 72 m 1
 470 70 l 1
 468 72 l 1
602 72 m 1
 604 70 l 1
 602 72 l 1
464 70 m 1
 466 68 l 1
 464 70 l 1
518 70 m 1
 520 68 l 1
 518 70 l 1
582 70 m 1
 584 68 l 1
 582 70 l 1
636 70 m 1
 638 68 l 1
 636 70 l 1
654 70 m 1
 656 68 l 1
 654 70 l 1
286 68 m 1
 288 66 l 1
 286 68 l 1
296 68 m 1
 298 66 l 1
 296 68 l 1
308 68 m 1
 310 66 l 1
 308 68 l 1
356 68 m 1
 358 66 l 1
 356 68 l 1
458 68 m 1
 460 66 l 1
 458 68 l 1
648 68 m 1
 650 66 l 1
 648 68 l 1
342 66 m 1
 344 64 l 1
 342 66 l 1
352 66 m 1
 354 64 l 1
 352 66 l 1
452 66 m 1
 454 64 l 1
 452 66 l 1
512 66 m 1
 514 64 l 1
 512 66 l 1
538 66 m 1
 540 64 l 1
 538 66 l 1
372 64 m 1
 374 62 l 1
 372 64 l 1
448 64 m 1
 450 62 l 1
 448 64 l 1
492 64 m 1
 494 62 l 1
 492 64 l 1
534 64 m 1
 536 62 l 1
 534 64 l 1
554 64 m 1
 556 62 l 1
 554 64 l 1
566 64 m 1
 568 62 l 1
 566 64 l 1
336 62 m 1
 338 60 l 1
 336 62 l 1
618 62 m 1
 620 60 l 1
 618 62 l 1
332 60 m 1
 334 58 l 1
 332 60 l 1
384 60 m 1
 386 58 l 1
 384 60 l 1
442 60 m 1
 444 58 l 1
 442 60 l 1
326 58 m 1
 328 56 l 1
 326 58 l 1
398 56 m 1
 400 54 l 1
 398 56 l 1
436 56 m 1
 438 54 l 1
 436 56 l 1
598 56 m 1
 600 54 l 1
 598 56 l 1
670 56 m 1
 672 54 l 1
 670 56 l 1
432 54 m 1
 434 52 l 1
 432 54 l 1
506 54 m 1
 508 52 l 1
 506 54 l 1
610 54 m 1
 612 52 l 1
 610 54 l 1
634 54 m 1
 636 52 l 1
 634 54 l 1
416 52 m 1
 418 50 l 1
 416 52 l 1
428 52 m 1
 430 50 l 1
 428 52 l 1
318 50 m 1
 320 48 l 1
 318 50 l 1
412 50 m 1
 414 48 l 1
 412 50 l 1
294 48 m 1
 296 46 l 1
 294 48 l 1
306 48 m 1
 308 46 l 1
 306 48 l 1
488 48 m 1
 490 46 l 1
 488 48 l 1
530 48 m 1
 532 46 l 1
 530 48 l 1
648 48 m 1
 650 46 l 1
 648 48 l 1
370 46 m 1
 372 44 l 1
 370 46 l 1
500 46 m 1
 502 44 l 1
 500 46 l 1
526 46 m 1
 528 44 l 1
 526 46 l 1
550 46 m 1
 552 44 l 1
 550 46 l 1
662 46 m 1
 664 44 l 1
 662 46 l 1
382 44 m 1
 384 42 l 1
 382 44 l 1
628 44 m 1
 630 42 l 1
 628 44 l 1
364 42 m 1
 366 40 l 1
 364 42 l 1
684 42 m 1
 686 40 l 1
 684 42 l 1
360 40 m 1
 362 38 l 1
 360 40 l 1
396 40 m 1
 398 38 l 1
 396 40 l 1
520 40 m 1
 522 38 l 1
 520 40 l 1
478 38 m 1
 480 36 l 1
 478 38 l 1
678 38 m 1
 680 36 l 1
 678 38 l 1
354 36 m 1
 356 34 l 1
 354 36 l 1
474 36 m 1
 476 34 l 1
 474 36 l 1
606 36 m 1
 608 34 l 1
 606 36 l 1
620 36 m 1
 622 34 l 1
 620 36 l 1
350 34 m 1
 352 32 l 1
 350 34 l 1
410 34 m 1
 412 32 l 1
 410 34 l 1
466 34 m 1
 468 32 l 1
 466 34 l 1
326 32 m 1
 328 30 l 1
 326 32 l 1
336 32 m 1
 338 30 l 1
 336 32 l 1
462 32 m 1
 464 30 l 1
 462 32 l 1
644 32 m 1
 646 30 l 1
 644 32 l 1
312 30 m 1
 314 28 l 1
 312 30 l 1
322 30 m 1
 324 28 l 1
 322 30 l 1
458 30 m 1
 460 28 l 1
 458 30 l 1
494 30 m 1
 496 28 l 1
 494 30 l 1
656 30 m 1
 658 28 l 1
 656 30 l 1
306 28 m 1
 308 26 l 1
 306 28 l 1
430 28 m 1
 432 26 l 1
 430 28 l 1
454 28 m 1
 456 26 l 1
 454 28 l 1
512 28 m 1
 514 26 l 1
 512 28 l 1
668 28 m 1
 670 26 l 1
 668 28 l 1
426 26 m 1
 428 24 l 1
 426 26 l 1
450 26 m 1
 452 24 l 1
 450 26 l 1
508 26 m 1
 510 24 l 1
 508 26 l 1
388 24 m 1
 390 22 l 1
 388 24 l 1
444 24 m 1
 446 22 l 1
 444 24 l 1
636 24 m 1
 638 22 l 1
 636 24 l 1
702 24 m 1
 704 22 l 1
 702 24 l 1
400 22 m 1
 402 20 l 1
 400 22 l 1
698 22 m 1
 700 20 l 1
 698 22 l 1
616 20 m 1
 618 18 l 1
 616 20 l 1
628 18 m 1
 630 16 l 1
 628 18 l 1
690 18 m 1
 692 16 l 1
 690 18 l 1
382 16 m 1
 384 14 l 1
 382 16 l 1
414 16 m 1
 416 14 l 1
 414 16 l 1
682 16 m 1
 684 14 l 1
 682 16 l 1
348 14 m 1
 350 12 l 1
 348 14 l 1
376 12 m 1
 378 10 l 1
 376 12 l 1
492 12 m 1
 494 10 l 1
 492 12 l 1
502 12 m 1
 504 10 l 1
 502 12 l 1
654 12 m 1
 656 10 l 1
 654 12 l 1
372 10 m 1
 374 8 l 1
 372 10 l 1
666 10 m 1
 668 8 l 1
 666 10 l 1
362 8 m 1
 364 6 l 1
 362 8 l 1
340 6 m 1
 342 4 l 1
 340 6 l 1
428 6 m 1
 430 4 l 1
 428 6 l 1
486 6 m 1
 488 4 l 1
 486 6 l 1
648 6 m 1
 650 4 l 1
 648 6 l 1
336 4 m 1
 338 2 l 1
 336 4 l 1
406 4 m 1
 408 2 l 1
 406 4 l 1
442 4 m 1
 444 2 l 1
 442 4 l 1
400 2 m 1
 402 0 l 1
 400 2 l 1
624 2 m 1
 626 0 l 1
 624 2 l 1
680 2 m 1
 682 0 l 1
 680 2 l 1
642 0 m 1
 644 -2 l 1
 642 0 l 1
422 -2 m 1
 424 -4 l 1
 422 -2 l 1
456 -4 m 1
 458 -6 l 1
 456 -4 l 1
710 -4 m 1
 712 -6 l 1
 710 -4 l 1
358 -6 m 1
 360 -8 l 1
 358 -6 l 1
700 -6 m 1
 702 -8 l 1
 700 -6 l 1
696 -8 m 1
 698 -10 l 1
 696 -8 l 1
668 -10 m 1
 670 -12 l 1
 668 -10 l 1
394 -12 m 1
 396 -14 l 1
 394 -12 l 1
388 -14 m 1
 390 -16 l 1
 388 -14 l 1
640 -14 m 1
 642 -16 l 1
 640 -14 l 1
682 -14 m 1
 684 -16 l 1
 682 -14 l 1
662 -16 m 1
 664 -18 l 1
 662 -16 l 1
658 -18 m 1
 660 -20 l 1
 658 -18 l 1
694 -28 m 1
 696 -30 l 1
 694 -28 l 1
690 -30 m 1
 692 -32 l 1
 690 -30 l 1
682 -32 m 1
 684 -34 l 1
 682 -32 l 1
EndSplineSet
EndChar

StartChar: t
Encoding: 116 116 60
Width: 1000
VWidth: 0
Flags: HW
LayerCount: 2
Back
Fore
SplineSet
468 408 m 1
 472 443 469 479 468 514 c 0
 468 531 464 548 473 564 c 0
 491 595 537 593 553 562 c 0
 561 546 559 520 560 502 c 0
 561 471 563 441 564 410 c 1
 585 411 612 418 632 407 c 0
 660 392 664 351 640 331 c 0
 622 316 590 312 568 312 c 1
 568 223 570 133 570 44 c 0
 570 13 576 -32 539 -44 c 0
 488 -61 478 -8 475 28 c 0
 466 122 470 218 470 312 c 1
 452 312 435 314 417 314 c 0
 397 314 379 309 362 322 c 0
 338 340 338 379 364 396 c 0
 388 412 441 413 468 408 c 1
526 554 m 1
 528 552 l 1
 526 554 l 1
512 552 m 1
 514 550 l 1
 512 552 l 1
522 552 m 1
 524 550 l 1
 522 552 l 1
506 550 m 1
 508 548 l 1
 506 550 l 1
540 550 m 1
 542 548 l 1
 540 550 l 1
500 546 m 1
 502 544 l 1
 500 546 l 1
492 536 m 1
 494 534 l 1
 492 536 l 1
548 532 m 1
 550 530 l 1
 548 532 l 1
540 530 m 1
 542 528 l 1
 540 530 l 1
486 528 m 1
 488 526 l 1
 486 528 l 1
536 528 m 1
 538 526 l 1
 536 528 l 1
530 526 m 1
 532 524 l 1
 530 526 l 1
512 524 m 1
 514 522 l 1
 512 524 l 1
524 524 m 1
 526 522 l 1
 524 524 l 1
506 522 m 1
 508 520 l 1
 506 522 l 1
486 512 m 1
 488 510 l 1
 486 512 l 1
500 512 m 1
 502 510 l 1
 500 512 l 1
524 500 m 1
 526 498 l 1
 524 500 l 1
520 498 m 1
 522 496 l 1
 520 498 l 1
536 498 m 1
 538 496 l 1
 536 498 l 1
550 498 m 1
 552 496 l 1
 550 498 l 1
498 496 m 1
 500 494 l 1
 498 496 l 1
516 496 m 1
 518 494 l 1
 516 496 l 1
484 494 m 1
 486 492 l 1
 484 494 l 1
494 494 m 1
 496 492 l 1
 494 494 l 1
512 494 m 1
 514 492 l 1
 512 494 l 1
548 480 m 1
 550 478 l 1
 548 480 l 1
488 474 m 1
 490 472 l 1
 488 474 l 1
542 474 m 1
 544 472 l 1
 542 474 l 1
510 472 m 1
 512 470 l 1
 510 472 l 1
502 470 m 1
 504 468 l 1
 502 470 l 1
536 470 m 1
 538 468 l 1
 536 470 l 1
528 468 m 1
 530 466 l 1
 528 468 l 1
524 466 m 1
 526 464 l 1
 524 466 l 1
488 456 m 1
 490 454 l 1
 488 456 l 1
498 456 m 1
 500 454 l 1
 498 456 l 1
520 450 m 1
 522 448 l 1
 520 450 l 1
516 448 m 1
 518 446 l 1
 516 448 l 1
556 448 m 1
 558 446 l 1
 556 448 l 1
550 444 m 1
 552 442 l 1
 550 444 l 1
544 442 m 1
 546 440 l 1
 544 442 l 1
538 440 m 1
 540 438 l 1
 538 440 l 1
488 438 m 1
 490 436 l 1
 488 438 l 1
508 438 m 1
 510 436 l 1
 508 438 l 1
500 436 m 1
 502 434 l 1
 500 436 l 1
532 428 m 1
 534 426 l 1
 532 428 l 1
528 426 m 1
 530 424 l 1
 528 426 l 1
524 424 m 1
 526 422 l 1
 524 424 l 1
488 422 m 1
 490 420 l 1
 488 422 l 1
502 416 m 1
 504 414 l 1
 502 416 l 1
516 416 m 1
 518 414 l 1
 516 416 l 1
552 414 m 1
 554 412 l 1
 552 414 l 1
558 288 m 1
 560 286 l 1
 558 288 l 1
548 286 m 1
 550 284 l 1
 548 286 l 1
544 284 m 1
 546 282 l 1
 544 284 l 1
534 282 m 1
 536 280 l 1
 534 282 l 1
504 280 m 1
 506 278 l 1
 504 280 l 1
516 280 m 1
 518 278 l 1
 516 280 l 1
528 280 m 1
 530 278 l 1
 528 280 l 1
498 278 m 1
 500 276 l 1
 498 278 l 1
494 276 m 1
 496 274 l 1
 494 276 l 1
524 260 m 1
 526 258 l 1
 524 260 l 1
558 260 m 1
 560 258 l 1
 558 260 l 1
492 258 m 1
 494 256 l 1
 492 258 l 1
546 258 m 1
 548 256 l 1
 546 258 l 1
538 256 m 1
 540 254 l 1
 538 256 l 1
516 254 m 1
 518 252 l 1
 516 254 l 1
512 252 m 1
 514 250 l 1
 512 252 l 1
508 250 m 1
 510 248 l 1
 508 250 l 1
494 240 m 1
 496 238 l 1
 494 240 l 1
538 240 m 1
 540 238 l 1
 538 240 l 1
558 238 m 1
 560 236 l 1
 558 238 l 1
508 234 m 1
 510 232 l 1
 508 234 l 1
532 230 m 1
 534 228 l 1
 532 230 l 1
552 230 m 1
 554 228 l 1
 552 230 l 1
492 224 m 1
 494 222 l 1
 492 224 l 1
526 224 m 1
 528 222 l 1
 526 224 l 1
504 220 m 1
 506 218 l 1
 504 220 l 1
520 216 m 1
 522 214 l 1
 520 216 l 1
546 216 m 1
 548 214 l 1
 546 216 l 1
560 210 m 1
 562 208 l 1
 560 210 l 1
494 206 m 1
 496 204 l 1
 494 206 l 1
542 204 m 1
 544 202 l 1
 542 204 l 1
510 202 m 1
 512 200 l 1
 510 202 l 1
538 202 m 1
 540 200 l 1
 538 202 l 1
522 198 m 1
 524 196 l 1
 522 198 l 1
532 198 m 1
 534 196 l 1
 532 198 l 1
558 192 m 1
 560 190 l 1
 558 192 l 1
492 190 m 1
 494 188 l 1
 492 190 l 1
504 190 m 1
 506 188 l 1
 504 190 l 1
518 180 m 1
 520 178 l 1
 518 180 l 1
530 176 m 1
 532 174 l 1
 530 176 l 1
554 176 m 1
 556 174 l 1
 554 176 l 1
544 174 m 1
 546 172 l 1
 544 174 l 1
494 172 m 1
 496 170 l 1
 494 172 l 1
508 172 m 1
 510 170 l 1
 508 172 l 1
524 160 m 1
 526 158 l 1
 524 160 l 1
538 158 m 1
 540 156 l 1
 538 158 l 1
492 156 m 1
 494 154 l 1
 492 156 l 1
504 156 m 1
 506 154 l 1
 504 156 l 1
518 156 m 1
 520 154 l 1
 518 156 l 1
560 156 m 1
 562 154 l 1
 560 156 l 1
552 154 m 1
 554 152 l 1
 552 154 l 1
490 140 m 1
 492 138 l 1
 490 140 l 1
540 140 m 1
 542 138 l 1
 540 140 l 1
504 138 m 1
 506 136 l 1
 504 138 l 1
514 138 m 1
 516 136 l 1
 514 138 l 1
536 138 m 1
 538 136 l 1
 536 138 l 1
552 138 m 1
 554 136 l 1
 552 138 l 1
530 136 m 1
 532 134 l 1
 530 136 l 1
484 134 m 1
 486 132 l 1
 484 134 l 1
478 132 m 1
 480 130 l 1
 478 132 l 1
528 122 m 1
 530 120 l 1
 528 122 l 1
506 120 m 1
 508 118 l 1
 506 120 l 1
524 120 m 1
 526 118 l 1
 524 120 l 1
520 118 m 1
 522 116 l 1
 520 118 l 1
558 116 m 1
 560 114 l 1
 558 116 l 1
554 114 m 1
 556 112 l 1
 554 114 l 1
500 112 m 1
 502 110 l 1
 500 112 l 1
548 110 m 1
 550 108 l 1
 548 110 l 1
492 104 m 1
 494 102 l 1
 492 104 l 1
518 100 m 1
 520 98 l 1
 518 100 l 1
542 96 m 1
 544 94 l 1
 542 96 l 1
512 94 m 1
 514 92 l 1
 512 94 l 1
538 94 m 1
 540 92 l 1
 538 94 l 1
506 90 m 1
 508 88 l 1
 506 90 l 1
492 86 m 1
 494 84 l 1
 492 86 l 1
532 86 m 1
 534 84 l 1
 532 86 l 1
558 86 m 1
 560 84 l 1
 558 86 l 1
502 72 m 1
 504 70 l 1
 502 72 l 1
528 72 m 1
 530 70 l 1
 528 72 l 1
490 70 m 1
 492 68 l 1
 490 70 l 1
516 70 m 1
 518 68 l 1
 516 70 l 1
552 70 m 1
 554 68 l 1
 552 70 l 1
548 68 m 1
 550 66 l 1
 548 68 l 1
542 60 m 1
 544 58 l 1
 542 60 l 1
506 54 m 1
 508 52 l 1
 506 54 l 1
534 54 m 1
 536 52 l 1
 534 54 l 1
494 52 m 1
 496 50 l 1
 494 52 l 1
518 52 m 1
 520 50 l 1
 518 52 l 1
528 52 m 1
 530 50 l 1
 528 52 l 1
566 48 m 1
 568 46 l 1
 566 48 l 1
558 42 m 1
 560 40 l 1
 558 42 l 1
494 36 m 1
 496 34 l 1
 494 36 l 1
508 36 m 1
 510 34 l 1
 508 36 l 1
552 34 m 1
 554 32 l 1
 552 34 l 1
522 32 m 1
 524 30 l 1
 522 32 l 1
546 30 m 1
 548 28 l 1
 546 30 l 1
536 28 m 1
 538 26 l 1
 536 28 l 1
502 20 m 1
 504 18 l 1
 502 20 l 1
494 18 m 1
 496 16 l 1
 494 18 l 1
514 18 m 1
 516 16 l 1
 514 18 l 1
528 14 m 1
 530 12 l 1
 528 14 l 1
542 8 m 1
 544 6 l 1
 542 8 l 1
556 8 m 1
 558 6 l 1
 556 8 l 1
496 -2 m 1
 498 -4 l 1
 496 -2 l 1
512 -2 m 1
 514 -4 l 1
 512 -2 l 1
522 -2 m 1
 524 -4 l 1
 522 -2 l 1
536 -2 m 1
 538 -4 l 1
 536 -2 l 1
508 -4 m 1
 510 -6 l 1
 508 -4 l 1
554 -8 m 1
 556 -10 l 1
 554 -8 l 1
548 -18 m 1
 550 -20 l 1
 548 -18 l 1
500 -20 m 1
 502 -22 l 1
 500 -20 l 1
536 -20 m 1
 538 -22 l 1
 536 -20 l 1
532 -22 m 1
 534 -24 l 1
 532 -22 l 1
526 -26 m 1
 528 -28 l 1
 526 -26 l 1
514 -28 m 1
 516 -30 l 1
 514 -28 l 1
506 -38 m 1
 508 -40 l 1
 506 -38 l 1
EndSplineSet
EndChar

StartChar: y
Encoding: 121 121 61
Width: 1000
VWidth: 0
Flags: HW
LayerCount: 2
Back
Fore
SplineSet
576 68 m 1
 569 53 551 42 538 33 c 0
 489 0 424 -7 378 36 c 0
 314 96 306 204 314 286 c 0
 316 310 313 343 328 364 c 0
 351 396 401 383 409 346 c 0
 413 326 406 299 404 278 c 0
 401 239 403 196 416 158 c 0
 422 140 431 110 451 104 c 0
 481 95 511 142 519 164 c 0
 535 207 544 257 550 302 c 0
 552 317 551 333 554 348 c 0
 559 369 574 387 596 390 c 0
 671 399 652 298 656 252 c 0
 666 154 692 53 669 -46 c 0
 659 -88 645 -132 606 -156 c 0
 547 -193 467 -178 404 -159 c 0
 375 -150 340 -140 338 -104 c 0
 338 -98 339 -92 341 -86 c 0
 358 -41 406 -62 438 -71 c 0
 468 -79 532 -97 557 -71 c 0
 575 -52 577 -13 579 11 c 0
 581 29 582 50 576 68 c 1
EndSplineSet
EndChar

StartChar: F
Encoding: 70 70 62
Width: 1000
VWidth: 0
Flags: HW
LayerCount: 2
Back
Fore
SplineSet
438 292 m 1
 435 249 440 205 437 162 c 0
 435 131 434 101 434 70 c 0
 434 52 436 32 429 16 c 0
 415 -14 372 -18 352 8 c 0
 341 23 341 43 340 60 c 0
 338 96 339 131 339 167 c 0
 340 285 331 402 328 520 c 0
 327 549 326 579 324 608 c 0
 323 624 317 638 323 654 c 0
 337 691 385 683 416 687 c 0
 499 698 579 693 662 679 c 0
 691 674 731 675 743 642 c 0
 754 611 731 582 700 580 c 0
 649 577 597 590 546 594 c 0
 502 597 459 594 416 594 c 1
 428 552 423 499 426 456 c 0
 427 434 435 407 430 386 c 1
 432 384 l 1
 472 395 519 384 560 384 c 0
 581 384 605 391 626 384 c 0
 645 378 657 359 657 340 c 0
 658 310 633 297 608 291 c 0
 569 282 532 285 493 288 c 0
 475 289 455 288 438 292 c 1
EndSplineSet
EndChar

StartChar: U
Encoding: 85 85 63
Width: 1000
VWidth: 0
Flags: HW
LayerCount: 2
Back
Fore
SplineSet
693 717 m 0
 722 722 742 700 748 674 c 0
 763 615 775 553 777 492 c 0
 778 461 779 431 778 400 c 0
 772 235 725 9 531 -25 c 0
 443 -40 357 14 312 86 c 0
 242 197 225 333 228 462 c 0
 229 513 237 564 246 614 c 0
 250 636 252 661 274 674 c 0
 307 693 346 664 342 628 c 0
 338 582 325 537 322 490 c 0
 315 390 328 281 369 188 c 0
 395 131 450 54 524 77 c 0
 577 93 615 139 638 188 c 0
 658 231 667 281 673 327 c 0
 681 393 687 459 679 525 c 0
 675 556 672 587 666 618 c 0
 663 637 655 657 656 676 c 0
 658 697 673 713 693 717 c 0
EndSplineSet
EndChar

StartChar: four
Encoding: 52 52 64
Width: 1000
VWidth: 0
Flags: HW
LayerCount: 2
Back
Fore
SplineSet
594 278 m 1
 565 277 535 270 506 265 c 0
 472 259 437 256 404 247 c 0
 369 237 327 220 296 249 c 0
 266 277 285 325 298 356 c 0
 329 431 374 501 410 574 c 0
 425 604 437 652 462 674 c 0
 489 697 533 679 536 644 c 0
 539 616 517 585 506 560 c 0
 494 532 481 505 468 478 c 0
 447 435 428 389 404 348 c 1
 448 359 496 364 541 368 c 0
 552 369 584 366 590 375 c 0
 597 386 591 419 591 432 c 0
 591 485 592 537 592 590 c 0
 592 622 589 664 634 665 c 0
 698 667 684 571 684 530 c 0
 684 418 690 304 696 192 c 0
 698 155 697 119 698 82 c 0
 699 66 706 52 702 36 c 0
 692 -2 639 -16 616 18 c 0
 594 50 601 114 599 151 c 0
 597 193 594 236 594 278 c 1
EndSplineSet
EndChar

StartChar: endash
Encoding: 8211 8211 65
Width: 1000
VWidth: 0
Flags: HW
LayerCount: 2
Back
Fore
SplineSet
373 397 m 0
 389 401 406 396 422 396 c 0
 463 395 503 392 544 390 c 0
 578 388 617 393 650 384 c 0
 693 372 695 311 654 295 c 0
 637 288 617 291 600 290 c 0
 551 288 504 296 455 300 c 0
 427 302 392 300 366 311 c 0
 326 328 331 387 373 397 c 0
EndSplineSet
EndChar

StartChar: slash
Encoding: 47 47 66
Width: 1000
VWidth: 0
Flags: HW
LayerCount: 2
Back
Fore
SplineSet
651 687 m 0
 678 692 706 669 705 641 c 0
 704 609 680 574 666 546 c 0
 589 393 505 244 422 94 c 0
 404 62 389 29 375 -4 c 0
 366 -25 353 -45 328 -47 c 0
 302 -49 278 -26 279 0 c 0
 281 35 307 81 322 112 c 0
 393 261 477 405 559 548 c 0
 576 578 594 608 608 640 c 0
 617 661 626 683 651 687 c 0
EndSplineSet
EndChar

StartChar: asterisk
Encoding: 42 42 67
Width: 1000
VWidth: 0
Flags: HW
LayerCount: 2
Back
Fore
SplineSet
470 630 m 1
 465 648 467 680 477 696 c 0
 492 719 527 724 547 704 c 0
 569 682 562 633 564 604 c 1
 583 617 605 631 628 631 c 0
 658 632 680 602 672 574 c 1
 687 570 701 566 710 552 c 0
 733 518 706 480 668 480 c 1
 690 458 714 428 716 396 c 0
 718 365 692 337 660 346 c 0
 636 352 631 373 617 390 c 0
 604 406 586 419 570 432 c 1
 570 408 571 375 552 358 c 0
 526 334 481 349 476 384 c 1
 452 365 423 331 391 327 c 0
 358 323 334 355 343 386 c 0
 351 413 393 452 418 464 c 1
 418 466 l 1
 389 464 351 447 324 463 c 0
 297 478 292 517 316 537 c 0
 332 551 381 560 402 558 c 1
 390 569 374 570 366 586 c 0
 351 615 370 653 404 654 c 0
 426 655 451 640 470 630 c 1
EndSplineSet
EndChar

StartChar: braceleft
Encoding: 123 123 68
Width: 1000
VWidth: 0
Flags: HW
LayerCount: 2
Back
Fore
SplineSet
472 428 m 1
 484 512 415 602 472 682 c 0
 501 723 556 751 606 741 c 0
 638 735 675 706 671 669 c 0
 668 639 637 619 608 631 c 0
 599 635 592 648 582 649 c 0
 568 650 551 633 546 622 c 0
 537 600 547 566 552 544 c 0
 562 498 571 452 571 404 c 0
 571 368 567 331 552 298 c 0
 546 284 532 272 527 258 c 0
 522 244 527 224 526 210 c 0
 525 176 517 140 523 106 c 0
 528 73 586 48 616 61 c 0
 633 68 642 87 660 91 c 0
 687 98 717 79 718 50 c 0
 719 24 699 5 680 -9 c 0
 622 -52 543 -37 486 0 c 0
 408 52 428 140 428 220 c 1
 395 219 361 220 330 231 c 0
 255 258 206 364 272 428 c 0
 322 476 420 466 472 428 c 1
472 428 m 1
 474 426 l 1
 472 428 l 1
422 318 m 1
 421 327 421 339 415 346 c 0
 405 359 358 368 345 355 c 0
 326 336 375 322 386 320 c 0
 398 318 410 320 422 318 c 1
EndSplineSet
EndChar

StartChar: g
Encoding: 103 103 69
Width: 1000
VWidth: 0
Flags: HW
LayerCount: 2
Back
Fore
SplineSet
458 -6 m 1
 442 -9 423 1 410 9 c 0
 367 37 351 88 348 137 c 0
 341 248 419 392 539 405 c 0
 578 409 619 393 643 362 c 0
 652 350 654 336 662 324 c 0
 669 313 683 309 690 296 c 0
 710 257 682 212 682 172 c 0
 682 94 700 19 692 -60 c 0
 687 -107 670 -152 626 -175 c 0
 555 -211 448 -192 384 -149 c 0
 356 -130 315 -98 331 -60 c 0
 340 -37 365 -27 388 -35 c 0
 408 -42 421 -61 438 -72 c 0
 463 -88 492 -93 521 -97 c 0
 551 -101 587 -99 594 -64 c 0
 598 -46 597 -27 597 -8 c 0
 597 11 599 34 592 52 c 1
 579 22 524 0 494 -7 c 0
 486 -9 462 -14 458 -6 c 1
558 378 m 1
 560 376 l 1
 558 378 l 1
534 376 m 1
 536 374 l 1
 534 376 l 1
544 376 m 1
 546 374 l 1
 544 376 l 1
554 376 m 1
 556 374 l 1
 554 376 l 1
530 374 m 1
 532 372 l 1
 530 374 l 1
572 374 m 1
 574 372 l 1
 572 374 l 1
584 374 m 1
 586 372 l 1
 584 374 l 1
598 370 m 1
 600 368 l 1
 598 370 l 1
496 368 m 1
 498 366 l 1
 496 368 l 1
522 368 m 1
 524 366 l 1
 522 368 l 1
508 366 m 1
 510 364 l 1
 508 366 l 1
614 362 m 1
 616 360 l 1
 614 362 l 1
492 356 m 1
 494 354 l 1
 492 356 l 1
578 356 m 1
 580 354 l 1
 578 356 l 1
590 356 m 1
 592 354 l 1
 590 356 l 1
488 354 m 1
 490 352 l 1
 488 354 l 1
570 354 m 1
 572 352 l 1
 570 354 l 1
608 354 m 1
 610 352 l 1
 608 354 l 1
484 352 m 1
 486 350 l 1
 484 352 l 1
552 352 m 1
 554 350 l 1
 552 352 l 1
564 352 m 1
 566 350 l 1
 564 352 l 1
604 352 m 1
 606 350 l 1
 604 352 l 1
628 352 m 1
 630 350 l 1
 628 352 l 1
474 350 m 1
 476 348 l 1
 474 350 l 1
518 350 m 1
 520 348 l 1
 518 350 l 1
530 350 m 1
 532 348 l 1
 530 350 l 1
544 350 m 1
 546 348 l 1
 544 350 l 1
468 348 m 1
 470 346 l 1
 468 348 l 1
510 348 m 1
 512 346 l 1
 510 348 l 1
438 344 m 1
 440 342 l 1
 438 344 l 1
460 340 m 1
 462 338 l 1
 460 340 l 1
640 338 m 1
 642 336 l 1
 640 338 l 1
594 336 m 1
 596 334 l 1
 594 336 l 1
626 336 m 1
 628 334 l 1
 626 336 l 1
454 334 m 1
 456 332 l 1
 454 334 l 1
508 332 m 1
 510 330 l 1
 508 332 l 1
538 332 m 1
 540 330 l 1
 538 332 l 1
588 332 m 1
 590 330 l 1
 588 332 l 1
608 332 m 1
 610 330 l 1
 608 332 l 1
532 330 m 1
 534 328 l 1
 532 330 l 1
550 330 m 1
 552 328 l 1
 550 330 l 1
562 330 m 1
 564 328 l 1
 562 330 l 1
584 330 m 1
 586 328 l 1
 584 330 l 1
440 328 m 1
 442 326 l 1
 440 328 l 1
526 328 m 1
 528 326 l 1
 526 328 l 1
574 328 m 1
 576 326 l 1
 574 328 l 1
490 326 m 1
 492 324 l 1
 490 326 l 1
502 326 m 1
 504 324 l 1
 502 326 l 1
622 326 m 1
 624 324 l 1
 622 326 l 1
478 324 m 1
 480 322 l 1
 478 324 l 1
646 322 m 1
 648 320 l 1
 646 322 l 1
638 320 m 1
 640 318 l 1
 638 320 l 1
472 318 m 1
 474 316 l 1
 472 318 l 1
454 316 m 1
 456 314 l 1
 454 316 l 1
468 316 m 1
 470 314 l 1
 468 316 l 1
522 316 m 1
 524 314 l 1
 522 316 l 1
438 314 m 1
 440 312 l 1
 438 314 l 1
545 313 m 0
 485 303 449 218 446 164 c 0
 445 144 443 87 474 90 c 0
 491 91 506 106 518 116 c 0
 552 145 583 191 585 237 c 0
 585 246 578 255 576 264 c 0
 571 285 579 318 545 313 c 0
612 314 m 1
 614 312 l 1
 612 314 l 1
608 312 m 1
 610 310 l 1
 608 312 l 1
662 310 m 1
 664 308 l 1
 662 310 l 1
516 308 m 1
 518 306 l 1
 516 308 l 1
580 308 m 1
 582 306 l 1
 580 308 l 1
628 308 m 1
 630 306 l 1
 628 308 l 1
494 306 m 1
 496 304 l 1
 494 306 l 1
504 306 m 1
 506 304 l 1
 504 306 l 1
600 306 m 1
 602 304 l 1
 600 306 l 1
432 304 m 1
 434 302 l 1
 432 304 l 1
594 304 m 1
 596 302 l 1
 594 304 l 1
656 302 m 1
 658 300 l 1
 656 302 l 1
452 300 m 1
 454 298 l 1
 452 300 l 1
464 300 m 1
 466 298 l 1
 464 300 l 1
642 300 m 1
 644 298 l 1
 642 300 l 1
426 296 m 1
 428 294 l 1
 426 296 l 1
488 296 m 1
 490 294 l 1
 488 296 l 1
484 294 m 1
 486 292 l 1
 484 294 l 1
420 292 m 1
 422 290 l 1
 420 292 l 1
480 292 m 1
 482 290 l 1
 480 292 l 1
446 290 m 1
 448 288 l 1
 446 290 l 1
624 290 m 1
 626 288 l 1
 624 290 l 1
634 290 m 1
 636 288 l 1
 634 290 l 1
414 288 m 1
 416 286 l 1
 414 288 l 1
674 288 m 1
 676 286 l 1
 674 288 l 1
592 286 m 1
 594 284 l 1
 592 286 l 1
670 286 m 1
 672 284 l 1
 670 286 l 1
616 284 m 1
 618 282 l 1
 616 284 l 1
652 284 m 1
 654 282 l 1
 652 284 l 1
664 284 m 1
 666 282 l 1
 664 284 l 1
466 282 m 1
 468 280 l 1
 466 282 l 1
612 282 m 1
 614 280 l 1
 612 282 l 1
462 280 m 1
 464 278 l 1
 462 280 l 1
608 280 m 1
 610 278 l 1
 608 280 l 1
410 278 m 1
 412 276 l 1
 410 278 l 1
442 276 m 1
 444 274 l 1
 442 276 l 1
480 274 m 1
 482 272 l 1
 480 274 l 1
646 272 m 1
 648 270 l 1
 646 272 l 1
456 270 m 1
 458 268 l 1
 456 270 l 1
596 270 m 1
 598 268 l 1
 596 270 l 1
642 270 m 1
 644 268 l 1
 642 270 l 1
592 268 m 1
 594 266 l 1
 592 268 l 1
638 268 m 1
 640 266 l 1
 638 268 l 1
690 268 m 1
 692 266 l 1
 690 268 l 1
406 266 m 1
 408 264 l 1
 406 266 l 1
434 266 m 1
 436 264 l 1
 434 266 l 1
430 264 m 1
 432 262 l 1
 430 264 l 1
662 264 m 1
 664 262 l 1
 662 264 l 1
424 260 m 1
 426 258 l 1
 424 260 l 1
632 260 m 1
 634 258 l 1
 632 260 l 1
680 260 m 1
 682 258 l 1
 680 260 l 1
612 258 m 1
 614 256 l 1
 612 258 l 1
628 258 m 1
 630 256 l 1
 628 258 l 1
676 258 m 1
 678 256 l 1
 676 258 l 1
400 256 m 1
 402 254 l 1
 400 256 l 1
450 256 m 1
 452 254 l 1
 450 256 l 1
470 254 m 1
 472 252 l 1
 470 254 l 1
466 252 m 1
 468 250 l 1
 466 252 l 1
418 248 m 1
 420 246 l 1
 418 248 l 1
604 246 m 1
 606 244 l 1
 604 246 l 1
660 246 m 1
 662 244 l 1
 660 246 l 1
670 246 m 1
 672 244 l 1
 670 246 l 1
598 244 m 1
 600 242 l 1
 598 244 l 1
624 244 m 1
 626 242 l 1
 624 244 l 1
396 240 m 1
 398 238 l 1
 396 240 l 1
412 240 m 1
 414 238 l 1
 412 240 l 1
460 240 m 1
 462 238 l 1
 460 240 l 1
652 240 m 1
 654 238 l 1
 652 240 l 1
442 238 m 1
 444 236 l 1
 442 238 l 1
452 238 m 1
 454 236 l 1
 452 238 l 1
436 236 m 1
 438 234 l 1
 436 236 l 1
646 236 m 1
 648 234 l 1
 646 236 l 1
432 234 m 1
 434 232 l 1
 432 234 l 1
620 234 m 1
 622 232 l 1
 620 234 l 1
642 234 m 1
 644 232 l 1
 642 234 l 1
686 232 m 1
 688 230 l 1
 686 232 l 1
390 228 m 1
 392 226 l 1
 390 228 l 1
408 226 m 1
 410 224 l 1
 408 226 l 1
680 226 m 1
 682 224 l 1
 680 226 l 1
636 224 m 1
 638 222 l 1
 636 224 l 1
672 224 m 1
 674 222 l 1
 672 224 l 1
424 222 m 1
 426 220 l 1
 424 222 l 1
602 222 m 1
 604 220 l 1
 602 222 l 1
614 222 m 1
 616 220 l 1
 614 222 l 1
666 216 m 1
 668 214 l 1
 666 216 l 1
384 214 m 1
 386 212 l 1
 384 214 l 1
402 214 m 1
 404 212 l 1
 402 214 l 1
630 214 m 1
 632 212 l 1
 630 214 l 1
398 212 m 1
 400 210 l 1
 398 212 l 1
418 210 m 1
 420 208 l 1
 418 210 l 1
440 210 m 1
 442 208 l 1
 440 210 l 1
660 210 m 1
 662 208 l 1
 660 210 l 1
436 208 m 1
 438 206 l 1
 436 208 l 1
654 208 m 1
 656 206 l 1
 654 208 l 1
602 206 m 1
 604 204 l 1
 602 206 l 1
650 206 m 1
 652 204 l 1
 650 206 l 1
618 204 m 1
 620 202 l 1
 618 204 l 1
378 202 m 1
 380 200 l 1
 378 202 l 1
644 200 m 1
 646 198 l 1
 644 200 l 1
640 198 m 1
 642 196 l 1
 640 198 l 1
394 196 m 1
 396 194 l 1
 394 196 l 1
430 196 m 1
 432 194 l 1
 430 196 l 1
632 196 m 1
 634 194 l 1
 632 196 l 1
414 192 m 1
 416 190 l 1
 414 192 l 1
424 192 m 1
 426 190 l 1
 424 192 l 1
614 192 m 1
 616 190 l 1
 614 192 l 1
410 190 m 1
 412 188 l 1
 410 190 l 1
600 190 m 1
 602 188 l 1
 600 190 l 1
374 186 m 1
 376 184 l 1
 374 186 l 1
386 186 m 1
 388 184 l 1
 386 186 l 1
676 184 m 1
 678 182 l 1
 676 184 l 1
630 182 m 1
 632 180 l 1
 630 182 l 1
402 178 m 1
 404 176 l 1
 402 178 l 1
668 178 m 1
 670 176 l 1
 668 178 l 1
598 176 m 1
 600 174 l 1
 598 176 l 1
624 176 m 1
 626 174 l 1
 624 176 l 1
370 174 m 1
 372 172 l 1
 370 174 l 1
612 174 m 1
 614 172 l 1
 612 174 l 1
662 174 m 1
 664 172 l 1
 662 174 l 1
650 172 m 1
 652 170 l 1
 650 172 l 1
438 170 m 1
 440 168 l 1
 438 170 l 1
646 170 m 1
 648 168 l 1
 646 170 l 1
390 168 m 1
 392 166 l 1
 390 168 l 1
432 168 m 1
 434 166 l 1
 432 168 l 1
386 166 m 1
 388 164 l 1
 386 166 l 1
418 166 m 1
 420 164 l 1
 418 166 l 1
428 166 m 1
 430 164 l 1
 428 166 l 1
592 166 m 1
 594 164 l 1
 592 166 l 1
414 164 m 1
 416 162 l 1
 414 164 l 1
588 164 m 1
 590 162 l 1
 588 164 l 1
410 162 m 1
 412 160 l 1
 410 162 l 1
406 160 m 1
 408 158 l 1
 406 160 l 1
582 160 m 1
 584 158 l 1
 582 160 l 1
370 158 m 1
 372 156 l 1
 370 158 l 1
638 158 m 1
 640 156 l 1
 638 158 l 1
610 156 m 1
 612 154 l 1
 610 156 l 1
620 156 m 1
 622 154 l 1
 620 156 l 1
632 156 m 1
 634 154 l 1
 632 156 l 1
384 152 m 1
 386 150 l 1
 384 152 l 1
670 152 m 1
 672 150 l 1
 670 152 l 1
664 150 m 1
 666 148 l 1
 664 150 l 1
362 148 m 1
 364 146 l 1
 362 148 l 1
658 148 m 1
 660 146 l 1
 658 148 l 1
358 146 m 1
 360 144 l 1
 358 146 l 1
354 144 m 1
 356 142 l 1
 354 144 l 1
402 144 m 1
 404 142 l 1
 402 144 l 1
578 144 m 1
 580 142 l 1
 578 144 l 1
380 140 m 1
 382 138 l 1
 380 140 l 1
604 140 m 1
 606 138 l 1
 604 140 l 1
600 138 m 1
 602 136 l 1
 600 138 l 1
652 138 m 1
 654 136 l 1
 652 138 l 1
434 136 m 1
 436 134 l 1
 434 136 l 1
594 136 m 1
 596 134 l 1
 594 136 l 1
616 136 m 1
 618 134 l 1
 616 136 l 1
626 136 m 1
 628 134 l 1
 626 136 l 1
396 134 m 1
 398 132 l 1
 396 134 l 1
422 134 m 1
 424 132 l 1
 422 134 l 1
640 134 m 1
 642 132 l 1
 640 134 l 1
418 132 m 1
 420 130 l 1
 418 132 l 1
572 132 m 1
 574 130 l 1
 572 132 l 1
588 128 m 1
 590 126 l 1
 588 128 l 1
378 124 m 1
 380 122 l 1
 378 124 l 1
412 124 m 1
 414 122 l 1
 412 124 l 1
566 122 m 1
 568 120 l 1
 566 122 l 1
668 122 m 1
 670 120 l 1
 668 122 l 1
392 120 m 1
 394 118 l 1
 392 120 l 1
660 120 m 1
 662 118 l 1
 660 120 l 1
650 118 m 1
 652 116 l 1
 650 118 l 1
372 116 m 1
 374 114 l 1
 372 116 l 1
634 116 m 1
 636 114 l 1
 634 116 l 1
644 116 m 1
 646 114 l 1
 644 116 l 1
406 114 m 1
 408 112 l 1
 406 114 l 1
440 114 m 1
 442 112 l 1
 440 114 l 1
560 114 m 1
 562 112 l 1
 560 114 l 1
584 114 m 1
 586 112 l 1
 584 114 l 1
622 114 m 1
 624 112 l 1
 622 114 l 1
436 112 m 1
 438 110 l 1
 436 112 l 1
616 112 m 1
 618 110 l 1
 616 112 l 1
610 110 m 1
 612 108 l 1
 610 110 l 1
600 108 m 1
 602 106 l 1
 600 108 l 1
428 106 m 1
 430 104 l 1
 428 106 l 1
554 106 m 1
 556 104 l 1
 554 106 l 1
390 104 m 1
 392 102 l 1
 390 104 l 1
580 104 m 1
 582 102 l 1
 580 104 l 1
370 102 m 1
 372 100 l 1
 370 102 l 1
680 102 m 1
 682 100 l 1
 680 102 l 1
422 100 m 1
 424 98 l 1
 422 100 l 1
676 100 m 1
 678 98 l 1
 676 100 l 1
404 98 m 1
 406 96 l 1
 404 98 l 1
418 98 m 1
 420 96 l 1
 418 98 l 1
384 96 m 1
 386 94 l 1
 384 96 l 1
546 96 m 1
 548 94 l 1
 546 96 l 1
574 96 m 1
 576 94 l 1
 574 96 l 1
668 96 m 1
 670 94 l 1
 668 96 l 1
542 94 m 1
 544 92 l 1
 542 94 l 1
598 94 m 1
 600 92 l 1
 598 94 l 1
640 94 m 1
 642 92 l 1
 640 94 l 1
664 94 m 1
 666 92 l 1
 664 94 l 1
536 92 m 1
 538 90 l 1
 536 92 l 1
652 92 m 1
 654 90 l 1
 652 92 l 1
532 90 m 1
 534 88 l 1
 532 90 l 1
568 90 m 1
 570 88 l 1
 568 90 l 1
634 88 m 1
 636 86 l 1
 634 88 l 1
614 86 m 1
 616 84 l 1
 614 86 l 1
630 86 m 1
 632 84 l 1
 630 86 l 1
374 84 m 1
 376 82 l 1
 374 84 l 1
444 84 m 1
 446 82 l 1
 444 84 l 1
454 84 m 1
 456 82 l 1
 454 84 l 1
526 84 m 1
 528 82 l 1
 526 84 l 1
562 84 m 1
 564 82 l 1
 562 84 l 1
592 84 m 1
 594 82 l 1
 592 84 l 1
626 84 m 1
 628 82 l 1
 626 84 l 1
400 82 m 1
 402 80 l 1
 400 82 l 1
412 80 m 1
 414 78 l 1
 412 80 l 1
394 78 m 1
 396 76 l 1
 394 78 l 1
438 78 m 1
 440 76 l 1
 438 78 l 1
520 78 m 1
 522 76 l 1
 520 78 l 1
388 76 m 1
 390 74 l 1
 388 76 l 1
434 76 m 1
 436 74 l 1
 434 76 l 1
426 74 m 1
 428 72 l 1
 426 74 l 1
608 74 m 1
 610 72 l 1
 608 74 l 1
662 74 m 1
 664 72 l 1
 662 74 l 1
514 72 m 1
 516 70 l 1
 514 72 l 1
586 72 m 1
 588 70 l 1
 586 72 l 1
656 72 m 1
 658 70 l 1
 656 72 l 1
678 70 m 1
 680 68 l 1
 678 70 l 1
376 68 m 1
 378 66 l 1
 376 68 l 1
470 68 m 1
 472 66 l 1
 470 68 l 1
480 68 m 1
 482 66 l 1
 480 68 l 1
508 68 m 1
 510 66 l 1
 508 68 l 1
494 66 m 1
 496 64 l 1
 494 66 l 1
558 66 m 1
 560 64 l 1
 558 66 l 1
580 66 m 1
 582 64 l 1
 580 66 l 1
602 66 m 1
 604 64 l 1
 602 66 l 1
554 64 m 1
 556 62 l 1
 554 64 l 1
572 64 m 1
 574 62 l 1
 572 64 l 1
622 64 m 1
 624 62 l 1
 622 64 l 1
462 62 m 1
 464 60 l 1
 462 62 l 1
550 62 m 1
 552 60 l 1
 550 62 l 1
648 62 m 1
 650 60 l 1
 648 62 l 1
418 60 m 1
 420 58 l 1
 418 60 l 1
544 60 m 1
 546 58 l 1
 544 60 l 1
644 60 m 1
 646 58 l 1
 644 60 l 1
540 58 m 1
 542 56 l 1
 540 58 l 1
636 58 m 1
 638 56 l 1
 636 58 l 1
392 56 m 1
 394 54 l 1
 392 56 l 1
412 56 m 1
 414 54 l 1
 412 56 l 1
456 56 m 1
 458 54 l 1
 456 56 l 1
388 54 m 1
 390 52 l 1
 388 54 l 1
434 54 m 1
 436 52 l 1
 434 54 l 1
676 54 m 1
 678 52 l 1
 676 54 l 1
532 52 m 1
 534 50 l 1
 532 52 l 1
672 52 m 1
 674 50 l 1
 672 52 l 1
450 50 m 1
 452 48 l 1
 450 50 l 1
504 50 m 1
 506 48 l 1
 504 50 l 1
616 50 m 1
 618 48 l 1
 616 50 l 1
668 50 m 1
 670 48 l 1
 668 50 l 1
488 48 m 1
 490 46 l 1
 488 48 l 1
498 48 m 1
 500 46 l 1
 498 48 l 1
526 48 m 1
 528 46 l 1
 526 48 l 1
604 48 m 1
 606 46 l 1
 604 48 l 1
408 46 m 1
 410 44 l 1
 408 46 l 1
480 46 m 1
 482 44 l 1
 480 46 l 1
518 46 m 1
 520 44 l 1
 518 46 l 1
630 46 m 1
 632 44 l 1
 630 46 l 1
576 42 m 1
 578 40 l 1
 576 42 l 1
662 40 m 1
 664 38 l 1
 662 40 l 1
430 38 m 1
 432 36 l 1
 430 38 l 1
444 38 m 1
 446 36 l 1
 444 38 l 1
474 38 m 1
 476 36 l 1
 474 38 l 1
656 36 m 1
 658 34 l 1
 656 36 l 1
568 34 m 1
 570 32 l 1
 568 34 l 1
646 34 m 1
 648 32 l 1
 646 34 l 1
396 32 m 1
 398 30 l 1
 396 32 l 1
466 32 m 1
 468 30 l 1
 466 32 l 1
624 32 m 1
 626 30 l 1
 624 32 l 1
408 30 m 1
 410 28 l 1
 408 30 l 1
424 30 m 1
 426 28 l 1
 424 30 l 1
552 30 m 1
 554 28 l 1
 552 30 l 1
562 30 m 1
 564 28 l 1
 562 30 l 1
620 30 m 1
 622 28 l 1
 620 30 l 1
640 30 m 1
 642 28 l 1
 640 30 l 1
460 28 m 1
 462 26 l 1
 460 28 l 1
546 28 m 1
 548 26 l 1
 546 28 l 1
514 26 m 1
 516 24 l 1
 514 26 l 1
686 26 m 1
 688 24 l 1
 686 26 l 1
496 24 m 1
 498 22 l 1
 496 24 l 1
508 24 m 1
 510 22 l 1
 508 24 l 1
526 24 m 1
 528 22 l 1
 526 24 l 1
538 24 m 1
 540 22 l 1
 538 24 l 1
682 24 m 1
 684 22 l 1
 682 24 l 1
492 22 m 1
 494 20 l 1
 492 22 l 1
442 20 m 1
 444 18 l 1
 442 20 l 1
452 20 m 1
 454 18 l 1
 452 20 l 1
616 20 m 1
 618 18 l 1
 616 20 l 1
486 18 m 1
 488 16 l 1
 486 18 l 1
676 18 m 1
 678 16 l 1
 676 18 l 1
420 14 m 1
 422 12 l 1
 420 14 l 1
436 14 m 1
 438 12 l 1
 436 14 l 1
670 14 m 1
 672 12 l 1
 670 14 l 1
432 12 m 1
 434 10 l 1
 432 12 l 1
640 12 m 1
 642 10 l 1
 640 12 l 1
666 12 m 1
 668 10 l 1
 666 12 l 1
480 10 m 1
 482 8 l 1
 480 10 l 1
656 10 m 1
 658 8 l 1
 656 10 l 1
472 6 m 1
 474 4 l 1
 472 6 l 1
634 6 m 1
 636 4 l 1
 634 6 l 1
468 4 m 1
 470 2 l 1
 468 4 l 1
616 2 m 1
 618 0 l 1
 616 2 l 1
462 0 m 1
 464 -2 l 1
 462 0 l 1
628 0 m 1
 630 -2 l 1
 628 0 l 1
654 -6 m 1
 656 -8 l 1
 654 -6 l 1
668 -12 m 1
 670 -14 l 1
 668 -12 l 1
686 -12 m 1
 688 -14 l 1
 686 -12 l 1
680 -14 m 1
 682 -16 l 1
 680 -14 l 1
616 -16 m 1
 618 -18 l 1
 616 -16 l 1
648 -16 m 1
 650 -18 l 1
 648 -16 l 1
628 -18 m 1
 630 -20 l 1
 628 -18 l 1
644 -18 m 1
 646 -20 l 1
 644 -18 l 1
666 -26 m 1
 668 -28 l 1
 666 -26 l 1
616 -34 m 1
 618 -36 l 1
 616 -34 l 1
638 -34 m 1
 640 -36 l 1
 638 -34 l 1
628 -36 m 1
 630 -38 l 1
 628 -36 l 1
680 -36 m 1
 682 -38 l 1
 680 -36 l 1
658 -38 m 1
 660 -40 l 1
 658 -38 l 1
654 -40 m 1
 656 -42 l 1
 654 -40 l 1
674 -44 m 1
 676 -46 l 1
 674 -44 l 1
376 -46 m 1
 378 -48 l 1
 376 -46 l 1
368 -52 m 1
 370 -54 l 1
 368 -52 l 1
618 -52 m 1
 620 -54 l 1
 618 -52 l 1
648 -52 m 1
 650 -54 l 1
 648 -52 l 1
364 -54 m 1
 366 -56 l 1
 364 -54 l 1
644 -54 m 1
 646 -56 l 1
 644 -54 l 1
630 -56 m 1
 632 -58 l 1
 630 -56 l 1
640 -56 m 1
 642 -58 l 1
 640 -56 l 1
670 -60 m 1
 672 -62 l 1
 670 -60 l 1
392 -62 m 1
 394 -64 l 1
 392 -62 l 1
684 -64 m 1
 686 -66 l 1
 684 -64 l 1
616 -66 m 1
 618 -68 l 1
 616 -66 l 1
360 -70 m 1
 362 -72 l 1
 360 -70 l 1
386 -70 m 1
 388 -72 l 1
 386 -70 l 1
406 -70 m 1
 408 -72 l 1
 406 -70 l 1
666 -70 m 1
 668 -72 l 1
 666 -70 l 1
632 -74 m 1
 634 -76 l 1
 632 -74 l 1
378 -76 m 1
 380 -78 l 1
 378 -76 l 1
354 -80 m 1
 356 -82 l 1
 354 -80 l 1
658 -80 m 1
 660 -82 l 1
 658 -80 l 1
420 -82 m 1
 422 -84 l 1
 420 -82 l 1
612 -82 m 1
 614 -84 l 1
 612 -82 l 1
626 -82 m 1
 628 -84 l 1
 626 -82 l 1
648 -82 m 1
 650 -84 l 1
 648 -82 l 1
682 -82 m 1
 684 -84 l 1
 682 -82 l 1
402 -84 m 1
 404 -86 l 1
 402 -84 l 1
372 -86 m 1
 374 -88 l 1
 372 -86 l 1
676 -88 m 1
 678 -90 l 1
 676 -88 l 1
350 -92 m 1
 352 -94 l 1
 350 -92 l 1
394 -92 m 1
 396 -94 l 1
 394 -92 l 1
416 -94 m 1
 418 -96 l 1
 416 -94 l 1
434 -94 m 1
 436 -96 l 1
 434 -94 l 1
644 -94 m 1
 646 -96 l 1
 644 -94 l 1
388 -96 m 1
 390 -98 l 1
 388 -96 l 1
606 -96 m 1
 608 -98 l 1
 606 -96 l 1
366 -98 m 1
 368 -100 l 1
 366 -98 l 1
622 -98 m 1
 624 -100 l 1
 622 -98 l 1
668 -98 m 1
 670 -100 l 1
 668 -98 l 1
636 -100 m 1
 638 -102 l 1
 636 -100 l 1
450 -102 m 1
 452 -104 l 1
 450 -102 l 1
662 -102 m 1
 664 -104 l 1
 662 -102 l 1
348 -106 m 1
 350 -108 l 1
 348 -106 l 1
382 -106 m 1
 384 -108 l 1
 382 -106 l 1
410 -106 m 1
 412 -108 l 1
 410 -106 l 1
428 -108 m 1
 430 -110 l 1
 428 -108 l 1
442 -110 m 1
 444 -112 l 1
 442 -110 l 1
618 -110 m 1
 620 -112 l 1
 618 -110 l 1
362 -112 m 1
 364 -114 l 1
 362 -112 l 1
466 -112 m 1
 468 -114 l 1
 466 -112 l 1
602 -112 m 1
 604 -114 l 1
 602 -112 l 1
614 -112 m 1
 616 -114 l 1
 614 -112 l 1
656 -112 m 1
 658 -114 l 1
 656 -112 l 1
376 -116 m 1
 378 -118 l 1
 376 -116 l 1
404 -116 m 1
 406 -118 l 1
 404 -116 l 1
636 -116 m 1
 638 -118 l 1
 636 -116 l 1
480 -118 m 1
 482 -120 l 1
 480 -118 l 1
490 -118 m 1
 492 -120 l 1
 490 -118 l 1
500 -118 m 1
 502 -120 l 1
 500 -118 l 1
512 -118 m 1
 514 -120 l 1
 512 -118 l 1
596 -118 m 1
 598 -120 l 1
 596 -118 l 1
650 -118 m 1
 652 -120 l 1
 650 -118 l 1
398 -120 m 1
 400 -122 l 1
 398 -120 l 1
424 -120 m 1
 426 -122 l 1
 424 -120 l 1
460 -120 m 1
 462 -122 l 1
 460 -120 l 1
592 -120 m 1
 594 -122 l 1
 592 -120 l 1
586 -122 m 1
 588 -124 l 1
 586 -122 l 1
582 -124 m 1
 584 -126 l 1
 582 -124 l 1
440 -126 m 1
 442 -128 l 1
 440 -126 l 1
454 -126 m 1
 456 -128 l 1
 454 -126 l 1
528 -126 m 1
 530 -128 l 1
 528 -126 l 1
578 -126 m 1
 580 -128 l 1
 578 -126 l 1
392 -128 m 1
 394 -130 l 1
 392 -128 l 1
540 -128 m 1
 542 -130 l 1
 540 -128 l 1
564 -128 m 1
 566 -130 l 1
 564 -128 l 1
574 -128 m 1
 576 -130 l 1
 574 -128 l 1
552 -130 m 1
 554 -132 l 1
 552 -130 l 1
634 -130 m 1
 636 -132 l 1
 634 -130 l 1
376 -132 m 1
 378 -134 l 1
 376 -132 l 1
420 -132 m 1
 422 -134 l 1
 420 -132 l 1
630 -132 m 1
 632 -134 l 1
 630 -132 l 1
478 -134 m 1
 480 -136 l 1
 478 -134 l 1
626 -134 m 1
 628 -136 l 1
 626 -134 l 1
520 -136 m 1
 522 -138 l 1
 520 -136 l 1
616 -136 m 1
 618 -138 l 1
 616 -136 l 1
648 -136 m 1
 650 -138 l 1
 648 -136 l 1
664 -136 m 1
 666 -138 l 1
 664 -136 l 1
436 -138 m 1
 438 -140 l 1
 436 -138 l 1
510 -138 m 1
 512 -140 l 1
 510 -138 l 1
660 -138 m 1
 662 -140 l 1
 660 -138 l 1
494 -140 m 1
 496 -142 l 1
 494 -140 l 1
504 -140 m 1
 506 -142 l 1
 504 -140 l 1
414 -142 m 1
 416 -144 l 1
 414 -142 l 1
472 -142 m 1
 474 -144 l 1
 472 -142 l 1
392 -144 m 1
 394 -146 l 1
 392 -144 l 1
410 -144 m 1
 412 -146 l 1
 410 -144 l 1
452 -144 m 1
 454 -146 l 1
 452 -144 l 1
406 -146 m 1
 408 -148 l 1
 406 -146 l 1
466 -146 m 1
 468 -148 l 1
 466 -146 l 1
536 -146 m 1
 538 -148 l 1
 536 -146 l 1
548 -148 m 1
 550 -150 l 1
 548 -148 l 1
560 -148 m 1
 562 -150 l 1
 560 -148 l 1
570 -148 m 1
 572 -150 l 1
 570 -148 l 1
610 -148 m 1
 612 -150 l 1
 610 -148 l 1
432 -152 m 1
 434 -154 l 1
 432 -152 l 1
490 -154 m 1
 492 -156 l 1
 490 -154 l 1
604 -154 m 1
 606 -156 l 1
 604 -154 l 1
448 -156 m 1
 450 -158 l 1
 448 -156 l 1
586 -156 m 1
 588 -158 l 1
 586 -156 l 1
598 -156 m 1
 600 -158 l 1
 598 -156 l 1
528 -158 m 1
 530 -160 l 1
 528 -158 l 1
626 -158 m 1
 628 -160 l 1
 626 -158 l 1
646 -158 m 1
 648 -160 l 1
 646 -158 l 1
638 -160 m 1
 640 -162 l 1
 638 -160 l 1
506 -162 m 1
 508 -164 l 1
 506 -162 l 1
522 -162 m 1
 524 -164 l 1
 522 -162 l 1
464 -164 m 1
 466 -166 l 1
 464 -164 l 1
544 -164 m 1
 546 -166 l 1
 544 -164 l 1
480 -166 m 1
 482 -168 l 1
 480 -166 l 1
560 -166 m 1
 562 -168 l 1
 560 -166 l 1
430 -168 m 1
 432 -170 l 1
 430 -168 l 1
442 -168 m 1
 444 -170 l 1
 442 -168 l 1
576 -168 m 1
 578 -170 l 1
 576 -168 l 1
496 -170 m 1
 498 -172 l 1
 496 -170 l 1
622 -172 m 1
 624 -174 l 1
 622 -172 l 1
458 -174 m 1
 460 -176 l 1
 458 -174 l 1
590 -174 m 1
 592 -176 l 1
 590 -174 l 1
518 -176 m 1
 520 -178 l 1
 518 -176 l 1
514 -178 m 1
 516 -180 l 1
 514 -178 l 1
604 -178 m 1
 606 -180 l 1
 604 -178 l 1
476 -180 m 1
 478 -182 l 1
 476 -180 l 1
540 -180 m 1
 542 -182 l 1
 540 -180 l 1
552 -180 m 1
 554 -182 l 1
 552 -180 l 1
490 -182 m 1
 492 -184 l 1
 490 -182 l 1
536 -182 m 1
 538 -184 l 1
 536 -182 l 1
566 -182 m 1
 568 -184 l 1
 566 -182 l 1
508 -184 m 1
 510 -186 l 1
 508 -184 l 1
578 -184 m 1
 580 -186 l 1
 578 -184 l 1
EndSplineSet
EndChar

StartChar: i
Encoding: 105 105 70
Width: 1000
VWidth: 0
Flags: HW
LayerCount: 2
Back
Fore
SplineSet
510 468 m 1
 500 451 468 457 455 467 c 0
 433 484 431 519 447 540 c 0
 471 572 522 562 534 524 c 0
 541 500 527 484 514 466 c 1
 510 468 l 1
488 530 m 1
 490 528 l 1
 488 530 l 1
498 530 m 1
 500 528 l 1
 498 530 l 1
484 528 m 1
 486 526 l 1
 484 528 l 1
512 526 m 1
 514 524 l 1
 512 526 l 1
478 524 m 1
 480 522 l 1
 478 524 l 1
474 522 m 1
 476 520 l 1
 474 522 l 1
470 520 m 1
 472 518 l 1
 470 520 l 1
462 514 m 1
 464 512 l 1
 462 514 l 1
526 512 m 1
 528 510 l 1
 526 512 l 1
522 510 m 1
 524 508 l 1
 522 510 l 1
456 508 m 1
 458 506 l 1
 456 508 l 1
508 508 m 1
 510 506 l 1
 508 508 l 1
518 508 m 1
 520 506 l 1
 518 508 l 1
502 500 m 1
 504 498 l 1
 502 500 l 1
498 498 m 1
 500 496 l 1
 498 498 l 1
492 494 m 1
 494 492 l 1
 492 494 l 1
454 492 m 1
 456 490 l 1
 454 492 l 1
476 492 m 1
 478 490 l 1
 476 492 l 1
486 492 m 1
 488 490 l 1
 486 492 l 1
472 490 m 1
 474 488 l 1
 472 490 l 1
468 488 m 1
 470 486 l 1
 468 488 l 1
522 482 m 1
 524 480 l 1
 522 482 l 1
462 472 m 1
 464 470 l 1
 462 472 l 1
504 466 m 1
 506 464 l 1
 504 466 l 1
490 464 m 1
 492 462 l 1
 490 464 l 1
500 464 m 1
 502 462 l 1
 500 464 l 1
478 462 m 1
 480 460 l 1
 478 462 l 1
502 -2 m 0
 483 -2 469 -9 452 5 c 0
 433 21 433 49 430 72 c 0
 423 133 428 193 428 254 c 0
 428 289 418 349 454 369 c 0
 482 385 517 364 521 333 c 0
 530 258 527 177 526 102 c 0
 526 76 532 44 521 20 c 0
 516 11 509 5 502 -2 c 0
470 346 m 1
 472 344 l 1
 470 346 l 1
482 344 m 1
 484 342 l 1
 482 344 l 1
494 342 m 1
 496 340 l 1
 494 342 l 1
504 342 m 1
 506 340 l 1
 504 342 l 1
464 338 m 1
 466 336 l 1
 464 338 l 1
458 330 m 1
 460 328 l 1
 458 330 l 1
452 324 m 1
 454 322 l 1
 452 324 l 1
480 324 m 1
 482 322 l 1
 480 324 l 1
490 324 m 1
 492 322 l 1
 490 324 l 1
504 322 m 1
 506 320 l 1
 504 322 l 1
474 314 m 1
 476 312 l 1
 474 314 l 1
448 312 m 1
 450 310 l 1
 448 312 l 1
468 306 m 1
 470 304 l 1
 468 306 l 1
502 306 m 1
 504 304 l 1
 502 306 l 1
514 306 m 1
 516 304 l 1
 514 306 l 1
496 304 m 1
 498 302 l 1
 496 304 l 1
490 302 m 1
 492 300 l 1
 490 302 l 1
462 298 m 1
 464 296 l 1
 462 298 l 1
450 294 m 1
 452 292 l 1
 450 294 l 1
484 290 m 1
 486 288 l 1
 484 290 l 1
476 282 m 1
 478 280 l 1
 476 282 l 1
448 280 m 1
 450 278 l 1
 448 280 l 1
470 280 m 1
 472 278 l 1
 470 280 l 1
516 280 m 1
 518 278 l 1
 516 280 l 1
462 278 m 1
 464 276 l 1
 462 278 l 1
508 278 m 1
 510 276 l 1
 508 278 l 1
498 276 m 1
 500 274 l 1
 498 276 l 1
492 266 m 1
 494 264 l 1
 492 266 l 1
444 264 m 1
 446 262 l 1
 444 264 l 1
456 262 m 1
 458 260 l 1
 456 262 l 1
438 256 m 1
 440 254 l 1
 438 256 l 1
470 256 m 1
 472 254 l 1
 470 256 l 1
484 256 m 1
 486 254 l 1
 484 256 l 1
512 256 m 1
 514 254 l 1
 512 256 l 1
508 254 m 1
 510 252 l 1
 508 254 l 1
502 248 m 1
 504 246 l 1
 502 248 l 1
464 244 m 1
 466 242 l 1
 464 244 l 1
456 242 m 1
 458 240 l 1
 456 242 l 1
482 240 m 1
 484 238 l 1
 482 240 l 1
494 240 m 1
 496 238 l 1
 494 240 l 1
450 234 m 1
 452 232 l 1
 450 234 l 1
478 226 m 1
 480 224 l 1
 478 226 l 1
508 224 m 1
 510 222 l 1
 508 224 l 1
472 222 m 1
 474 220 l 1
 472 222 l 1
504 222 m 1
 506 220 l 1
 504 222 l 1
446 220 m 1
 448 218 l 1
 446 220 l 1
492 220 m 1
 494 218 l 1
 492 220 l 1
466 218 m 1
 468 216 l 1
 466 218 l 1
462 216 m 1
 464 214 l 1
 462 216 l 1
440 212 m 1
 442 210 l 1
 440 212 l 1
458 202 m 1
 460 200 l 1
 458 202 l 1
494 202 m 1
 496 200 l 1
 494 202 l 1
506 202 m 1
 508 200 l 1
 506 202 l 1
490 200 m 1
 492 198 l 1
 490 200 l 1
448 194 m 1
 450 192 l 1
 448 194 l 1
444 192 m 1
 446 190 l 1
 444 192 l 1
480 192 m 1
 482 190 l 1
 480 192 l 1
476 190 m 1
 478 188 l 1
 476 190 l 1
472 188 m 1
 474 186 l 1
 472 188 l 1
518 186 m 1
 520 184 l 1
 518 186 l 1
466 184 m 1
 468 182 l 1
 466 184 l 1
512 182 m 1
 514 180 l 1
 512 182 l 1
508 180 m 1
 510 178 l 1
 508 180 l 1
502 178 m 1
 504 176 l 1
 502 178 l 1
498 176 m 1
 500 174 l 1
 498 176 l 1
460 172 m 1
 462 170 l 1
 460 172 l 1
448 170 m 1
 450 168 l 1
 448 170 l 1
490 162 m 1
 492 160 l 1
 490 162 l 1
480 160 m 1
 482 158 l 1
 480 160 l 1
476 158 m 1
 478 156 l 1
 476 158 l 1
472 156 m 1
 474 154 l 1
 472 156 l 1
448 154 m 1
 450 152 l 1
 448 154 l 1
466 154 m 1
 468 152 l 1
 466 154 l 1
460 152 m 1
 462 150 l 1
 460 152 l 1
506 152 m 1
 508 150 l 1
 506 152 l 1
500 140 m 1
 502 138 l 1
 500 140 l 1
448 138 m 1
 450 136 l 1
 448 138 l 1
518 138 m 1
 520 136 l 1
 518 138 l 1
462 130 m 1
 464 128 l 1
 462 130 l 1
494 130 m 1
 496 128 l 1
 494 130 l 1
514 128 m 1
 516 126 l 1
 514 128 l 1
488 126 m 1
 490 124 l 1
 488 126 l 1
442 124 m 1
 444 122 l 1
 442 124 l 1
476 124 m 1
 478 122 l 1
 476 124 l 1
456 120 m 1
 458 118 l 1
 456 120 l 1
510 114 m 1
 512 112 l 1
 510 114 l 1
474 110 m 1
 476 108 l 1
 474 110 l 1
446 106 m 1
 448 104 l 1
 446 106 l 1
490 106 m 1
 492 104 l 1
 490 106 l 1
504 106 m 1
 506 104 l 1
 504 106 l 1
466 104 m 1
 468 102 l 1
 466 104 l 1
460 102 m 1
 462 100 l 1
 460 102 l 1
486 92 m 1
 488 90 l 1
 486 92 l 1
452 90 m 1
 454 88 l 1
 452 90 l 1
502 90 m 1
 504 88 l 1
 502 90 l 1
446 88 m 1
 448 86 l 1
 446 88 l 1
516 88 m 1
 518 86 l 1
 516 88 l 1
478 82 m 1
 480 80 l 1
 478 82 l 1
474 80 m 1
 476 78 l 1
 474 80 l 1
470 78 m 1
 472 76 l 1
 470 78 l 1
496 76 m 1
 498 74 l 1
 496 76 l 1
510 72 m 1
 512 70 l 1
 510 72 l 1
462 68 m 1
 464 66 l 1
 462 68 l 1
448 66 m 1
 450 64 l 1
 448 66 l 1
494 60 m 1
 496 58 l 1
 494 60 l 1
506 56 m 1
 508 54 l 1
 506 56 l 1
518 56 m 1
 520 54 l 1
 518 56 l 1
484 54 m 1
 486 52 l 1
 484 54 l 1
460 52 m 1
 462 50 l 1
 460 52 l 1
474 52 m 1
 476 50 l 1
 474 52 l 1
456 50 m 1
 458 48 l 1
 456 50 l 1
450 48 m 1
 452 46 l 1
 450 48 l 1
502 40 m 1
 504 38 l 1
 502 40 l 1
498 38 m 1
 500 36 l 1
 498 38 l 1
516 36 m 1
 518 34 l 1
 516 36 l 1
490 34 m 1
 492 32 l 1
 490 34 l 1
478 32 m 1
 480 30 l 1
 478 32 l 1
450 28 m 1
 452 26 l 1
 450 28 l 1
472 26 m 1
 474 24 l 1
 472 26 l 1
468 24 m 1
 470 22 l 1
 468 24 l 1
464 22 m 1
 466 20 l 1
 464 22 l 1
496 14 m 1
 498 12 l 1
 496 14 l 1
512 14 m 1
 514 12 l 1
 512 14 l 1
492 12 m 1
 494 10 l 1
 492 12 l 1
464 4 m 1
 466 2 l 1
 464 4 l 1
484 -2 m 1
 486 -4 l 1
 484 -2 l 1
EndSplineSet
EndChar

StartChar: z
Encoding: 122 122 71
Width: 1000
VWidth: 0
Flags: HW
LayerCount: 2
Back
Fore
SplineSet
524 310 m 1
 495 310 467 312 438 312 c 0
 416 312 387 304 367 316 c 0
 335 335 340 384 374 397 c 0
 399 407 430 404 456 404 c 0
 502 404 549 405 595 401 c 0
 613 399 633 399 648 387 c 0
 669 369 673 325 646 310 c 1
 644 289 609 258 596 241 c 0
 556 188 520 131 476 80 c 1
 505 78 535 79 564 79 c 0
 585 79 610 86 630 76 c 0
 660 62 663 17 636 -1 c 0
 616 -14 585 -14 562 -14 c 0
 511 -14 455 -25 405 -12 c 0
 382 -6 357 8 349 32 c 0
 339 64 365 93 381 118 c 0
 425 184 475 248 524 310 c 1
428 398 m 1
 430 396 l 1
 428 398 l 1
444 384 m 1
 446 382 l 1
 444 384 l 1
440 382 m 1
 442 380 l 1
 440 382 l 1
456 382 m 1
 458 380 l 1
 456 382 l 1
554 382 m 1
 556 380 l 1
 554 382 l 1
428 380 m 1
 430 378 l 1
 428 380 l 1
566 380 m 1
 568 378 l 1
 566 380 l 1
470 378 m 1
 472 376 l 1
 470 378 l 1
422 376 m 1
 424 374 l 1
 422 376 l 1
592 376 m 1
 594 374 l 1
 592 376 l 1
408 374 m 1
 410 372 l 1
 408 374 l 1
484 374 m 1
 486 372 l 1
 484 374 l 1
544 374 m 1
 546 372 l 1
 544 374 l 1
584 374 m 1
 586 372 l 1
 584 374 l 1
400 372 m 1
 402 370 l 1
 400 372 l 1
496 372 m 1
 498 370 l 1
 496 372 l 1
530 372 m 1
 532 370 l 1
 530 372 l 1
540 372 m 1
 542 370 l 1
 540 372 l 1
606 372 m 1
 608 370 l 1
 606 372 l 1
370 370 m 1
 372 368 l 1
 370 370 l 1
394 370 m 1
 396 368 l 1
 394 370 l 1
508 370 m 1
 510 368 l 1
 508 370 l 1
518 370 m 1
 520 368 l 1
 518 370 l 1
618 370 m 1
 620 368 l 1
 618 370 l 1
388 368 m 1
 390 366 l 1
 388 368 l 1
630 368 m 1
 632 366 l 1
 630 368 l 1
642 368 m 1
 644 366 l 1
 642 368 l 1
384 366 m 1
 386 364 l 1
 384 366 l 1
578 364 m 1
 580 362 l 1
 578 364 l 1
462 362 m 1
 464 360 l 1
 462 362 l 1
562 362 m 1
 564 360 l 1
 562 362 l 1
574 362 m 1
 576 360 l 1
 574 362 l 1
452 360 m 1
 454 358 l 1
 452 360 l 1
474 360 m 1
 476 358 l 1
 474 360 l 1
364 358 m 1
 366 356 l 1
 364 358 l 1
440 358 m 1
 442 356 l 1
 440 358 l 1
422 356 m 1
 424 354 l 1
 422 356 l 1
434 356 m 1
 436 354 l 1
 434 356 l 1
486 356 m 1
 488 354 l 1
 486 356 l 1
500 354 m 1
 502 352 l 1
 500 354 l 1
600 354 m 1
 602 352 l 1
 600 354 l 1
612 354 m 1
 614 352 l 1
 612 354 l 1
658 354 m 1
 660 352 l 1
 658 354 l 1
380 352 m 1
 382 350 l 1
 380 352 l 1
530 352 m 1
 532 350 l 1
 530 352 l 1
654 352 m 1
 656 350 l 1
 654 352 l 1
514 350 m 1
 516 348 l 1
 514 350 l 1
526 350 m 1
 528 348 l 1
 526 350 l 1
554 350 m 1
 556 348 l 1
 554 350 l 1
626 350 m 1
 628 348 l 1
 626 350 l 1
638 350 m 1
 640 348 l 1
 638 350 l 1
544 348 m 1
 546 346 l 1
 544 348 l 1
594 346 m 1
 596 344 l 1
 594 346 l 1
414 344 m 1
 416 342 l 1
 414 344 l 1
568 344 m 1
 570 342 l 1
 568 344 l 1
374 342 m 1
 376 340 l 1
 374 342 l 1
470 342 m 1
 472 340 l 1
 470 342 l 1
364 340 m 1
 366 338 l 1
 364 340 l 1
404 340 m 1
 406 338 l 1
 404 340 l 1
458 340 m 1
 460 338 l 1
 458 340 l 1
482 340 m 1
 484 338 l 1
 482 340 l 1
586 340 m 1
 588 338 l 1
 586 340 l 1
396 338 m 1
 398 336 l 1
 396 338 l 1
430 338 m 1
 432 336 l 1
 430 338 l 1
496 338 m 1
 498 336 l 1
 496 338 l 1
582 338 m 1
 584 336 l 1
 582 338 l 1
452 336 m 1
 454 334 l 1
 452 336 l 1
508 336 m 1
 510 334 l 1
 508 336 l 1
618 336 m 1
 620 334 l 1
 618 336 l 1
650 336 m 1
 652 334 l 1
 650 336 l 1
448 334 m 1
 450 332 l 1
 448 334 l 1
612 334 m 1
 614 332 l 1
 612 334 l 1
444 332 m 1
 446 330 l 1
 444 332 l 1
634 332 m 1
 636 330 l 1
 634 332 l 1
390 330 m 1
 392 328 l 1
 390 330 l 1
522 330 m 1
 524 328 l 1
 522 330 l 1
560 330 m 1
 562 328 l 1
 560 330 l 1
536 328 m 1
 538 326 l 1
 536 328 l 1
546 328 m 1
 548 326 l 1
 546 328 l 1
556 328 m 1
 558 326 l 1
 556 328 l 1
424 326 m 1
 426 324 l 1
 424 326 l 1
574 326 m 1
 576 324 l 1
 574 326 l 1
606 324 m 1
 608 322 l 1
 606 324 l 1
366 322 m 1
 368 320 l 1
 366 322 l 1
382 322 m 1
 384 320 l 1
 382 322 l 1
418 322 m 1
 420 320 l 1
 418 322 l 1
476 322 m 1
 478 320 l 1
 476 322 l 1
490 322 m 1
 492 320 l 1
 490 322 l 1
648 322 m 1
 650 320 l 1
 648 322 l 1
378 320 m 1
 380 318 l 1
 378 320 l 1
440 318 m 1
 442 316 l 1
 440 318 l 1
504 318 m 1
 506 316 l 1
 504 318 l 1
410 316 m 1
 412 314 l 1
 410 316 l 1
516 316 m 1
 518 314 l 1
 516 316 l 1
598 316 m 1
 600 314 l 1
 598 316 l 1
632 316 m 1
 634 314 l 1
 632 316 l 1
590 314 m 1
 592 312 l 1
 590 314 l 1
530 312 m 1
 532 310 l 1
 530 312 l 1
624 310 m 1
 626 308 l 1
 624 310 l 1
544 308 m 1
 546 306 l 1
 544 308 l 1
580 308 m 1
 582 306 l 1
 580 308 l 1
620 308 m 1
 622 306 l 1
 620 308 l 1
572 306 m 1
 574 304 l 1
 572 306 l 1
556 304 m 1
 558 302 l 1
 556 304 l 1
566 304 m 1
 568 302 l 1
 566 304 l 1
614 302 m 1
 616 300 l 1
 614 302 l 1
606 294 m 1
 608 292 l 1
 606 294 l 1
540 292 m 1
 542 290 l 1
 540 292 l 1
598 292 m 1
 600 290 l 1
 598 292 l 1
554 288 m 1
 556 286 l 1
 554 288 l 1
592 286 m 1
 594 284 l 1
 592 286 l 1
536 280 m 1
 538 278 l 1
 536 280 l 1
570 280 m 1
 572 278 l 1
 570 280 l 1
582 280 m 1
 584 278 l 1
 582 280 l 1
552 272 m 1
 554 270 l 1
 552 272 l 1
564 270 m 1
 566 268 l 1
 564 270 l 1
614 270 m 1
 616 268 l 1
 614 270 l 1
530 268 m 1
 532 266 l 1
 530 268 l 1
610 268 m 1
 612 266 l 1
 610 268 l 1
604 266 m 1
 606 264 l 1
 604 266 l 1
596 264 m 1
 598 262 l 1
 596 264 l 1
546 262 m 1
 548 260 l 1
 546 262 l 1
590 262 m 1
 592 260 l 1
 590 262 l 1
524 260 m 1
 526 258 l 1
 524 260 l 1
580 260 m 1
 582 258 l 1
 580 260 l 1
518 254 m 1
 520 252 l 1
 518 254 l 1
574 252 m 1
 576 250 l 1
 574 252 l 1
562 250 m 1
 564 248 l 1
 562 250 l 1
542 248 m 1
 544 246 l 1
 542 248 l 1
510 246 m 1
 512 244 l 1
 510 246 l 1
556 242 m 1
 558 240 l 1
 556 242 l 1
536 238 m 1
 538 236 l 1
 536 238 l 1
504 236 m 1
 506 234 l 1
 504 236 l 1
530 234 m 1
 532 232 l 1
 530 234 l 1
586 234 m 1
 588 232 l 1
 586 234 l 1
526 232 m 1
 528 230 l 1
 526 232 l 1
576 232 m 1
 578 230 l 1
 576 232 l 1
520 226 m 1
 522 224 l 1
 520 226 l 1
554 226 m 1
 556 224 l 1
 554 226 l 1
570 226 m 1
 572 224 l 1
 570 226 l 1
498 224 m 1
 500 222 l 1
 498 224 l 1
514 218 m 1
 516 216 l 1
 514 218 l 1
492 216 m 1
 494 214 l 1
 492 216 l 1
550 212 m 1
 552 210 l 1
 550 212 l 1
566 212 m 1
 568 210 l 1
 566 212 l 1
486 210 m 1
 488 208 l 1
 486 210 l 1
542 206 m 1
 544 204 l 1
 542 206 l 1
510 204 m 1
 512 202 l 1
 510 204 l 1
538 204 m 1
 540 202 l 1
 538 204 l 1
534 202 m 1
 536 200 l 1
 534 202 l 1
480 200 m 1
 482 198 l 1
 480 200 l 1
528 200 m 1
 530 198 l 1
 528 200 l 1
504 194 m 1
 506 192 l 1
 504 194 l 1
474 192 m 1
 476 190 l 1
 474 192 l 1
524 190 m 1
 526 188 l 1
 524 190 l 1
498 188 m 1
 500 186 l 1
 498 188 l 1
466 184 m 1
 468 182 l 1
 466 184 l 1
492 180 m 1
 494 178 l 1
 492 180 l 1
518 178 m 1
 520 176 l 1
 518 178 l 1
460 174 m 1
 462 172 l 1
 460 174 l 1
486 174 m 1
 488 172 l 1
 486 174 l 1
542 172 m 1
 544 170 l 1
 542 172 l 1
534 170 m 1
 536 168 l 1
 534 170 l 1
478 168 m 1
 480 166 l 1
 478 168 l 1
454 166 m 1
 456 164 l 1
 454 166 l 1
512 166 m 1
 514 164 l 1
 512 166 l 1
528 160 m 1
 530 158 l 1
 528 160 l 1
506 158 m 1
 508 156 l 1
 506 158 l 1
448 156 m 1
 450 154 l 1
 448 156 l 1
472 156 m 1
 474 154 l 1
 472 156 l 1
502 156 m 1
 504 154 l 1
 502 156 l 1
496 152 m 1
 498 150 l 1
 496 152 l 1
490 150 m 1
 492 148 l 1
 490 150 l 1
442 146 m 1
 444 144 l 1
 442 146 l 1
466 146 m 1
 468 144 l 1
 466 146 l 1
484 140 m 1
 486 138 l 1
 484 140 l 1
436 138 m 1
 438 136 l 1
 436 138 l 1
460 138 m 1
 462 136 l 1
 460 138 l 1
430 128 m 1
 432 126 l 1
 430 128 l 1
454 128 m 1
 456 126 l 1
 454 128 l 1
480 128 m 1
 482 126 l 1
 480 128 l 1
500 124 m 1
 502 122 l 1
 500 124 l 1
424 122 m 1
 426 120 l 1
 424 122 l 1
474 122 m 1
 476 120 l 1
 474 122 l 1
448 118 m 1
 450 116 l 1
 448 118 l 1
416 114 m 1
 418 112 l 1
 416 114 l 1
494 114 m 1
 496 112 l 1
 494 114 l 1
468 112 m 1
 470 110 l 1
 468 112 l 1
444 108 m 1
 446 106 l 1
 444 108 l 1
410 106 m 1
 412 104 l 1
 410 106 l 1
438 104 m 1
 440 102 l 1
 438 104 l 1
462 102 m 1
 464 100 l 1
 462 102 l 1
488 102 m 1
 490 100 l 1
 488 102 l 1
432 100 m 1
 434 98 l 1
 432 100 l 1
404 98 m 1
 406 96 l 1
 404 98 l 1
482 96 m 1
 484 94 l 1
 482 96 l 1
426 90 m 1
 428 88 l 1
 426 90 l 1
398 88 m 1
 400 86 l 1
 398 88 l 1
476 88 m 1
 478 86 l 1
 476 88 l 1
460 86 m 1
 462 84 l 1
 460 86 l 1
420 82 m 1
 422 80 l 1
 420 82 l 1
454 80 m 1
 456 78 l 1
 454 80 l 1
392 78 m 1
 394 76 l 1
 392 78 l 1
450 78 m 1
 452 76 l 1
 450 78 l 1
414 76 m 1
 416 74 l 1
 414 76 l 1
444 76 m 1
 446 74 l 1
 444 76 l 1
476 76 m 1
 478 74 l 1
 476 76 l 1
438 70 m 1
 440 68 l 1
 438 70 l 1
386 68 m 1
 388 66 l 1
 386 68 l 1
408 66 m 1
 410 64 l 1
 408 66 l 1
512 66 m 1
 514 64 l 1
 512 66 l 1
588 62 m 1
 590 60 l 1
 588 62 l 1
432 60 m 1
 434 58 l 1
 432 60 l 1
472 60 m 1
 474 58 l 1
 472 60 l 1
506 60 m 1
 508 58 l 1
 506 60 l 1
380 58 m 1
 382 56 l 1
 380 58 l 1
402 56 m 1
 404 54 l 1
 402 56 l 1
500 56 m 1
 502 54 l 1
 500 56 l 1
426 54 m 1
 428 52 l 1
 426 54 l 1
486 54 m 1
 488 52 l 1
 486 54 l 1
496 54 m 1
 498 52 l 1
 496 54 l 1
528 54 m 1
 530 52 l 1
 528 54 l 1
604 54 m 1
 606 52 l 1
 604 54 l 1
540 52 m 1
 542 50 l 1
 540 52 l 1
464 50 m 1
 466 48 l 1
 464 50 l 1
552 50 m 1
 554 48 l 1
 552 50 l 1
580 50 m 1
 582 48 l 1
 580 50 l 1
620 50 m 1
 622 48 l 1
 620 50 l 1
374 48 m 1
 376 46 l 1
 374 48 l 1
396 48 m 1
 398 46 l 1
 396 48 l 1
420 48 m 1
 422 46 l 1
 420 48 l 1
452 48 m 1
 454 46 l 1
 452 48 l 1
564 48 m 1
 566 46 l 1
 564 48 l 1
574 48 m 1
 576 46 l 1
 574 48 l 1
634 48 m 1
 636 46 l 1
 634 48 l 1
448 46 m 1
 450 44 l 1
 448 46 l 1
598 46 m 1
 600 44 l 1
 598 46 l 1
482 42 m 1
 484 40 l 1
 482 42 l 1
524 40 m 1
 526 38 l 1
 524 40 l 1
390 38 m 1
 392 36 l 1
 390 38 l 1
414 38 m 1
 416 36 l 1
 414 38 l 1
368 36 m 1
 370 34 l 1
 368 36 l 1
616 36 m 1
 618 34 l 1
 616 36 l 1
648 36 m 1
 650 34 l 1
 648 36 l 1
442 34 m 1
 444 32 l 1
 442 34 l 1
476 34 m 1
 478 32 l 1
 476 34 l 1
540 34 m 1
 542 32 l 1
 540 34 l 1
472 32 m 1
 474 30 l 1
 472 32 l 1
554 32 m 1
 556 30 l 1
 554 32 l 1
596 32 m 1
 598 30 l 1
 596 32 l 1
630 32 m 1
 632 30 l 1
 630 32 l 1
384 30 m 1
 386 28 l 1
 384 30 l 1
436 30 m 1
 438 28 l 1
 436 30 l 1
500 30 m 1
 502 28 l 1
 500 30 l 1
516 30 m 1
 518 28 l 1
 516 30 l 1
642 30 m 1
 644 28 l 1
 642 30 l 1
408 28 m 1
 410 26 l 1
 408 28 l 1
568 28 m 1
 570 26 l 1
 568 28 l 1
464 26 m 1
 466 24 l 1
 464 26 l 1
590 26 m 1
 592 24 l 1
 590 26 l 1
610 26 m 1
 612 24 l 1
 610 26 l 1
430 24 m 1
 432 22 l 1
 430 24 l 1
534 24 m 1
 536 22 l 1
 534 24 l 1
582 24 m 1
 584 22 l 1
 582 24 l 1
366 22 m 1
 368 20 l 1
 366 22 l 1
458 20 m 1
 460 18 l 1
 458 20 l 1
494 20 m 1
 496 18 l 1
 494 20 l 1
380 18 m 1
 382 16 l 1
 380 18 l 1
402 18 m 1
 404 16 l 1
 402 18 l 1
424 18 m 1
 426 16 l 1
 424 18 l 1
512 16 m 1
 514 14 l 1
 512 16 l 1
528 16 m 1
 530 14 l 1
 528 16 l 1
550 16 m 1
 552 14 l 1
 550 16 l 1
628 16 m 1
 630 14 l 1
 628 16 l 1
562 14 m 1
 564 12 l 1
 562 14 l 1
576 10 m 1
 578 8 l 1
 576 10 l 1
622 10 m 1
 624 8 l 1
 622 10 l 1
642 10 m 1
 644 8 l 1
 642 10 l 1
396 8 m 1
 398 6 l 1
 396 8 l 1
418 8 m 1
 420 6 l 1
 418 8 l 1
454 8 m 1
 456 6 l 1
 454 8 l 1
486 8 m 1
 488 6 l 1
 486 8 l 1
610 8 m 1
 612 6 l 1
 610 8 l 1
450 6 m 1
 452 4 l 1
 450 6 l 1
482 6 m 1
 484 4 l 1
 482 6 l 1
606 6 m 1
 608 4 l 1
 606 6 l 1
478 4 m 1
 480 2 l 1
 478 4 l 1
506 4 m 1
 508 2 l 1
 506 4 l 1
602 4 m 1
 604 2 l 1
 602 4 l 1
502 2 m 1
 504 0 l 1
 502 2 l 1
524 2 m 1
 526 0 l 1
 524 2 l 1
544 2 m 1
 546 0 l 1
 544 2 l 1
592 2 m 1
 594 0 l 1
 592 2 l 1
390 0 m 1
 392 -2 l 1
 390 0 l 1
442 0 m 1
 444 -2 l 1
 442 0 l 1
472 0 m 1
 474 -2 l 1
 472 0 l 1
412 -2 m 1
 414 -4 l 1
 412 -2 l 1
438 -2 m 1
 440 -4 l 1
 438 -2 l 1
538 -4 m 1
 540 -6 l 1
 538 -4 l 1
558 -4 m 1
 560 -6 l 1
 558 -4 l 1
570 -4 m 1
 572 -6 l 1
 570 -4 l 1
432 -8 m 1
 434 -10 l 1
 432 -8 l 1
584 -8 m 1
 586 -10 l 1
 584 -8 l 1
EndSplineSet
EndChar

StartChar: I
Encoding: 73 73 72
Width: 1000
VWidth: 0
Flags: HW
LayerCount: 2
Back
Fore
SplineSet
486 661 m 0
 510 667 535 652 541 628 c 0
 548 598 538 559 538 528 c 0
 538 389 521 250 521 111 c 0
 521 69 537 -9 482 -20 c 0
 461 -24 440 -12 433 8 c 0
 421 40 425 83 424 116 c 0
 419 254 443 391 446 528 c 0
 447 567 435 649 486 661 c 0
502 630 m 1
 504 628 l 1
 502 630 l 1
512 630 m 1
 514 628 l 1
 512 630 l 1
498 628 m 1
 500 626 l 1
 498 628 l 1
524 628 m 1
 526 626 l 1
 524 628 l 1
492 626 m 1
 494 624 l 1
 492 626 l 1
488 624 m 1
 490 622 l 1
 488 624 l 1
482 620 m 1
 484 618 l 1
 482 620 l 1
534 610 m 1
 536 608 l 1
 534 610 l 1
476 608 m 1
 478 606 l 1
 476 608 l 1
526 608 m 1
 528 606 l 1
 526 608 l 1
522 606 m 1
 524 604 l 1
 522 606 l 1
470 600 m 1
 472 598 l 1
 470 600 l 1
516 600 m 1
 518 598 l 1
 516 600 l 1
512 598 m 1
 514 596 l 1
 512 598 l 1
494 596 m 1
 496 594 l 1
 494 596 l 1
508 596 m 1
 510 594 l 1
 508 596 l 1
488 590 m 1
 490 588 l 1
 488 590 l 1
464 586 m 1
 466 584 l 1
 464 586 l 1
456 582 m 1
 458 580 l 1
 456 582 l 1
480 582 m 1
 482 580 l 1
 480 582 l 1
506 576 m 1
 508 574 l 1
 506 576 l 1
530 572 m 1
 532 570 l 1
 530 572 l 1
500 570 m 1
 502 568 l 1
 500 570 l 1
520 570 m 1
 522 568 l 1
 520 570 l 1
478 568 m 1
 480 566 l 1
 478 568 l 1
496 568 m 1
 498 566 l 1
 496 568 l 1
472 564 m 1
 474 562 l 1
 472 564 l 1
466 554 m 1
 468 552 l 1
 466 554 l 1
492 552 m 1
 494 550 l 1
 492 552 l 1
520 552 m 1
 522 550 l 1
 520 552 l 1
514 548 m 1
 516 546 l 1
 514 548 l 1
510 546 m 1
 512 544 l 1
 510 546 l 1
486 542 m 1
 488 540 l 1
 486 542 l 1
480 538 m 1
 482 536 l 1
 480 538 l 1
476 536 m 1
 478 534 l 1
 476 536 l 1
504 536 m 1
 506 534 l 1
 504 536 l 1
468 534 m 1
 470 532 l 1
 468 534 l 1
462 528 m 1
 464 526 l 1
 462 528 l 1
530 524 m 1
 532 522 l 1
 530 524 l 1
526 522 m 1
 528 520 l 1
 526 522 l 1
502 520 m 1
 504 518 l 1
 502 520 l 1
520 520 m 1
 522 518 l 1
 520 520 l 1
516 518 m 1
 518 516 l 1
 516 518 l 1
496 512 m 1
 498 510 l 1
 496 512 l 1
462 510 m 1
 464 508 l 1
 462 510 l 1
492 510 m 1
 494 508 l 1
 492 510 l 1
476 508 m 1
 478 506 l 1
 476 508 l 1
486 508 m 1
 488 506 l 1
 486 508 l 1
514 498 m 1
 516 496 l 1
 514 498 l 1
468 492 m 1
 470 490 l 1
 468 492 l 1
528 492 m 1
 530 490 l 1
 528 492 l 1
462 490 m 1
 464 488 l 1
 462 490 l 1
480 490 m 1
 482 488 l 1
 480 490 l 1
506 484 m 1
 508 482 l 1
 506 484 l 1
496 482 m 1
 498 480 l 1
 496 482 l 1
520 480 m 1
 522 478 l 1
 520 480 l 1
462 470 m 1
 464 468 l 1
 462 470 l 1
486 470 m 1
 488 468 l 1
 486 470 l 1
476 468 m 1
 478 466 l 1
 476 468 l 1
502 464 m 1
 504 462 l 1
 502 464 l 1
514 464 m 1
 516 462 l 1
 514 464 l 1
526 462 m 1
 528 460 l 1
 526 462 l 1
458 454 m 1
 460 452 l 1
 458 454 l 1
470 452 m 1
 472 450 l 1
 470 452 l 1
496 452 m 1
 498 450 l 1
 496 452 l 1
490 450 m 1
 492 448 l 1
 490 450 l 1
482 448 m 1
 484 446 l 1
 482 448 l 1
514 446 m 1
 516 444 l 1
 514 446 l 1
528 442 m 1
 530 440 l 1
 528 442 l 1
460 434 m 1
 462 432 l 1
 460 434 l 1
470 434 m 1
 472 432 l 1
 470 434 l 1
512 432 m 1
 514 430 l 1
 512 432 l 1
454 428 m 1
 456 426 l 1
 454 428 l 1
484 428 m 1
 486 426 l 1
 484 428 l 1
504 426 m 1
 506 424 l 1
 504 426 l 1
498 424 m 1
 500 422 l 1
 498 424 l 1
526 424 m 1
 528 422 l 1
 526 424 l 1
480 414 m 1
 482 412 l 1
 480 414 l 1
476 412 m 1
 478 410 l 1
 476 412 l 1
470 410 m 1
 472 408 l 1
 470 410 l 1
466 408 m 1
 468 406 l 1
 466 408 l 1
494 408 m 1
 496 406 l 1
 494 408 l 1
522 408 m 1
 524 406 l 1
 522 408 l 1
460 406 m 1
 462 404 l 1
 460 406 l 1
456 404 m 1
 458 402 l 1
 456 404 l 1
512 402 m 1
 514 400 l 1
 512 402 l 1
506 392 m 1
 508 390 l 1
 506 392 l 1
500 388 m 1
 502 386 l 1
 500 388 l 1
454 386 m 1
 456 384 l 1
 454 386 l 1
496 386 m 1
 498 384 l 1
 496 386 l 1
524 384 m 1
 526 382 l 1
 524 384 l 1
488 380 m 1
 490 378 l 1
 488 380 l 1
484 378 m 1
 486 376 l 1
 484 378 l 1
468 376 m 1
 470 374 l 1
 468 376 l 1
478 376 m 1
 480 374 l 1
 478 376 l 1
452 368 m 1
 454 366 l 1
 452 368 l 1
462 368 m 1
 464 366 l 1
 462 368 l 1
520 368 m 1
 522 366 l 1
 520 368 l 1
514 362 m 1
 516 360 l 1
 514 362 l 1
508 358 m 1
 510 356 l 1
 508 358 l 1
480 352 m 1
 482 350 l 1
 480 352 l 1
500 352 m 1
 502 350 l 1
 500 352 l 1
494 350 m 1
 496 348 l 1
 494 350 l 1
452 348 m 1
 454 346 l 1
 452 348 l 1
472 348 m 1
 474 346 l 1
 472 348 l 1
464 346 m 1
 466 344 l 1
 464 346 l 1
522 334 m 1
 524 332 l 1
 522 334 l 1
452 332 m 1
 454 330 l 1
 452 332 l 1
492 332 m 1
 494 330 l 1
 492 332 l 1
518 332 m 1
 520 330 l 1
 518 332 l 1
510 328 m 1
 512 326 l 1
 510 328 l 1
466 326 m 1
 468 324 l 1
 466 326 l 1
484 326 m 1
 486 324 l 1
 484 326 l 1
478 324 m 1
 480 322 l 1
 478 324 l 1
450 318 m 1
 452 316 l 1
 450 318 l 1
506 318 m 1
 508 316 l 1
 506 318 l 1
466 310 m 1
 468 308 l 1
 466 310 l 1
500 306 m 1
 502 304 l 1
 500 306 l 1
458 302 m 1
 460 300 l 1
 458 302 l 1
480 302 m 1
 482 300 l 1
 480 302 l 1
494 302 m 1
 496 300 l 1
 494 302 l 1
520 302 m 1
 522 300 l 1
 520 302 l 1
450 300 m 1
 452 298 l 1
 450 300 l 1
516 292 m 1
 518 290 l 1
 516 292 l 1
476 290 m 1
 478 288 l 1
 476 290 l 1
444 288 m 1
 446 286 l 1
 444 288 l 1
492 284 m 1
 494 282 l 1
 492 284 l 1
470 282 m 1
 472 280 l 1
 470 282 l 1
506 282 m 1
 508 280 l 1
 506 282 l 1
466 280 m 1
 468 278 l 1
 466 280 l 1
462 278 m 1
 464 276 l 1
 462 278 l 1
456 272 m 1
 458 270 l 1
 456 272 l 1
520 270 m 1
 522 268 l 1
 520 270 l 1
450 268 m 1
 452 266 l 1
 450 268 l 1
488 268 m 1
 490 266 l 1
 488 268 l 1
500 266 m 1
 502 264 l 1
 500 266 l 1
514 266 m 1
 516 264 l 1
 514 266 l 1
442 260 m 1
 444 258 l 1
 442 260 l 1
482 252 m 1
 484 250 l 1
 482 252 l 1
478 250 m 1
 480 248 l 1
 478 250 l 1
496 250 m 1
 498 248 l 1
 496 250 l 1
512 250 m 1
 514 248 l 1
 512 250 l 1
472 248 m 1
 474 246 l 1
 472 248 l 1
466 246 m 1
 468 244 l 1
 466 246 l 1
456 244 m 1
 458 242 l 1
 456 244 l 1
450 242 m 1
 452 240 l 1
 450 242 l 1
446 240 m 1
 448 238 l 1
 446 240 l 1
510 236 m 1
 512 234 l 1
 510 236 l 1
506 234 m 1
 508 232 l 1
 506 234 l 1
500 230 m 1
 502 228 l 1
 500 230 l 1
440 226 m 1
 442 224 l 1
 440 226 l 1
492 222 m 1
 494 220 l 1
 492 222 l 1
486 220 m 1
 488 218 l 1
 486 220 l 1
470 218 m 1
 472 216 l 1
 470 218 l 1
480 218 m 1
 482 216 l 1
 480 218 l 1
464 216 m 1
 466 214 l 1
 464 216 l 1
456 214 m 1
 458 212 l 1
 456 214 l 1
450 210 m 1
 452 208 l 1
 450 210 l 1
444 208 m 1
 446 206 l 1
 444 208 l 1
514 206 m 1
 516 204 l 1
 514 206 l 1
510 204 m 1
 512 202 l 1
 510 204 l 1
502 194 m 1
 504 192 l 1
 502 194 l 1
486 192 m 1
 488 190 l 1
 486 192 l 1
498 192 m 1
 500 190 l 1
 498 192 l 1
480 190 m 1
 482 188 l 1
 480 190 l 1
444 188 m 1
 446 186 l 1
 444 188 l 1
474 188 m 1
 476 186 l 1
 474 188 l 1
468 186 m 1
 470 184 l 1
 468 186 l 1
460 184 m 1
 462 182 l 1
 460 184 l 1
438 174 m 1
 440 172 l 1
 438 174 l 1
452 172 m 1
 454 170 l 1
 452 172 l 1
516 172 m 1
 518 170 l 1
 516 172 l 1
512 170 m 1
 514 168 l 1
 512 170 l 1
506 168 m 1
 508 166 l 1
 506 168 l 1
502 166 m 1
 504 164 l 1
 502 166 l 1
498 164 m 1
 500 162 l 1
 498 164 l 1
466 162 m 1
 468 160 l 1
 466 162 l 1
492 160 m 1
 494 158 l 1
 492 160 l 1
478 158 m 1
 480 156 l 1
 478 158 l 1
488 158 m 1
 490 156 l 1
 488 158 l 1
446 156 m 1
 448 154 l 1
 446 156 l 1
460 156 m 1
 462 154 l 1
 460 156 l 1
444 142 m 1
 446 140 l 1
 444 142 l 1
458 140 m 1
 460 138 l 1
 458 140 l 1
476 138 m 1
 478 136 l 1
 476 138 l 1
472 136 m 1
 474 134 l 1
 472 136 l 1
488 136 m 1
 490 134 l 1
 488 136 l 1
510 132 m 1
 512 130 l 1
 510 132 l 1
504 130 m 1
 506 128 l 1
 504 130 l 1
444 124 m 1
 446 122 l 1
 444 124 l 1
454 124 m 1
 456 122 l 1
 454 124 l 1
468 122 m 1
 470 120 l 1
 468 122 l 1
496 116 m 1
 498 114 l 1
 496 116 l 1
490 114 m 1
 492 112 l 1
 490 114 l 1
486 112 m 1
 488 110 l 1
 486 112 l 1
512 108 m 1
 514 106 l 1
 512 108 l 1
444 106 m 1
 446 104 l 1
 444 106 l 1
464 106 m 1
 466 104 l 1
 464 106 l 1
456 104 m 1
 458 102 l 1
 456 104 l 1
478 104 m 1
 480 102 l 1
 478 104 l 1
508 90 m 1
 510 88 l 1
 508 90 l 1
444 88 m 1
 446 86 l 1
 444 88 l 1
502 88 m 1
 504 86 l 1
 502 88 l 1
456 86 m 1
 458 84 l 1
 456 86 l 1
478 86 m 1
 480 84 l 1
 478 86 l 1
490 86 m 1
 492 84 l 1
 490 86 l 1
472 84 m 1
 474 82 l 1
 472 84 l 1
444 72 m 1
 446 70 l 1
 444 72 l 1
466 70 m 1
 468 68 l 1
 466 70 l 1
458 68 m 1
 460 66 l 1
 458 68 l 1
502 68 m 1
 504 66 l 1
 502 68 l 1
496 66 m 1
 498 64 l 1
 496 66 l 1
492 64 m 1
 494 62 l 1
 492 64 l 1
486 62 m 1
 488 60 l 1
 486 62 l 1
482 60 m 1
 484 58 l 1
 482 60 l 1
446 54 m 1
 448 52 l 1
 446 54 l 1
458 52 m 1
 460 50 l 1
 458 52 l 1
474 48 m 1
 476 46 l 1
 474 48 l 1
516 42 m 1
 518 40 l 1
 516 42 l 1
446 38 m 1
 448 36 l 1
 446 38 l 1
464 34 m 1
 466 32 l 1
 464 34 l 1
488 34 m 1
 490 32 l 1
 488 34 l 1
506 34 m 1
 508 32 l 1
 506 34 l 1
460 32 m 1
 462 30 l 1
 460 32 l 1
484 32 m 1
 486 30 l 1
 484 32 l 1
500 32 m 1
 502 30 l 1
 500 32 l 1
478 30 m 1
 480 28 l 1
 478 30 l 1
448 20 m 1
 450 18 l 1
 448 20 l 1
462 12 m 1
 464 10 l 1
 462 12 l 1
476 10 m 1
 478 8 l 1
 476 10 l 1
504 8 m 1
 506 6 l 1
 504 8 l 1
494 6 m 1
 496 4 l 1
 494 6 l 1
490 4 m 1
 492 2 l 1
 490 4 l 1
450 2 m 1
 452 0 l 1
 450 2 l 1
466 -4 m 1
 468 -6 l 1
 466 -4 l 1
480 -8 m 1
 482 -10 l 1
 480 -8 l 1
EndSplineSet
EndChar

StartChar: V
Encoding: 86 86 73
Width: 1000
VWidth: 0
Flags: HW
LayerCount: 2
Back
Fore
SplineSet
488 182 m 1
 520 254 533 338 555 414 c 0
 568 459 582 503 597 548 c 0
 608 581 619 612 632 644 c 0
 638 659 642 678 654 690 c 0
 680 716 728 699 732 662 c 0
 734 643 723 623 716 606 c 0
 703 572 693 538 683 504 c 0
 647 380 620 251 577 129 c 0
 564 93 552 55 532 22 c 0
 521 5 508 -10 486 -10 c 0
 418 -12 411 91 397 140 c 0
 368 244 343 351 305 452 c 0
 293 484 278 515 262 546 c 0
 251 567 236 591 234 616 c 0
 230 654 275 681 306 657 c 0
 320 646 323 629 330 614 c 0
 345 584 362 555 376 524 c 0
 395 483 408 441 422 398 c 0
 445 327 459 250 488 182 c 1
680 680 m 1
 682 678 l 1
 680 680 l 1
676 678 m 1
 678 676 l 1
 676 678 l 1
696 674 m 1
 698 672 l 1
 696 674 l 1
670 672 m 1
 672 670 l 1
 670 672 l 1
712 668 m 1
 714 666 l 1
 712 668 l 1
664 662 m 1
 666 660 l 1
 664 662 l 1
706 658 m 1
 708 656 l 1
 706 658 l 1
694 656 m 1
 696 654 l 1
 694 656 l 1
690 654 m 1
 692 652 l 1
 690 654 l 1
724 652 m 1
 726 650 l 1
 724 652 l 1
682 650 m 1
 684 648 l 1
 682 650 l 1
662 646 m 1
 664 644 l 1
 662 646 l 1
676 646 m 1
 678 644 l 1
 676 646 l 1
282 642 m 1
 284 640 l 1
 282 642 l 1
292 642 m 1
 294 640 l 1
 292 642 l 1
278 640 m 1
 280 638 l 1
 278 640 l 1
716 640 m 1
 718 638 l 1
 716 640 l 1
656 636 m 1
 658 634 l 1
 656 636 l 1
710 636 m 1
 712 634 l 1
 710 636 l 1
270 634 m 1
 272 632 l 1
 270 634 l 1
262 632 m 1
 264 630 l 1
 262 632 l 1
306 632 m 1
 308 630 l 1
 306 632 l 1
672 628 m 1
 674 626 l 1
 672 628 l 1
700 628 m 1
 702 626 l 1
 700 628 l 1
696 626 m 1
 698 624 l 1
 696 626 l 1
256 624 m 1
 258 622 l 1
 256 624 l 1
652 624 m 1
 654 622 l 1
 652 624 l 1
686 624 m 1
 688 622 l 1
 686 624 l 1
296 618 m 1
 298 616 l 1
 296 618 l 1
292 616 m 1
 294 614 l 1
 292 616 l 1
288 614 m 1
 290 612 l 1
 288 614 l 1
308 614 m 1
 310 612 l 1
 308 614 l 1
318 614 m 1
 320 612 l 1
 318 614 l 1
668 614 m 1
 670 612 l 1
 668 614 l 1
252 612 m 1
 254 610 l 1
 252 612 l 1
282 612 m 1
 284 610 l 1
 282 612 l 1
646 612 m 1
 648 610 l 1
 646 612 l 1
278 610 m 1
 280 608 l 1
 278 610 l 1
682 610 m 1
 684 608 l 1
 682 610 l 1
274 608 m 1
 276 606 l 1
 274 608 l 1
270 606 m 1
 272 604 l 1
 270 606 l 1
662 606 m 1
 664 604 l 1
 662 606 l 1
708 604 m 1
 710 602 l 1
 708 604 l 1
640 602 m 1
 642 600 l 1
 640 602 l 1
698 602 m 1
 700 600 l 1
 698 602 l 1
262 596 m 1
 264 594 l 1
 262 596 l 1
256 594 m 1
 258 592 l 1
 256 594 l 1
658 594 m 1
 660 592 l 1
 658 594 l 1
318 592 m 1
 320 590 l 1
 318 592 l 1
634 592 m 1
 636 590 l 1
 634 592 l 1
678 592 m 1
 680 590 l 1
 678 592 l 1
688 592 m 1
 690 590 l 1
 688 592 l 1
314 590 m 1
 316 588 l 1
 314 590 l 1
330 590 m 1
 332 588 l 1
 330 590 l 1
306 584 m 1
 308 582 l 1
 306 584 l 1
652 584 m 1
 654 582 l 1
 652 584 l 1
702 582 m 1
 704 580 l 1
 702 582 l 1
300 580 m 1
 302 578 l 1
 300 580 l 1
672 580 m 1
 674 578 l 1
 672 580 l 1
278 578 m 1
 280 576 l 1
 278 578 l 1
288 578 m 1
 290 576 l 1
 288 578 l 1
628 576 m 1
 630 574 l 1
 628 576 l 1
644 576 m 1
 646 574 l 1
 644 576 l 1
624 574 m 1
 626 572 l 1
 624 574 l 1
640 574 m 1
 642 572 l 1
 640 574 l 1
264 572 m 1
 266 570 l 1
 264 572 l 1
690 572 m 1
 692 570 l 1
 690 572 l 1
666 570 m 1
 668 568 l 1
 666 570 l 1
332 568 m 1
 334 566 l 1
 332 568 l 1
618 568 m 1
 620 566 l 1
 618 568 l 1
328 566 m 1
 330 564 l 1
 328 566 l 1
324 564 m 1
 326 562 l 1
 324 564 l 1
684 564 m 1
 686 562 l 1
 684 564 l 1
278 562 m 1
 280 560 l 1
 278 562 l 1
300 560 m 1
 302 558 l 1
 300 560 l 1
318 560 m 1
 320 558 l 1
 318 560 l 1
346 560 m 1
 348 558 l 1
 346 560 l 1
294 558 m 1
 296 556 l 1
 294 558 l 1
314 558 m 1
 316 556 l 1
 314 558 l 1
660 558 m 1
 662 556 l 1
 660 558 l 1
268 554 m 1
 270 552 l 1
 268 554 l 1
678 554 m 1
 680 552 l 1
 678 554 l 1
642 550 m 1
 644 548 l 1
 642 550 l 1
652 550 m 1
 654 548 l 1
 652 550 l 1
620 548 m 1
 622 546 l 1
 620 548 l 1
636 548 m 1
 638 546 l 1
 636 548 l 1
288 546 m 1
 290 544 l 1
 288 546 l 1
632 546 m 1
 634 544 l 1
 632 546 l 1
674 544 m 1
 676 542 l 1
 674 544 l 1
282 538 m 1
 284 536 l 1
 282 538 l 1
312 538 m 1
 314 536 l 1
 312 538 l 1
346 538 m 1
 348 536 l 1
 346 538 l 1
356 538 m 1
 358 536 l 1
 356 538 l 1
308 536 m 1
 310 534 l 1
 308 536 l 1
342 536 m 1
 344 534 l 1
 342 536 l 1
616 536 m 1
 618 534 l 1
 616 536 l 1
668 536 m 1
 670 534 l 1
 668 536 l 1
304 534 m 1
 306 532 l 1
 304 534 l 1
338 534 m 1
 340 532 l 1
 338 534 l 1
328 532 m 1
 330 530 l 1
 328 532 l 1
662 528 m 1
 664 526 l 1
 662 528 l 1
632 526 m 1
 634 524 l 1
 632 526 l 1
298 524 m 1
 300 522 l 1
 298 524 l 1
656 524 m 1
 658 522 l 1
 656 524 l 1
612 522 m 1
 614 520 l 1
 612 522 l 1
652 522 m 1
 654 520 l 1
 652 522 l 1
648 520 m 1
 650 518 l 1
 648 520 l 1
292 518 m 1
 294 516 l 1
 292 518 l 1
626 518 m 1
 628 516 l 1
 626 518 l 1
328 514 m 1
 330 512 l 1
 328 514 l 1
366 514 m 1
 368 512 l 1
 366 514 l 1
606 514 m 1
 608 512 l 1
 606 514 l 1
680 514 m 1
 682 512 l 1
 680 514 l 1
322 510 m 1
 324 508 l 1
 322 510 l 1
342 510 m 1
 344 508 l 1
 342 510 l 1
360 510 m 1
 362 508 l 1
 360 510 l 1
318 508 m 1
 320 506 l 1
 318 508 l 1
356 508 m 1
 358 506 l 1
 356 508 l 1
644 506 m 1
 646 504 l 1
 644 506 l 1
312 504 m 1
 314 502 l 1
 312 504 l 1
600 502 m 1
 602 500 l 1
 600 502 l 1
622 500 m 1
 624 498 l 1
 622 500 l 1
634 500 m 1
 636 498 l 1
 634 500 l 1
676 500 m 1
 678 498 l 1
 676 500 l 1
298 498 m 1
 300 496 l 1
 298 498 l 1
670 496 m 1
 672 494 l 1
 670 496 l 1
616 494 m 1
 618 492 l 1
 616 494 l 1
666 494 m 1
 668 492 l 1
 666 494 l 1
348 492 m 1
 350 490 l 1
 348 492 l 1
660 492 m 1
 662 490 l 1
 660 492 l 1
344 490 m 1
 346 488 l 1
 344 490 l 1
378 488 m 1
 380 486 l 1
 378 488 l 1
654 488 m 1
 656 486 l 1
 654 488 l 1
312 486 m 1
 314 484 l 1
 312 486 l 1
374 486 m 1
 376 484 l 1
 374 486 l 1
650 486 m 1
 652 484 l 1
 650 486 l 1
338 484 m 1
 340 482 l 1
 338 484 l 1
364 484 m 1
 366 482 l 1
 364 484 l 1
604 484 m 1
 606 482 l 1
 604 484 l 1
334 482 m 1
 336 480 l 1
 334 482 l 1
644 482 m 1
 646 480 l 1
 644 482 l 1
328 480 m 1
 330 478 l 1
 328 480 l 1
636 480 m 1
 638 478 l 1
 636 480 l 1
632 478 m 1
 634 476 l 1
 632 478 l 1
618 476 m 1
 620 474 l 1
 618 476 l 1
600 474 m 1
 602 472 l 1
 600 474 l 1
310 472 m 1
 312 470 l 1
 310 472 l 1
324 468 m 1
 326 466 l 1
 324 468 l 1
362 466 m 1
 364 464 l 1
 362 466 l 1
374 464 m 1
 376 462 l 1
 374 464 l 1
388 460 m 1
 390 458 l 1
 388 460 l 1
596 460 m 1
 598 458 l 1
 596 460 l 1
614 460 m 1
 616 458 l 1
 614 460 l 1
626 460 m 1
 628 458 l 1
 626 460 l 1
354 458 m 1
 356 456 l 1
 354 458 l 1
640 456 m 1
 642 454 l 1
 640 456 l 1
662 456 m 1
 664 454 l 1
 662 456 l 1
346 454 m 1
 348 452 l 1
 346 454 l 1
654 454 m 1
 656 452 l 1
 654 454 l 1
340 452 m 1
 342 450 l 1
 340 452 l 1
322 450 m 1
 324 448 l 1
 322 450 l 1
334 450 m 1
 336 448 l 1
 334 450 l 1
590 450 m 1
 592 448 l 1
 590 450 l 1
610 448 m 1
 612 446 l 1
 610 448 l 1
372 446 m 1
 374 444 l 1
 372 446 l 1
384 446 m 1
 386 444 l 1
 384 446 l 1
630 442 m 1
 632 440 l 1
 630 442 l 1
626 440 m 1
 628 438 l 1
 626 440 l 1
400 438 m 1
 402 436 l 1
 400 438 l 1
644 438 m 1
 646 436 l 1
 644 438 l 1
366 436 m 1
 368 434 l 1
 366 436 l 1
588 436 m 1
 590 434 l 1
 588 436 l 1
604 436 m 1
 606 434 l 1
 604 436 l 1
656 436 m 1
 658 434 l 1
 656 436 l 1
330 432 m 1
 332 430 l 1
 330 432 l 1
620 430 m 1
 622 428 l 1
 620 430 l 1
360 428 m 1
 362 426 l 1
 360 428 l 1
390 428 m 1
 392 426 l 1
 390 428 l 1
356 426 m 1
 358 424 l 1
 356 426 l 1
382 426 m 1
 384 424 l 1
 382 426 l 1
346 424 m 1
 348 422 l 1
 346 424 l 1
582 424 m 1
 584 422 l 1
 582 424 l 1
328 420 m 1
 330 418 l 1
 328 420 l 1
598 420 m 1
 600 418 l 1
 598 420 l 1
610 420 m 1
 612 418 l 1
 610 420 l 1
646 420 m 1
 648 418 l 1
 646 420 l 1
406 418 m 1
 408 416 l 1
 406 418 l 1
642 418 m 1
 644 416 l 1
 642 418 l 1
576 416 m 1
 578 414 l 1
 576 416 l 1
638 416 m 1
 640 414 l 1
 638 416 l 1
634 414 m 1
 636 412 l 1
 634 414 l 1
378 412 m 1
 380 410 l 1
 378 412 l 1
628 412 m 1
 630 410 l 1
 628 412 l 1
344 410 m 1
 346 408 l 1
 344 410 l 1
624 410 m 1
 626 408 l 1
 624 410 l 1
396 406 m 1
 398 404 l 1
 396 406 l 1
594 406 m 1
 596 404 l 1
 594 406 l 1
338 402 m 1
 340 400 l 1
 338 402 l 1
360 402 m 1
 362 400 l 1
 360 402 l 1
370 402 m 1
 372 400 l 1
 370 402 l 1
572 402 m 1
 574 400 l 1
 572 402 l 1
610 402 m 1
 612 400 l 1
 610 402 l 1
410 398 m 1
 412 396 l 1
 410 398 l 1
588 398 m 1
 590 396 l 1
 588 398 l 1
388 396 m 1
 390 394 l 1
 388 396 l 1
624 392 m 1
 626 390 l 1
 624 392 l 1
356 390 m 1
 358 388 l 1
 356 390 l 1
404 388 m 1
 406 386 l 1
 404 388 l 1
568 388 m 1
 570 386 l 1
 568 388 l 1
606 388 m 1
 608 386 l 1
 606 388 l 1
582 386 m 1
 584 384 l 1
 582 386 l 1
348 384 m 1
 350 382 l 1
 348 384 l 1
380 384 m 1
 382 382 l 1
 380 384 l 1
344 382 m 1
 346 380 l 1
 344 382 l 1
376 382 m 1
 378 380 l 1
 376 382 l 1
642 382 m 1
 644 380 l 1
 642 382 l 1
372 380 m 1
 374 378 l 1
 372 380 l 1
396 380 m 1
 398 378 l 1
 396 380 l 1
600 380 m 1
 602 378 l 1
 600 380 l 1
620 380 m 1
 622 378 l 1
 620 380 l 1
638 380 m 1
 640 378 l 1
 638 380 l 1
564 376 m 1
 566 374 l 1
 564 376 l 1
418 372 m 1
 420 370 l 1
 418 372 l 1
580 370 m 1
 582 368 l 1
 580 370 l 1
594 370 m 1
 596 368 l 1
 594 370 l 1
366 368 m 1
 368 366 l 1
 366 368 l 1
412 366 m 1
 414 364 l 1
 412 366 l 1
616 366 m 1
 618 364 l 1
 616 366 l 1
634 366 m 1
 636 364 l 1
 634 366 l 1
408 364 m 1
 410 362 l 1
 408 364 l 1
398 362 m 1
 400 360 l 1
 398 362 l 1
350 360 m 1
 352 358 l 1
 350 360 l 1
394 360 m 1
 396 358 l 1
 394 360 l 1
362 358 m 1
 364 356 l 1
 362 358 l 1
562 358 m 1
 564 356 l 1
 562 358 l 1
572 358 m 1
 574 356 l 1
 572 358 l 1
610 358 m 1
 612 356 l 1
 610 358 l 1
384 354 m 1
 386 352 l 1
 384 354 l 1
590 354 m 1
 592 352 l 1
 590 354 l 1
630 354 m 1
 632 352 l 1
 630 354 l 1
604 352 m 1
 606 350 l 1
 604 352 l 1
378 346 m 1
 380 344 l 1
 378 346 l 1
558 344 m 1
 560 342 l 1
 558 344 l 1
586 344 m 1
 588 342 l 1
 586 344 l 1
356 342 m 1
 358 340 l 1
 356 342 l 1
426 340 m 1
 428 338 l 1
 426 340 l 1
626 340 m 1
 628 338 l 1
 626 340 l 1
372 338 m 1
 374 336 l 1
 372 338 l 1
412 338 m 1
 414 336 l 1
 412 338 l 1
574 338 m 1
 576 336 l 1
 574 338 l 1
398 336 m 1
 400 334 l 1
 398 336 l 1
408 336 m 1
 410 334 l 1
 408 336 l 1
554 334 m 1
 556 332 l 1
 554 334 l 1
602 334 m 1
 604 332 l 1
 602 334 l 1
618 334 m 1
 620 332 l 1
 618 334 l 1
392 328 m 1
 394 326 l 1
 392 328 l 1
364 326 m 1
 366 324 l 1
 364 326 l 1
590 326 m 1
 592 324 l 1
 590 326 l 1
360 324 m 1
 362 322 l 1
 360 324 l 1
570 324 m 1
 572 322 l 1
 570 324 l 1
586 324 m 1
 588 322 l 1
 586 324 l 1
386 322 m 1
 388 320 l 1
 386 322 l 1
430 322 m 1
 432 320 l 1
 430 322 l 1
382 320 m 1
 384 318 l 1
 382 320 l 1
550 320 m 1
 552 318 l 1
 550 320 l 1
614 320 m 1
 616 318 l 1
 614 320 l 1
610 318 m 1
 612 316 l 1
 610 318 l 1
606 316 m 1
 608 314 l 1
 606 316 l 1
422 314 m 1
 424 312 l 1
 422 314 l 1
410 312 m 1
 412 310 l 1
 410 312 l 1
564 312 m 1
 566 310 l 1
 564 312 l 1
580 308 m 1
 582 306 l 1
 580 308 l 1
378 306 m 1
 380 304 l 1
 378 306 l 1
442 306 m 1
 444 304 l 1
 442 306 l 1
548 306 m 1
 550 304 l 1
 548 306 l 1
374 304 m 1
 376 302 l 1
 374 304 l 1
600 304 m 1
 602 302 l 1
 600 304 l 1
368 302 m 1
 370 300 l 1
 368 302 l 1
404 302 m 1
 406 300 l 1
 404 302 l 1
594 302 m 1
 596 300 l 1
 594 302 l 1
436 300 m 1
 438 298 l 1
 436 300 l 1
398 296 m 1
 400 294 l 1
 398 296 l 1
428 296 m 1
 430 294 l 1
 428 296 l 1
562 296 m 1
 564 294 l 1
 562 296 l 1
574 296 m 1
 576 294 l 1
 574 296 l 1
422 294 m 1
 424 292 l 1
 422 294 l 1
542 294 m 1
 544 292 l 1
 542 294 l 1
590 288 m 1
 592 286 l 1
 590 288 l 1
558 286 m 1
 560 284 l 1
 558 286 l 1
616 286 m 1
 618 284 l 1
 616 286 l 1
394 284 m 1
 396 282 l 1
 394 284 l 1
416 282 m 1
 418 280 l 1
 416 282 l 1
610 280 m 1
 612 278 l 1
 610 280 l 1
374 278 m 1
 376 276 l 1
 374 278 l 1
386 278 m 1
 388 276 l 1
 386 278 l 1
540 278 m 1
 542 276 l 1
 540 278 l 1
582 278 m 1
 584 276 l 1
 582 278 l 1
552 276 m 1
 554 274 l 1
 552 276 l 1
576 276 m 1
 578 274 l 1
 576 276 l 1
410 274 m 1
 412 272 l 1
 410 274 l 1
446 274 m 1
 448 272 l 1
 446 274 l 1
604 274 m 1
 606 272 l 1
 604 274 l 1
440 272 m 1
 442 270 l 1
 440 272 l 1
434 270 m 1
 436 268 l 1
 434 270 l 1
430 268 m 1
 432 266 l 1
 430 268 l 1
570 268 m 1
 572 266 l 1
 570 268 l 1
598 268 m 1
 600 266 l 1
 598 268 l 1
534 266 m 1
 536 264 l 1
 534 266 l 1
402 262 m 1
 404 260 l 1
 402 262 l 1
380 260 m 1
 382 258 l 1
 380 260 l 1
398 260 m 1
 400 258 l 1
 398 260 l 1
392 258 m 1
 394 256 l 1
 392 258 l 1
550 258 m 1
 552 256 l 1
 550 258 l 1
562 258 m 1
 564 256 l 1
 562 258 l 1
420 256 m 1
 422 254 l 1
 420 256 l 1
528 254 m 1
 530 252 l 1
 528 254 l 1
594 254 m 1
 596 252 l 1
 594 254 l 1
590 252 m 1
 592 250 l 1
 590 252 l 1
544 250 m 1
 546 248 l 1
 544 250 l 1
584 250 m 1
 586 248 l 1
 584 250 l 1
580 248 m 1
 582 246 l 1
 580 248 l 1
434 246 m 1
 436 244 l 1
 434 246 l 1
456 244 m 1
 458 242 l 1
 456 244 l 1
386 242 m 1
 388 240 l 1
 386 242 l 1
450 242 m 1
 452 240 l 1
 450 242 l 1
574 242 m 1
 576 240 l 1
 574 242 l 1
418 240 m 1
 420 238 l 1
 418 240 l 1
570 240 m 1
 572 238 l 1
 570 240 l 1
526 238 m 1
 528 236 l 1
 526 238 l 1
538 238 m 1
 540 236 l 1
 538 238 l 1
564 238 m 1
 566 236 l 1
 564 238 l 1
560 236 m 1
 562 234 l 1
 560 236 l 1
408 234 m 1
 410 232 l 1
 408 234 l 1
402 232 m 1
 404 230 l 1
 402 232 l 1
430 232 m 1
 432 230 l 1
 430 232 l 1
444 230 m 1
 446 228 l 1
 444 230 l 1
554 230 m 1
 556 228 l 1
 554 230 l 1
394 226 m 1
 396 224 l 1
 394 226 l 1
388 224 m 1
 390 222 l 1
 388 224 l 1
524 222 m 1
 526 220 l 1
 524 222 l 1
538 220 m 1
 540 218 l 1
 538 220 l 1
424 218 m 1
 426 216 l 1
 424 218 l 1
462 218 m 1
 464 216 l 1
 462 218 l 1
550 218 m 1
 552 216 l 1
 550 218 l 1
598 218 m 1
 600 216 l 1
 598 218 l 1
458 216 m 1
 460 214 l 1
 458 216 l 1
438 214 m 1
 440 212 l 1
 438 214 l 1
592 214 m 1
 594 212 l 1
 592 214 l 1
452 212 m 1
 454 210 l 1
 452 212 l 1
586 210 m 1
 588 208 l 1
 586 210 l 1
416 208 m 1
 418 206 l 1
 416 208 l 1
522 208 m 1
 524 206 l 1
 522 208 l 1
576 208 m 1
 578 206 l 1
 576 208 l 1
412 206 m 1
 414 204 l 1
 412 206 l 1
568 206 m 1
 570 204 l 1
 568 206 l 1
536 204 m 1
 538 202 l 1
 536 204 l 1
406 202 m 1
 408 200 l 1
 406 202 l 1
400 200 m 1
 402 198 l 1
 400 200 l 1
434 200 m 1
 436 198 l 1
 434 200 l 1
552 200 m 1
 554 198 l 1
 552 200 l 1
562 200 m 1
 564 198 l 1
 562 200 l 1
396 198 m 1
 398 196 l 1
 396 198 l 1
450 196 m 1
 452 194 l 1
 450 196 l 1
516 196 m 1
 518 194 l 1
 516 196 l 1
470 190 m 1
 472 188 l 1
 470 190 l 1
510 190 m 1
 512 188 l 1
 510 190 l 1
532 190 m 1
 534 188 l 1
 532 190 l 1
466 188 m 1
 468 186 l 1
 466 188 l 1
548 188 m 1
 550 186 l 1
 548 188 l 1
432 184 m 1
 434 182 l 1
 432 184 l 1
444 184 m 1
 446 182 l 1
 444 184 l 1
586 184 m 1
 588 182 l 1
 586 184 l 1
582 182 m 1
 584 180 l 1
 582 182 l 1
488 180 m 1
 490 178 l 1
 488 180 l 1
578 180 m 1
 580 178 l 1
 578 180 l 1
460 178 m 1
 462 176 l 1
 460 178 l 1
568 178 m 1
 570 176 l 1
 568 178 l 1
426 176 m 1
 428 174 l 1
 426 176 l 1
528 176 m 1
 530 174 l 1
 528 176 l 1
564 176 m 1
 566 174 l 1
 564 176 l 1
404 174 m 1
 406 172 l 1
 404 174 l 1
422 174 m 1
 424 172 l 1
 422 174 l 1
542 174 m 1
 544 172 l 1
 542 174 l 1
418 172 m 1
 420 170 l 1
 418 172 l 1
510 172 m 1
 512 170 l 1
 510 172 l 1
558 172 m 1
 560 170 l 1
 558 172 l 1
522 170 m 1
 524 168 l 1
 522 170 l 1
452 166 m 1
 454 164 l 1
 452 166 l 1
482 166 m 1
 484 164 l 1
 482 166 l 1
446 164 m 1
 448 162 l 1
 446 164 l 1
478 164 m 1
 480 162 l 1
 478 164 l 1
470 160 m 1
 472 158 l 1
 470 160 l 1
502 160 m 1
 504 158 l 1
 502 160 l 1
552 158 m 1
 554 156 l 1
 552 158 l 1
408 156 m 1
 410 154 l 1
 408 156 l 1
542 156 m 1
 544 154 l 1
 542 156 l 1
516 154 m 1
 518 152 l 1
 516 154 l 1
536 152 m 1
 538 150 l 1
 536 152 l 1
420 150 m 1
 422 148 l 1
 420 150 l 1
440 150 m 1
 442 148 l 1
 440 150 l 1
532 150 m 1
 534 148 l 1
 532 150 l 1
436 148 m 1
 438 146 l 1
 436 148 l 1
498 148 m 1
 500 146 l 1
 498 148 l 1
568 148 m 1
 570 146 l 1
 568 148 l 1
578 148 m 1
 580 146 l 1
 578 148 l 1
464 146 m 1
 466 144 l 1
 464 146 l 1
458 142 m 1
 460 140 l 1
 458 142 l 1
480 140 m 1
 482 138 l 1
 480 140 l 1
492 140 m 1
 494 138 l 1
 492 140 l 1
414 138 m 1
 416 136 l 1
 414 138 l 1
514 138 m 1
 516 136 l 1
 514 138 l 1
526 138 m 1
 528 136 l 1
 526 138 l 1
562 138 m 1
 564 136 l 1
 562 138 l 1
432 134 m 1
 434 132 l 1
 432 134 l 1
454 130 m 1
 456 128 l 1
 454 130 l 1
556 130 m 1
 558 128 l 1
 556 130 l 1
552 128 m 1
 554 126 l 1
 552 128 l 1
448 126 m 1
 450 124 l 1
 448 126 l 1
510 126 m 1
 512 124 l 1
 510 126 l 1
548 126 m 1
 550 124 l 1
 548 126 l 1
476 124 m 1
 478 122 l 1
 476 124 l 1
542 124 m 1
 544 122 l 1
 542 124 l 1
424 122 m 1
 426 120 l 1
 424 122 l 1
490 122 m 1
 492 120 l 1
 490 122 l 1
504 122 m 1
 506 120 l 1
 504 122 l 1
420 120 m 1
 422 118 l 1
 420 120 l 1
534 120 m 1
 536 118 l 1
 534 120 l 1
526 118 m 1
 528 116 l 1
 526 118 l 1
440 116 m 1
 442 114 l 1
 440 116 l 1
470 116 m 1
 472 114 l 1
 470 116 l 1
464 106 m 1
 466 104 l 1
 464 106 l 1
500 106 m 1
 502 104 l 1
 500 106 l 1
458 104 m 1
 460 102 l 1
 458 104 l 1
488 104 m 1
 490 102 l 1
 488 104 l 1
420 102 m 1
 422 100 l 1
 420 102 l 1
454 102 m 1
 456 100 l 1
 454 102 l 1
518 102 m 1
 520 100 l 1
 518 102 l 1
434 100 m 1
 436 98 l 1
 434 100 l 1
450 100 m 1
 452 98 l 1
 450 100 l 1
446 98 m 1
 448 96 l 1
 446 98 l 1
530 98 m 1
 532 96 l 1
 530 98 l 1
482 96 m 1
 484 94 l 1
 482 96 l 1
544 96 m 1
 546 94 l 1
 544 96 l 1
554 96 m 1
 556 94 l 1
 554 96 l 1
514 92 m 1
 516 90 l 1
 514 92 l 1
510 90 m 1
 512 88 l 1
 510 90 l 1
506 88 m 1
 508 86 l 1
 506 88 l 1
500 86 m 1
 502 84 l 1
 500 86 l 1
430 82 m 1
 432 80 l 1
 430 82 l 1
442 80 m 1
 444 78 l 1
 442 80 l 1
536 80 m 1
 538 78 l 1
 536 80 l 1
478 78 m 1
 480 76 l 1
 478 78 l 1
490 78 m 1
 492 76 l 1
 490 78 l 1
548 76 m 1
 550 74 l 1
 548 76 l 1
470 72 m 1
 472 70 l 1
 470 72 l 1
458 70 m 1
 460 68 l 1
 458 70 l 1
530 70 m 1
 532 68 l 1
 530 70 l 1
432 64 m 1
 434 62 l 1
 432 64 l 1
452 64 m 1
 454 62 l 1
 452 64 l 1
444 62 m 1
 446 60 l 1
 444 62 l 1
502 62 m 1
 504 60 l 1
 502 62 l 1
494 60 m 1
 496 58 l 1
 494 60 l 1
514 60 m 1
 516 58 l 1
 514 60 l 1
488 58 m 1
 490 56 l 1
 488 58 l 1
526 58 m 1
 528 56 l 1
 526 58 l 1
544 56 m 1
 546 54 l 1
 544 56 l 1
480 54 m 1
 482 52 l 1
 480 54 l 1
474 52 m 1
 476 50 l 1
 474 52 l 1
438 44 m 1
 440 42 l 1
 438 44 l 1
466 44 m 1
 468 42 l 1
 466 44 l 1
450 40 m 1
 452 38 l 1
 450 40 l 1
460 40 m 1
 462 38 l 1
 460 40 l 1
518 40 m 1
 520 38 l 1
 518 40 l 1
534 40 m 1
 536 38 l 1
 534 40 l 1
514 38 m 1
 516 36 l 1
 514 38 l 1
530 38 m 1
 532 36 l 1
 530 38 l 1
510 36 m 1
 512 34 l 1
 510 36 l 1
502 32 m 1
 504 30 l 1
 502 32 l 1
496 30 m 1
 498 28 l 1
 496 30 l 1
488 28 m 1
 490 26 l 1
 488 28 l 1
484 26 m 1
 486 24 l 1
 484 26 l 1
446 22 m 1
 448 20 l 1
 446 22 l 1
478 20 m 1
 480 18 l 1
 478 20 l 1
460 18 m 1
 462 16 l 1
 460 18 l 1
474 18 m 1
 476 16 l 1
 474 18 l 1
514 4 m 1
 516 2 l 1
 514 4 l 1
460 2 m 1
 462 0 l 1
 460 2 l 1
472 2 m 1
 474 0 l 1
 472 2 l 1
508 2 m 1
 510 0 l 1
 508 2 l 1
504 0 m 1
 506 -2 l 1
 504 0 l 1
500 -2 m 1
 502 -4 l 1
 500 -2 l 1
494 -4 m 1
 496 -6 l 1
 494 -4 l 1
490 -6 m 1
 492 -8 l 1
 490 -6 l 1
EndSplineSet
EndChar

StartChar: five
Encoding: 53 53 74
Width: 1000
VWidth: 0
Flags: HW
LayerCount: 2
Back
Fore
SplineSet
410 450 m 1
 433 460 458 460 482 460 c 0
 569 460 681 414 701 321 c 0
 723 218 657 91 574 34 c 0
 497 -19 423 1 350 50 c 0
 320 70 268 97 293 140 c 0
 305 161 332 169 354 158 c 0
 390 140 424 103 464 97 c 0
 489 93 515 109 532 126 c 0
 567 159 590 203 600 250 c 0
 604 267 607 287 601 304 c 0
 595 320 579 331 564 339 c 0
 529 357 478 371 440 357 c 0
 411 346 397 317 362 326 c 0
 331 334 323 362 319 391 c 0
 310 451 315 512 316 572 c 0
 316 594 306 623 312 644 c 0
 322 679 360 681 390 685 c 0
 465 694 539 700 614 696 c 0
 644 695 685 702 701 668 c 0
 714 639 694 606 663 602 c 0
 580 591 492 594 408 594 c 1
 410 450 l 1
522 674 m 1
 524 672 l 1
 522 674 l 1
534 672 m 1
 536 670 l 1
 534 672 l 1
652 672 m 1
 654 670 l 1
 652 672 l 1
516 670 m 1
 518 668 l 1
 516 670 l 1
664 670 m 1
 666 668 l 1
 664 670 l 1
512 668 m 1
 514 666 l 1
 512 668 l 1
422 666 m 1
 424 664 l 1
 422 666 l 1
436 666 m 1
 438 664 l 1
 436 666 l 1
480 666 m 1
 482 664 l 1
 480 666 l 1
492 666 m 1
 494 664 l 1
 492 666 l 1
504 666 m 1
 506 664 l 1
 504 666 l 1
572 666 m 1
 574 664 l 1
 572 666 l 1
588 666 m 1
 590 664 l 1
 588 666 l 1
604 666 m 1
 606 664 l 1
 604 666 l 1
644 666 m 1
 646 664 l 1
 644 666 l 1
416 664 m 1
 418 662 l 1
 416 664 l 1
448 664 m 1
 450 662 l 1
 448 664 l 1
462 664 m 1
 464 662 l 1
 462 664 l 1
474 664 m 1
 476 662 l 1
 474 664 l 1
550 664 m 1
 552 662 l 1
 550 664 l 1
560 664 m 1
 562 662 l 1
 560 664 l 1
584 664 m 1
 586 662 l 1
 584 664 l 1
600 664 m 1
 602 662 l 1
 600 664 l 1
618 664 m 1
 620 662 l 1
 618 664 l 1
630 664 m 1
 632 662 l 1
 630 664 l 1
640 664 m 1
 642 662 l 1
 640 664 l 1
680 664 m 1
 682 662 l 1
 680 664 l 1
410 662 m 1
 412 660 l 1
 410 662 l 1
406 660 m 1
 408 658 l 1
 406 660 l 1
402 658 m 1
 404 656 l 1
 402 658 l 1
544 654 m 1
 546 652 l 1
 544 654 l 1
694 654 m 1
 696 652 l 1
 694 654 l 1
540 652 m 1
 542 650 l 1
 540 652 l 1
670 652 m 1
 672 650 l 1
 670 652 l 1
664 650 m 1
 666 648 l 1
 664 650 l 1
686 648 m 1
 688 646 l 1
 686 648 l 1
438 646 m 1
 440 644 l 1
 438 646 l 1
448 646 m 1
 450 644 l 1
 448 646 l 1
458 646 m 1
 460 644 l 1
 458 646 l 1
468 646 m 1
 470 644 l 1
 468 646 l 1
498 646 m 1
 500 644 l 1
 498 646 l 1
534 646 m 1
 536 644 l 1
 534 646 l 1
574 646 m 1
 576 644 l 1
 574 646 l 1
626 646 m 1
 628 644 l 1
 626 646 l 1
494 644 m 1
 496 642 l 1
 494 644 l 1
510 644 m 1
 512 642 l 1
 510 644 l 1
530 644 m 1
 532 642 l 1
 530 644 l 1
566 644 m 1
 568 642 l 1
 566 644 l 1
620 644 m 1
 622 642 l 1
 620 644 l 1
486 642 m 1
 488 640 l 1
 486 642 l 1
526 642 m 1
 528 640 l 1
 526 642 l 1
562 642 m 1
 564 640 l 1
 562 642 l 1
586 642 m 1
 588 640 l 1
 586 642 l 1
616 642 m 1
 618 640 l 1
 616 642 l 1
640 642 m 1
 642 640 l 1
 640 642 l 1
656 642 m 1
 658 640 l 1
 656 642 l 1
482 640 m 1
 484 638 l 1
 482 640 l 1
598 640 m 1
 600 638 l 1
 598 640 l 1
610 640 m 1
 612 638 l 1
 610 640 l 1
430 634 m 1
 432 632 l 1
 430 634 l 1
410 632 m 1
 412 630 l 1
 410 632 l 1
424 632 m 1
 426 630 l 1
 424 632 l 1
684 632 m 1
 686 630 l 1
 684 632 l 1
522 628 m 1
 524 626 l 1
 522 628 l 1
678 628 m 1
 680 626 l 1
 678 628 l 1
446 626 m 1
 448 624 l 1
 446 626 l 1
556 626 m 1
 558 624 l 1
 556 626 l 1
650 626 m 1
 652 624 l 1
 650 626 l 1
668 626 m 1
 670 624 l 1
 668 626 l 1
460 624 m 1
 462 622 l 1
 460 624 l 1
472 624 m 1
 474 622 l 1
 472 624 l 1
662 624 m 1
 664 622 l 1
 662 624 l 1
514 622 m 1
 516 620 l 1
 514 622 l 1
588 622 m 1
 590 620 l 1
 588 622 l 1
600 622 m 1
 602 620 l 1
 600 622 l 1
644 622 m 1
 646 620 l 1
 644 622 l 1
484 620 m 1
 486 618 l 1
 484 620 l 1
582 620 m 1
 584 618 l 1
 582 620 l 1
640 620 m 1
 642 618 l 1
 640 620 l 1
508 618 m 1
 510 616 l 1
 508 618 l 1
548 618 m 1
 550 616 l 1
 548 618 l 1
570 618 m 1
 572 616 l 1
 570 618 l 1
614 618 m 1
 616 616 l 1
 614 618 l 1
420 616 m 1
 422 614 l 1
 420 616 l 1
502 616 m 1
 504 614 l 1
 502 616 l 1
542 616 m 1
 544 614 l 1
 542 616 l 1
538 614 m 1
 540 612 l 1
 538 614 l 1
630 614 m 1
 632 612 l 1
 630 614 l 1
414 612 m 1
 416 610 l 1
 414 612 l 1
440 612 m 1
 442 610 l 1
 440 612 l 1
436 610 m 1
 438 608 l 1
 436 610 l 1
454 608 m 1
 456 606 l 1
 454 608 l 1
466 606 m 1
 468 604 l 1
 466 606 l 1
498 606 m 1
 500 604 l 1
 498 606 l 1
532 606 m 1
 534 604 l 1
 532 606 l 1
478 604 m 1
 480 602 l 1
 478 604 l 1
494 604 m 1
 496 602 l 1
 494 604 l 1
566 604 m 1
 568 602 l 1
 566 604 l 1
606 602 m 1
 608 600 l 1
 606 602 l 1
622 602 m 1
 624 600 l 1
 622 602 l 1
580 600 m 1
 582 598 l 1
 580 600 l 1
334 590 m 1
 336 588 l 1
 334 590 l 1
350 582 m 1
 352 580 l 1
 350 582 l 1
404 582 m 1
 406 580 l 1
 404 582 l 1
390 580 m 1
 392 578 l 1
 390 580 l 1
400 580 m 1
 402 578 l 1
 400 580 l 1
328 578 m 1
 330 576 l 1
 328 578 l 1
366 578 m 1
 368 576 l 1
 366 578 l 1
378 578 m 1
 380 576 l 1
 378 578 l 1
344 574 m 1
 346 572 l 1
 344 574 l 1
362 564 m 1
 364 562 l 1
 362 564 l 1
336 560 m 1
 338 558 l 1
 336 560 l 1
378 560 m 1
 380 558 l 1
 378 560 l 1
390 560 m 1
 392 558 l 1
 390 560 l 1
350 556 m 1
 352 554 l 1
 350 556 l 1
370 548 m 1
 372 546 l 1
 370 548 l 1
364 546 m 1
 366 544 l 1
 364 546 l 1
334 544 m 1
 336 542 l 1
 334 544 l 1
346 542 m 1
 348 540 l 1
 346 542 l 1
386 542 m 1
 388 540 l 1
 386 542 l 1
398 542 m 1
 400 540 l 1
 398 542 l 1
360 534 m 1
 362 532 l 1
 360 534 l 1
330 530 m 1
 332 528 l 1
 330 530 l 1
382 526 m 1
 384 524 l 1
 382 526 l 1
346 524 m 1
 348 522 l 1
 346 524 l 1
394 524 m 1
 396 522 l 1
 394 524 l 1
376 520 m 1
 378 518 l 1
 376 520 l 1
372 518 m 1
 374 516 l 1
 372 518 l 1
360 516 m 1
 362 514 l 1
 360 516 l 1
330 514 m 1
 332 512 l 1
 330 514 l 1
342 512 m 1
 344 510 l 1
 342 512 l 1
358 502 m 1
 360 500 l 1
 358 502 l 1
396 502 m 1
 398 500 l 1
 396 502 l 1
372 496 m 1
 374 494 l 1
 372 496 l 1
388 496 m 1
 390 494 l 1
 388 496 l 1
334 494 m 1
 336 492 l 1
 334 494 l 1
348 494 m 1
 350 492 l 1
 348 494 l 1
384 494 m 1
 386 492 l 1
 384 494 l 1
366 484 m 1
 368 482 l 1
 366 484 l 1
360 480 m 1
 362 478 l 1
 360 480 l 1
330 478 m 1
 332 476 l 1
 330 478 l 1
342 478 m 1
 344 476 l 1
 342 478 l 1
356 478 m 1
 358 476 l 1
 356 478 l 1
382 474 m 1
 384 472 l 1
 382 474 l 1
398 472 m 1
 400 470 l 1
 398 472 l 1
324 470 m 1
 326 468 l 1
 324 470 l 1
348 460 m 1
 350 458 l 1
 348 460 l 1
342 458 m 1
 344 456 l 1
 342 458 l 1
378 458 m 1
 380 456 l 1
 378 458 l 1
392 458 m 1
 394 456 l 1
 392 458 l 1
360 456 m 1
 362 454 l 1
 360 456 l 1
372 454 m 1
 374 452 l 1
 372 454 l 1
334 448 m 1
 336 446 l 1
 334 448 l 1
400 442 m 1
 402 440 l 1
 400 442 l 1
394 440 m 1
 396 438 l 1
 394 440 l 1
356 436 m 1
 358 434 l 1
 356 436 l 1
368 436 m 1
 370 434 l 1
 368 436 l 1
348 434 m 1
 350 432 l 1
 348 434 l 1
388 434 m 1
 390 432 l 1
 388 434 l 1
344 432 m 1
 346 430 l 1
 344 432 l 1
384 432 m 1
 386 430 l 1
 384 432 l 1
416 432 m 1
 418 430 l 1
 416 432 l 1
466 432 m 1
 468 430 l 1
 466 432 l 1
506 432 m 1
 508 430 l 1
 506 432 l 1
334 430 m 1
 336 428 l 1
 334 430 l 1
460 430 m 1
 462 428 l 1
 460 430 l 1
500 430 m 1
 502 428 l 1
 500 430 l 1
520 430 m 1
 522 428 l 1
 520 430 l 1
432 428 m 1
 434 426 l 1
 432 428 l 1
456 428 m 1
 458 426 l 1
 456 428 l 1
480 428 m 1
 482 426 l 1
 480 428 l 1
492 428 m 1
 494 426 l 1
 492 428 l 1
446 426 m 1
 448 424 l 1
 446 426 l 1
534 426 m 1
 536 424 l 1
 534 426 l 1
546 424 m 1
 548 422 l 1
 546 424 l 1
560 422 m 1
 562 420 l 1
 560 422 l 1
378 418 m 1
 380 416 l 1
 378 418 l 1
576 418 m 1
 578 416 l 1
 576 418 l 1
374 416 m 1
 376 414 l 1
 374 416 l 1
412 416 m 1
 414 414 l 1
 412 416 l 1
426 416 m 1
 428 414 l 1
 426 416 l 1
370 414 m 1
 372 412 l 1
 370 414 l 1
406 412 m 1
 408 410 l 1
 406 412 l 1
526 412 m 1
 528 410 l 1
 526 412 l 1
336 410 m 1
 338 408 l 1
 336 410 l 1
364 410 m 1
 366 408 l 1
 364 410 l 1
442 410 m 1
 444 408 l 1
 442 410 l 1
488 410 m 1
 490 408 l 1
 488 410 l 1
522 410 m 1
 524 408 l 1
 522 410 l 1
592 410 m 1
 594 408 l 1
 592 410 l 1
348 408 m 1
 350 406 l 1
 348 408 l 1
360 408 m 1
 362 406 l 1
 360 408 l 1
398 408 m 1
 400 406 l 1
 398 408 l 1
482 408 m 1
 484 406 l 1
 482 408 l 1
518 408 m 1
 520 406 l 1
 518 408 l 1
542 408 m 1
 544 406 l 1
 542 408 l 1
456 406 m 1
 458 404 l 1
 456 406 l 1
514 406 m 1
 516 404 l 1
 514 406 l 1
558 406 m 1
 560 404 l 1
 558 406 l 1
572 406 m 1
 574 404 l 1
 572 406 l 1
476 404 m 1
 478 402 l 1
 476 404 l 1
502 404 m 1
 504 402 l 1
 502 404 l 1
472 402 m 1
 474 400 l 1
 472 402 l 1
606 402 m 1
 608 400 l 1
 606 402 l 1
428 398 m 1
 430 396 l 1
 428 398 l 1
438 398 m 1
 440 396 l 1
 438 398 l 1
588 398 m 1
 590 396 l 1
 588 398 l 1
394 396 m 1
 396 394 l 1
 394 396 l 1
622 396 m 1
 624 394 l 1
 622 396 l 1
334 394 m 1
 336 392 l 1
 334 394 l 1
422 392 m 1
 424 390 l 1
 422 392 l 1
552 392 m 1
 554 390 l 1
 552 392 l 1
346 390 m 1
 348 388 l 1
 346 390 l 1
454 390 m 1
 456 388 l 1
 454 390 l 1
544 390 m 1
 546 388 l 1
 544 390 l 1
568 390 m 1
 570 388 l 1
 568 390 l 1
358 388 m 1
 360 386 l 1
 358 388 l 1
414 388 m 1
 416 386 l 1
 414 388 l 1
466 388 m 1
 468 386 l 1
 466 388 l 1
582 388 m 1
 584 386 l 1
 582 388 l 1
602 388 m 1
 604 386 l 1
 602 388 l 1
636 388 m 1
 638 386 l 1
 636 388 l 1
410 386 m 1
 412 384 l 1
 410 386 l 1
510 386 m 1
 512 384 l 1
 510 386 l 1
616 386 m 1
 618 384 l 1
 616 386 l 1
384 384 m 1
 386 382 l 1
 384 384 l 1
502 384 m 1
 504 382 l 1
 502 384 l 1
374 382 m 1
 376 380 l 1
 374 382 l 1
536 382 m 1
 538 380 l 1
 536 382 l 1
652 382 m 1
 654 380 l 1
 652 382 l 1
496 380 m 1
 498 378 l 1
 496 380 l 1
526 380 m 1
 528 378 l 1
 526 380 l 1
398 378 m 1
 400 376 l 1
 398 378 l 1
448 378 m 1
 450 376 l 1
 448 378 l 1
484 378 m 1
 486 376 l 1
 484 378 l 1
338 376 m 1
 340 374 l 1
 338 376 l 1
444 376 m 1
 446 374 l 1
 444 376 l 1
564 374 m 1
 566 372 l 1
 564 374 l 1
578 374 m 1
 580 372 l 1
 578 374 l 1
596 374 m 1
 598 372 l 1
 596 374 l 1
632 374 m 1
 634 372 l 1
 632 374 l 1
478 372 m 1
 480 370 l 1
 478 372 l 1
646 372 m 1
 648 370 l 1
 646 372 l 1
352 370 m 1
 354 368 l 1
 352 370 l 1
364 370 m 1
 366 368 l 1
 364 370 l 1
436 370 m 1
 438 368 l 1
 436 370 l 1
468 370 m 1
 470 368 l 1
 468 370 l 1
610 370 m 1
 612 368 l 1
 610 370 l 1
464 368 m 1
 466 366 l 1
 464 368 l 1
554 368 m 1
 556 366 l 1
 554 368 l 1
624 368 m 1
 626 366 l 1
 624 368 l 1
412 366 m 1
 414 364 l 1
 412 366 l 1
664 366 m 1
 666 364 l 1
 664 366 l 1
378 364 m 1
 380 362 l 1
 378 364 l 1
390 364 m 1
 392 362 l 1
 390 364 l 1
428 364 m 1
 430 362 l 1
 428 364 l 1
522 364 m 1
 524 362 l 1
 522 364 l 1
548 364 m 1
 550 362 l 1
 548 364 l 1
406 362 m 1
 408 360 l 1
 406 362 l 1
542 362 m 1
 544 360 l 1
 542 362 l 1
516 360 m 1
 518 358 l 1
 516 360 l 1
536 360 m 1
 538 358 l 1
 536 360 l 1
590 360 m 1
 592 358 l 1
 590 360 l 1
344 358 m 1
 346 356 l 1
 344 358 l 1
576 358 m 1
 578 356 l 1
 576 358 l 1
604 358 m 1
 606 356 l 1
 604 358 l 1
572 356 m 1
 574 354 l 1
 572 356 l 1
658 356 m 1
 660 354 l 1
 658 356 l 1
642 354 m 1
 644 352 l 1
 642 354 l 1
654 354 m 1
 656 352 l 1
 654 354 l 1
360 352 m 1
 362 350 l 1
 360 352 l 1
372 352 m 1
 374 350 l 1
 372 352 l 1
620 352 m 1
 622 350 l 1
 620 352 l 1
638 352 m 1
 640 350 l 1
 638 352 l 1
634 350 m 1
 636 348 l 1
 634 350 l 1
400 348 m 1
 402 346 l 1
 400 348 l 1
676 348 m 1
 678 346 l 1
 676 348 l 1
390 346 m 1
 392 344 l 1
 390 346 l 1
348 342 m 1
 350 340 l 1
 348 342 l 1
594 342 m 1
 596 340 l 1
 594 342 l 1
614 342 m 1
 616 340 l 1
 614 342 l 1
570 340 m 1
 572 338 l 1
 570 340 l 1
606 340 m 1
 608 338 l 1
 606 340 l 1
384 336 m 1
 386 334 l 1
 384 336 l 1
588 336 m 1
 590 334 l 1
 588 336 l 1
362 334 m 1
 364 332 l 1
 362 334 l 1
374 334 m 1
 376 332 l 1
 374 334 l 1
632 332 m 1
 634 330 l 1
 632 332 l 1
670 332 m 1
 672 330 l 1
 670 332 l 1
686 332 m 1
 688 330 l 1
 686 332 l 1
664 330 m 1
 666 328 l 1
 664 330 l 1
682 330 m 1
 684 328 l 1
 682 330 l 1
656 328 m 1
 658 326 l 1
 656 328 l 1
652 326 m 1
 654 324 l 1
 652 326 l 1
648 324 m 1
 650 322 l 1
 648 324 l 1
626 322 m 1
 628 320 l 1
 626 322 l 1
610 320 m 1
 612 318 l 1
 610 320 l 1
606 318 m 1
 608 316 l 1
 606 318 l 1
642 312 m 1
 644 310 l 1
 642 312 l 1
628 306 m 1
 630 304 l 1
 628 306 l 1
684 306 m 1
 686 304 l 1
 684 306 l 1
680 304 m 1
 682 302 l 1
 680 304 l 1
672 300 m 1
 674 298 l 1
 672 300 l 1
660 298 m 1
 662 296 l 1
 660 298 l 1
624 296 m 1
 626 294 l 1
 624 296 l 1
644 296 m 1
 646 294 l 1
 644 296 l 1
656 296 m 1
 658 294 l 1
 656 296 l 1
698 286 m 1
 700 284 l 1
 698 286 l 1
640 284 m 1
 642 282 l 1
 640 284 l 1
622 280 m 1
 624 278 l 1
 622 280 l 1
690 280 m 1
 692 278 l 1
 690 280 l 1
634 278 m 1
 636 276 l 1
 634 278 l 1
678 278 m 1
 680 276 l 1
 678 278 l 1
674 276 m 1
 676 274 l 1
 674 276 l 1
656 274 m 1
 658 272 l 1
 656 274 l 1
668 274 m 1
 670 272 l 1
 668 274 l 1
652 262 m 1
 654 260 l 1
 652 262 l 1
626 260 m 1
 628 258 l 1
 626 260 l 1
648 260 m 1
 650 258 l 1
 648 260 l 1
638 258 m 1
 640 256 l 1
 638 258 l 1
694 256 m 1
 696 254 l 1
 694 256 l 1
668 252 m 1
 670 250 l 1
 668 252 l 1
684 250 m 1
 686 248 l 1
 684 250 l 1
622 248 m 1
 624 246 l 1
 622 248 l 1
638 238 m 1
 640 236 l 1
 638 238 l 1
650 236 m 1
 652 234 l 1
 650 236 l 1
660 236 m 1
 662 234 l 1
 660 236 l 1
676 236 m 1
 678 234 l 1
 676 236 l 1
616 234 m 1
 618 232 l 1
 616 234 l 1
672 234 m 1
 674 232 l 1
 672 234 l 1
632 232 m 1
 634 230 l 1
 632 232 l 1
690 232 m 1
 692 230 l 1
 690 232 l 1
612 220 m 1
 614 218 l 1
 612 220 l 1
628 220 m 1
 630 218 l 1
 628 220 l 1
650 216 m 1
 652 214 l 1
 650 216 l 1
662 216 m 1
 664 214 l 1
 662 216 l 1
676 212 m 1
 678 210 l 1
 676 212 l 1
688 212 m 1
 690 210 l 1
 688 212 l 1
644 210 m 1
 646 208 l 1
 644 210 l 1
608 206 m 1
 610 204 l 1
 608 206 l 1
624 206 m 1
 626 204 l 1
 624 206 l 1
638 200 m 1
 640 198 l 1
 638 200 l 1
670 198 m 1
 672 196 l 1
 670 198 l 1
664 196 m 1
 666 194 l 1
 664 196 l 1
606 192 m 1
 608 190 l 1
 606 192 l 1
620 192 m 1
 622 190 l 1
 620 192 l 1
656 190 m 1
 658 188 l 1
 656 190 l 1
634 186 m 1
 636 184 l 1
 634 186 l 1
650 182 m 1
 652 180 l 1
 650 182 l 1
600 180 m 1
 602 178 l 1
 600 180 l 1
594 174 m 1
 596 172 l 1
 594 174 l 1
616 174 m 1
 618 172 l 1
 616 174 l 1
626 174 m 1
 628 172 l 1
 626 174 l 1
644 170 m 1
 646 168 l 1
 644 170 l 1
670 170 m 1
 672 168 l 1
 670 170 l 1
664 166 m 1
 666 164 l 1
 664 166 l 1
610 158 m 1
 612 156 l 1
 610 158 l 1
638 158 m 1
 640 156 l 1
 638 158 l 1
658 158 m 1
 660 156 l 1
 658 158 l 1
590 156 m 1
 592 154 l 1
 590 156 l 1
606 156 m 1
 608 154 l 1
 606 156 l 1
602 154 m 1
 604 152 l 1
 602 154 l 1
622 154 m 1
 624 152 l 1
 622 154 l 1
632 154 m 1
 634 152 l 1
 632 154 l 1
654 148 m 1
 656 146 l 1
 654 148 l 1
586 142 m 1
 588 140 l 1
 586 142 l 1
600 134 m 1
 602 132 l 1
 600 134 l 1
650 134 m 1
 652 132 l 1
 650 134 l 1
320 132 m 1
 322 130 l 1
 320 132 l 1
330 132 m 1
 332 130 l 1
 330 132 l 1
342 132 m 1
 344 130 l 1
 342 132 l 1
352 132 m 1
 354 130 l 1
 352 132 l 1
580 132 m 1
 582 130 l 1
 580 132 l 1
630 132 m 1
 632 130 l 1
 630 132 l 1
646 132 m 1
 648 130 l 1
 646 132 l 1
622 130 m 1
 624 128 l 1
 622 130 l 1
642 130 m 1
 644 128 l 1
 642 130 l 1
614 128 m 1
 616 126 l 1
 614 128 l 1
366 126 m 1
 368 124 l 1
 366 126 l 1
574 124 m 1
 576 122 l 1
 574 124 l 1
316 122 m 1
 318 120 l 1
 316 122 l 1
382 120 m 1
 384 118 l 1
 382 120 l 1
596 120 m 1
 598 118 l 1
 596 120 l 1
568 118 m 1
 570 116 l 1
 568 118 l 1
396 114 m 1
 398 112 l 1
 396 114 l 1
544 114 m 1
 546 112 l 1
 544 114 l 1
610 114 m 1
 612 112 l 1
 610 114 l 1
310 112 m 1
 312 110 l 1
 310 112 l 1
338 112 m 1
 340 110 l 1
 338 112 l 1
350 112 m 1
 352 110 l 1
 350 112 l 1
362 112 m 1
 364 110 l 1
 362 112 l 1
558 112 m 1
 560 110 l 1
 558 112 l 1
334 110 m 1
 336 108 l 1
 334 110 l 1
378 108 m 1
 380 106 l 1
 378 108 l 1
590 108 m 1
 592 106 l 1
 590 108 l 1
640 108 m 1
 642 106 l 1
 640 108 l 1
630 106 m 1
 632 104 l 1
 630 106 l 1
328 104 m 1
 330 102 l 1
 328 104 l 1
626 104 m 1
 628 102 l 1
 626 104 l 1
606 102 m 1
 608 100 l 1
 606 102 l 1
308 98 m 1
 310 96 l 1
 308 98 l 1
392 98 m 1
 394 96 l 1
 392 98 l 1
410 98 m 1
 412 96 l 1
 410 98 l 1
538 98 m 1
 540 96 l 1
 538 98 l 1
580 98 m 1
 582 96 l 1
 580 98 l 1
404 96 m 1
 406 94 l 1
 404 96 l 1
550 96 m 1
 552 94 l 1
 550 96 l 1
572 96 m 1
 574 94 l 1
 572 96 l 1
322 94 m 1
 324 92 l 1
 322 94 l 1
370 94 m 1
 372 92 l 1
 370 94 l 1
562 94 m 1
 564 92 l 1
 562 94 l 1
358 92 m 1
 360 90 l 1
 358 92 l 1
532 92 m 1
 534 90 l 1
 532 92 l 1
598 92 m 1
 600 90 l 1
 598 92 l 1
622 92 m 1
 624 90 l 1
 622 92 l 1
384 90 m 1
 386 88 l 1
 384 90 l 1
426 90 m 1
 428 88 l 1
 426 90 l 1
528 90 m 1
 530 88 l 1
 528 90 l 1
352 88 m 1
 354 86 l 1
 352 88 l 1
346 84 m 1
 348 82 l 1
 346 84 l 1
520 84 m 1
 522 82 l 1
 520 84 l 1
616 84 m 1
 618 82 l 1
 616 84 l 1
342 82 m 1
 344 80 l 1
 342 82 l 1
516 82 m 1
 518 80 l 1
 516 82 l 1
338 80 m 1
 340 78 l 1
 338 80 l 1
440 80 m 1
 442 78 l 1
 440 80 l 1
512 80 m 1
 514 78 l 1
 512 80 l 1
592 80 m 1
 594 78 l 1
 592 80 l 1
506 78 m 1
 508 76 l 1
 506 78 l 1
610 78 m 1
 612 76 l 1
 610 78 l 1
322 76 m 1
 324 74 l 1
 322 76 l 1
332 76 m 1
 334 74 l 1
 332 76 l 1
378 76 m 1
 380 74 l 1
 378 76 l 1
400 76 m 1
 402 74 l 1
 400 76 l 1
454 76 m 1
 456 74 l 1
 454 76 l 1
498 76 m 1
 500 74 l 1
 498 76 l 1
556 76 m 1
 558 74 l 1
 556 76 l 1
396 74 m 1
 398 72 l 1
 396 74 l 1
416 74 m 1
 418 72 l 1
 416 74 l 1
426 74 m 1
 428 72 l 1
 426 74 l 1
494 74 m 1
 496 72 l 1
 494 74 l 1
552 74 m 1
 554 72 l 1
 552 74 l 1
568 74 m 1
 570 72 l 1
 568 74 l 1
580 74 m 1
 582 72 l 1
 580 74 l 1
486 72 m 1
 488 70 l 1
 486 72 l 1
372 70 m 1
 374 68 l 1
 372 70 l 1
470 70 m 1
 472 68 l 1
 470 70 l 1
480 70 m 1
 482 68 l 1
 480 70 l 1
544 66 m 1
 546 64 l 1
 544 66 l 1
604 66 m 1
 606 64 l 1
 604 66 l 1
446 64 m 1
 448 62 l 1
 446 64 l 1
600 64 m 1
 602 62 l 1
 600 64 l 1
392 62 m 1
 394 60 l 1
 392 62 l 1
440 62 m 1
 442 60 l 1
 440 62 l 1
596 62 m 1
 598 60 l 1
 596 62 l 1
366 58 m 1
 368 56 l 1
 366 58 l 1
416 58 m 1
 418 56 l 1
 416 58 l 1
462 58 m 1
 464 56 l 1
 462 58 l 1
538 58 m 1
 540 56 l 1
 538 58 l 1
588 56 m 1
 590 54 l 1
 588 56 l 1
432 54 m 1
 434 52 l 1
 432 54 l 1
576 54 m 1
 578 52 l 1
 576 54 l 1
360 52 m 1
 362 50 l 1
 360 52 l 1
532 52 m 1
 534 50 l 1
 532 52 l 1
568 52 m 1
 570 50 l 1
 568 52 l 1
384 50 m 1
 386 48 l 1
 384 50 l 1
410 50 m 1
 412 48 l 1
 410 50 l 1
476 50 m 1
 478 48 l 1
 476 50 l 1
528 50 m 1
 530 48 l 1
 528 50 l 1
562 50 m 1
 564 48 l 1
 562 50 l 1
518 48 m 1
 520 46 l 1
 518 48 l 1
558 48 m 1
 560 46 l 1
 558 48 l 1
404 46 m 1
 406 44 l 1
 404 46 l 1
504 46 m 1
 506 44 l 1
 504 46 l 1
514 46 m 1
 516 44 l 1
 514 46 l 1
490 44 m 1
 492 42 l 1
 490 44 l 1
500 44 m 1
 502 42 l 1
 500 44 l 1
398 42 m 1
 400 40 l 1
 398 42 l 1
460 42 m 1
 462 40 l 1
 460 42 l 1
428 40 m 1
 430 38 l 1
 428 40 l 1
456 40 m 1
 458 38 l 1
 456 40 l 1
450 38 m 1
 452 36 l 1
 450 38 l 1
380 36 m 1
 382 34 l 1
 380 36 l 1
444 36 m 1
 446 34 l 1
 444 36 l 1
552 36 m 1
 554 34 l 1
 552 36 l 1
474 34 m 1
 476 32 l 1
 474 34 l 1
394 30 m 1
 396 28 l 1
 394 30 l 1
486 30 m 1
 488 28 l 1
 486 30 l 1
424 26 m 1
 426 24 l 1
 424 26 l 1
546 26 m 1
 548 24 l 1
 546 26 l 1
440 24 m 1
 442 22 l 1
 440 24 l 1
540 24 m 1
 542 22 l 1
 540 24 l 1
502 22 m 1
 504 20 l 1
 502 22 l 1
532 22 m 1
 534 20 l 1
 532 22 l 1
416 20 m 1
 418 18 l 1
 416 20 l 1
518 20 m 1
 520 18 l 1
 518 20 l 1
528 20 m 1
 530 18 l 1
 528 20 l 1
474 14 m 1
 476 12 l 1
 474 14 l 1
470 12 m 1
 472 10 l 1
 470 12 l 1
486 12 m 1
 488 10 l 1
 486 12 l 1
496 12 m 1
 498 10 l 1
 496 12 l 1
438 10 m 1
 440 8 l 1
 438 10 l 1
464 10 m 1
 466 8 l 1
 464 10 l 1
456 8 m 1
 458 6 l 1
 456 8 l 1
EndSplineSet
EndChar

StartChar: emdash
Encoding: 8212 8212 75
Width: 1000
VWidth: 0
Flags: HW
LayerCount: 2
Back
Fore
SplineSet
670 373 m 0
 695 375 732 376 754 363 c 0
 781 346 782 304 756 286 c 0
 730 268 678 279 648 276 c 0
 539 265 429 276 320 276 c 0
 282 276 200 270 218 334 c 0
 231 380 291 366 326 369 c 0
 440 379 556 363 670 373 c 0
558 362 m 1
 560 360 l 1
 558 362 l 1
364 358 m 1
 366 356 l 1
 364 358 l 1
572 356 m 1
 574 354 l 1
 572 356 l 1
586 352 m 1
 588 350 l 1
 586 352 l 1
552 348 m 1
 554 346 l 1
 552 348 l 1
380 346 m 1
 382 344 l 1
 380 346 l 1
310 344 m 1
 312 342 l 1
 310 344 l 1
358 344 m 1
 360 342 l 1
 358 344 l 1
544 344 m 1
 546 342 l 1
 544 344 l 1
566 344 m 1
 568 342 l 1
 566 344 l 1
602 344 m 1
 604 342 l 1
 602 344 l 1
642 344 m 1
 644 342 l 1
 642 344 l 1
652 344 m 1
 654 342 l 1
 652 344 l 1
252 342 m 1
 254 340 l 1
 252 342 l 1
262 342 m 1
 264 340 l 1
 262 342 l 1
374 342 m 1
 376 340 l 1
 374 342 l 1
444 342 m 1
 446 340 l 1
 444 342 l 1
454 342 m 1
 456 340 l 1
 454 342 l 1
466 342 m 1
 468 340 l 1
 466 342 l 1
540 342 m 1
 542 340 l 1
 540 342 l 1
614 342 m 1
 616 340 l 1
 614 342 l 1
632 342 m 1
 634 340 l 1
 632 342 l 1
682 342 m 1
 684 340 l 1
 682 342 l 1
692 342 m 1
 694 340 l 1
 692 342 l 1
702 342 m 1
 704 340 l 1
 702 342 l 1
712 342 m 1
 714 340 l 1
 712 342 l 1
324 340 m 1
 326 338 l 1
 324 340 l 1
350 340 m 1
 352 338 l 1
 350 340 l 1
396 340 m 1
 398 338 l 1
 396 340 l 1
418 340 m 1
 420 338 l 1
 418 340 l 1
432 340 m 1
 434 338 l 1
 432 340 l 1
480 340 m 1
 482 338 l 1
 480 340 l 1
492 340 m 1
 494 338 l 1
 492 340 l 1
504 340 m 1
 506 338 l 1
 504 340 l 1
532 340 m 1
 534 338 l 1
 532 340 l 1
626 340 m 1
 628 338 l 1
 626 340 l 1
666 340 m 1
 668 338 l 1
 666 340 l 1
676 340 m 1
 678 338 l 1
 676 340 l 1
724 340 m 1
 726 338 l 1
 724 340 l 1
736 340 m 1
 738 338 l 1
 736 340 l 1
278 338 m 1
 280 336 l 1
 278 338 l 1
304 338 m 1
 306 336 l 1
 304 338 l 1
338 338 m 1
 340 336 l 1
 338 338 l 1
410 338 m 1
 412 336 l 1
 410 338 l 1
516 338 m 1
 518 336 l 1
 516 338 l 1
526 338 m 1
 528 336 l 1
 526 338 l 1
748 338 m 1
 750 336 l 1
 748 338 l 1
298 336 m 1
 300 334 l 1
 298 336 l 1
582 336 m 1
 584 334 l 1
 582 336 l 1
596 336 m 1
 598 334 l 1
 596 336 l 1
760 336 m 1
 762 334 l 1
 760 336 l 1
292 334 m 1
 294 332 l 1
 292 334 l 1
248 330 m 1
 250 328 l 1
 248 330 l 1
370 326 m 1
 372 324 l 1
 370 326 l 1
566 326 m 1
 568 324 l 1
 566 326 l 1
576 326 m 1
 578 324 l 1
 576 326 l 1
272 324 m 1
 274 322 l 1
 272 324 l 1
392 324 m 1
 394 322 l 1
 392 324 l 1
474 324 m 1
 476 322 l 1
 474 324 l 1
660 324 m 1
 662 322 l 1
 660 324 l 1
242 322 m 1
 244 320 l 1
 242 322 l 1
268 322 m 1
 270 320 l 1
 268 322 l 1
324 322 m 1
 326 320 l 1
 324 322 l 1
334 322 m 1
 336 320 l 1
 334 322 l 1
388 322 m 1
 390 320 l 1
 388 322 l 1
404 322 m 1
 406 320 l 1
 404 322 l 1
432 322 m 1
 434 320 l 1
 432 322 l 1
442 322 m 1
 444 320 l 1
 442 322 l 1
452 322 m 1
 454 320 l 1
 452 322 l 1
464 322 m 1
 466 320 l 1
 464 322 l 1
488 322 m 1
 490 320 l 1
 488 322 l 1
502 322 m 1
 504 320 l 1
 502 322 l 1
614 322 m 1
 616 320 l 1
 614 322 l 1
624 322 m 1
 626 320 l 1
 624 322 l 1
654 322 m 1
 656 320 l 1
 654 322 l 1
734 322 m 1
 736 320 l 1
 734 322 l 1
264 320 m 1
 266 318 l 1
 264 320 l 1
286 320 m 1
 288 318 l 1
 286 320 l 1
346 320 m 1
 348 318 l 1
 346 320 l 1
356 320 m 1
 358 318 l 1
 356 320 l 1
384 320 m 1
 386 318 l 1
 384 320 l 1
516 320 m 1
 518 318 l 1
 516 320 l 1
560 320 m 1
 562 318 l 1
 560 320 l 1
610 320 m 1
 612 318 l 1
 610 320 l 1
648 320 m 1
 650 318 l 1
 648 320 l 1
674 320 m 1
 676 318 l 1
 674 320 l 1
708 320 m 1
 710 318 l 1
 708 320 l 1
718 320 m 1
 720 318 l 1
 718 320 l 1
728 320 m 1
 730 318 l 1
 728 320 l 1
748 320 m 1
 750 318 l 1
 748 320 l 1
420 318 m 1
 422 316 l 1
 420 318 l 1
594 318 m 1
 596 316 l 1
 594 318 l 1
606 318 m 1
 608 316 l 1
 606 318 l 1
644 318 m 1
 646 316 l 1
 644 318 l 1
698 318 m 1
 700 316 l 1
 698 318 l 1
640 316 m 1
 642 314 l 1
 640 316 l 1
692 316 m 1
 694 314 l 1
 692 316 l 1
762 316 m 1
 764 314 l 1
 762 316 l 1
236 314 m 1
 238 312 l 1
 236 314 l 1
530 314 m 1
 532 312 l 1
 530 314 l 1
550 314 m 1
 552 312 l 1
 550 314 l 1
318 312 m 1
 320 310 l 1
 318 312 l 1
542 312 m 1
 544 310 l 1
 542 312 l 1
312 310 m 1
 314 308 l 1
 312 310 l 1
372 310 m 1
 374 308 l 1
 372 310 l 1
258 308 m 1
 260 306 l 1
 258 308 l 1
302 308 m 1
 304 306 l 1
 302 308 l 1
588 308 m 1
 590 306 l 1
 588 308 l 1
486 306 m 1
 488 304 l 1
 486 306 l 1
500 306 m 1
 502 304 l 1
 500 306 l 1
686 306 m 1
 688 304 l 1
 686 306 l 1
414 304 m 1
 416 302 l 1
 414 304 l 1
480 304 m 1
 482 302 l 1
 480 304 l 1
512 304 m 1
 514 302 l 1
 512 304 l 1
582 304 m 1
 584 302 l 1
 582 304 l 1
294 302 m 1
 296 300 l 1
 294 302 l 1
342 302 m 1
 344 300 l 1
 342 302 l 1
366 302 m 1
 368 300 l 1
 366 302 l 1
430 302 m 1
 432 300 l 1
 430 302 l 1
440 302 m 1
 442 300 l 1
 440 302 l 1
462 302 m 1
 464 300 l 1
 462 302 l 1
472 302 m 1
 474 300 l 1
 472 302 l 1
524 302 m 1
 526 300 l 1
 524 302 l 1
576 302 m 1
 578 300 l 1
 576 302 l 1
754 302 m 1
 756 300 l 1
 754 302 l 1
290 300 m 1
 292 298 l 1
 290 300 l 1
336 300 m 1
 338 298 l 1
 336 300 l 1
360 300 m 1
 362 298 l 1
 360 300 l 1
454 300 m 1
 456 298 l 1
 454 300 l 1
572 300 m 1
 574 298 l 1
 572 300 l 1
634 300 m 1
 636 298 l 1
 634 300 l 1
676 300 m 1
 678 298 l 1
 676 300 l 1
748 300 m 1
 750 298 l 1
 748 300 l 1
250 298 m 1
 252 296 l 1
 250 298 l 1
286 298 m 1
 288 296 l 1
 286 298 l 1
356 298 m 1
 358 296 l 1
 356 298 l 1
386 298 m 1
 388 296 l 1
 386 298 l 1
406 298 m 1
 408 296 l 1
 406 298 l 1
568 298 m 1
 570 296 l 1
 568 298 l 1
606 298 m 1
 608 296 l 1
 606 298 l 1
718 298 m 1
 720 296 l 1
 718 298 l 1
744 298 m 1
 746 296 l 1
 744 298 l 1
236 296 m 1
 238 294 l 1
 236 296 l 1
246 296 m 1
 248 294 l 1
 246 296 l 1
282 296 m 1
 284 294 l 1
 282 296 l 1
402 296 m 1
 404 294 l 1
 402 296 l 1
714 296 m 1
 716 294 l 1
 714 296 l 1
730 296 m 1
 732 294 l 1
 730 296 l 1
740 296 m 1
 742 294 l 1
 740 296 l 1
274 294 m 1
 276 292 l 1
 274 294 l 1
542 294 m 1
 544 292 l 1
 542 294 l 1
562 294 m 1
 564 292 l 1
 562 294 l 1
626 294 m 1
 628 292 l 1
 626 294 l 1
708 294 m 1
 710 292 l 1
 708 294 l 1
270 292 m 1
 272 290 l 1
 270 292 l 1
622 292 m 1
 624 290 l 1
 622 292 l 1
668 292 m 1
 670 290 l 1
 668 292 l 1
704 292 m 1
 706 290 l 1
 704 292 l 1
648 290 m 1
 650 288 l 1
 648 290 l 1
662 290 m 1
 664 288 l 1
 662 290 l 1
700 290 m 1
 702 288 l 1
 700 290 l 1
328 288 m 1
 330 286 l 1
 328 288 l 1
426 288 m 1
 428 286 l 1
 426 288 l 1
556 288 m 1
 558 286 l 1
 556 288 l 1
696 288 m 1
 698 286 l 1
 696 288 l 1
314 286 m 1
 316 284 l 1
 314 286 l 1
324 286 m 1
 326 284 l 1
 324 286 l 1
502 286 m 1
 504 284 l 1
 502 286 l 1
512 286 m 1
 514 284 l 1
 512 286 l 1
536 286 m 1
 538 284 l 1
 536 286 l 1
692 286 m 1
 694 284 l 1
 692 286 l 1
398 284 m 1
 400 282 l 1
 398 284 l 1
532 284 m 1
 534 282 l 1
 532 284 l 1
602 284 m 1
 604 282 l 1
 602 284 l 1
384 282 m 1
 386 280 l 1
 384 282 l 1
442 282 m 1
 444 280 l 1
 442 282 l 1
452 282 m 1
 454 280 l 1
 452 282 l 1
526 282 m 1
 528 280 l 1
 526 282 l 1
266 280 m 1
 268 278 l 1
 266 280 l 1
496 280 m 1
 498 278 l 1
 496 280 l 1
616 280 m 1
 618 278 l 1
 616 280 l 1
356 278 m 1
 358 276 l 1
 356 278 l 1
466 278 m 1
 468 276 l 1
 466 278 l 1
476 278 m 1
 478 276 l 1
 476 278 l 1
490 278 m 1
 492 276 l 1
 490 278 l 1
EndSplineSet
EndChar

StartChar: backslash
Encoding: 92 92 76
Width: 1000
VWidth: 0
Flags: HW
LayerCount: 2
Back
Fore
SplineSet
372 703 m 0
 397 704 410 687 420 666 c 0
 435 635 449 602 463 570 c 0
 526 425 589 281 648 134 c 0
 661 101 686 60 688 24 c 0
 690 -1 671 -22 646 -24 c 0
 619 -26 605 -8 594 14 c 0
 579 44 566 75 553 106 c 0
 493 254 433 403 370 550 c 0
 357 581 332 620 329 654 c 0
 327 679 347 702 372 703 c 0
372 674 m 1
 374 672 l 1
 372 674 l 1
382 674 m 1
 384 672 l 1
 382 674 l 1
396 670 m 1
 398 668 l 1
 396 670 l 1
366 666 m 1
 368 664 l 1
 366 666 l 1
360 660 m 1
 362 658 l 1
 360 660 l 1
410 658 m 1
 412 656 l 1
 410 658 l 1
354 654 m 1
 356 652 l 1
 354 654 l 1
390 654 m 1
 392 652 l 1
 390 654 l 1
404 654 m 1
 406 652 l 1
 404 654 l 1
386 652 m 1
 388 650 l 1
 386 652 l 1
382 650 m 1
 384 648 l 1
 382 650 l 1
348 646 m 1
 350 644 l 1
 348 646 l 1
376 640 m 1
 378 638 l 1
 376 640 l 1
370 634 m 1
 372 632 l 1
 370 634 l 1
418 634 m 1
 420 632 l 1
 418 634 l 1
366 632 m 1
 368 630 l 1
 366 632 l 1
406 632 m 1
 408 630 l 1
 406 632 l 1
350 628 m 1
 352 626 l 1
 350 628 l 1
396 624 m 1
 398 622 l 1
 396 624 l 1
364 618 m 1
 366 616 l 1
 364 618 l 1
390 618 m 1
 392 616 l 1
 390 618 l 1
418 616 m 1
 420 614 l 1
 418 616 l 1
428 616 m 1
 430 614 l 1
 428 616 l 1
412 614 m 1
 414 612 l 1
 412 614 l 1
384 610 m 1
 386 608 l 1
 384 610 l 1
360 608 m 1
 362 606 l 1
 360 608 l 1
378 602 m 1
 380 600 l 1
 378 602 l 1
408 602 m 1
 410 600 l 1
 408 602 l 1
402 596 m 1
 404 594 l 1
 402 596 l 1
438 594 m 1
 440 592 l 1
 438 594 l 1
432 592 m 1
 434 590 l 1
 432 592 l 1
372 590 m 1
 374 588 l 1
 372 590 l 1
428 590 m 1
 430 588 l 1
 428 590 l 1
368 588 m 1
 370 586 l 1
 368 588 l 1
396 588 m 1
 398 586 l 1
 396 588 l 1
392 586 m 1
 394 584 l 1
 392 586 l 1
422 582 m 1
 424 580 l 1
 422 582 l 1
416 574 m 1
 418 572 l 1
 416 574 l 1
388 572 m 1
 390 570 l 1
 388 572 l 1
382 566 m 1
 384 564 l 1
 382 566 l 1
450 566 m 1
 452 564 l 1
 450 566 l 1
408 564 m 1
 410 562 l 1
 408 564 l 1
444 564 m 1
 446 562 l 1
 444 564 l 1
404 562 m 1
 406 560 l 1
 404 562 l 1
438 562 m 1
 440 560 l 1
 438 562 l 1
434 560 m 1
 436 558 l 1
 434 560 l 1
428 556 m 1
 430 554 l 1
 428 556 l 1
384 548 m 1
 386 546 l 1
 384 548 l 1
396 548 m 1
 398 546 l 1
 396 548 l 1
422 544 m 1
 424 542 l 1
 422 544 l 1
418 542 m 1
 420 540 l 1
 418 542 l 1
412 540 m 1
 414 538 l 1
 412 540 l 1
462 536 m 1
 464 534 l 1
 462 536 l 1
442 532 m 1
 444 530 l 1
 442 532 l 1
456 532 m 1
 458 530 l 1
 456 532 l 1
402 530 m 1
 404 528 l 1
 402 530 l 1
394 528 m 1
 396 526 l 1
 394 528 l 1
436 520 m 1
 438 518 l 1
 436 520 l 1
416 516 m 1
 418 514 l 1
 416 516 l 1
428 516 m 1
 430 514 l 1
 428 516 l 1
454 516 m 1
 456 514 l 1
 454 516 l 1
472 512 m 1
 474 510 l 1
 472 512 l 1
406 508 m 1
 408 506 l 1
 406 508 l 1
402 506 m 1
 404 504 l 1
 402 506 l 1
450 504 m 1
 452 502 l 1
 450 504 l 1
468 502 m 1
 470 500 l 1
 468 502 l 1
426 498 m 1
 428 496 l 1
 426 498 l 1
444 498 m 1
 446 496 l 1
 444 498 l 1
440 496 m 1
 442 494 l 1
 440 496 l 1
484 492 m 1
 486 490 l 1
 484 492 l 1
420 488 m 1
 422 486 l 1
 420 488 l 1
464 488 m 1
 466 486 l 1
 464 488 l 1
414 482 m 1
 416 480 l 1
 414 482 l 1
478 482 m 1
 480 480 l 1
 478 482 l 1
436 478 m 1
 438 476 l 1
 436 478 l 1
456 474 m 1
 458 472 l 1
 456 474 l 1
450 472 m 1
 452 470 l 1
 450 472 l 1
470 470 m 1
 472 468 l 1
 470 470 l 1
494 470 m 1
 496 468 l 1
 494 470 l 1
430 464 m 1
 432 462 l 1
 430 464 l 1
486 464 m 1
 488 462 l 1
 486 464 l 1
426 462 m 1
 428 460 l 1
 426 462 l 1
422 460 m 1
 424 458 l 1
 422 460 l 1
444 460 m 1
 446 458 l 1
 444 460 l 1
480 454 m 1
 482 452 l 1
 480 454 l 1
470 452 m 1
 472 450 l 1
 470 452 l 1
464 450 m 1
 466 448 l 1
 464 450 l 1
500 446 m 1
 502 444 l 1
 500 446 l 1
456 444 m 1
 458 442 l 1
 456 444 l 1
448 440 m 1
 450 438 l 1
 448 440 l 1
444 438 m 1
 446 436 l 1
 444 438 l 1
440 436 m 1
 442 434 l 1
 440 436 l 1
494 436 m 1
 496 434 l 1
 494 436 l 1
434 434 m 1
 436 432 l 1
 434 434 l 1
488 432 m 1
 490 430 l 1
 488 432 l 1
512 430 m 1
 514 428 l 1
 512 430 l 1
482 428 m 1
 484 426 l 1
 482 428 l 1
478 426 m 1
 480 424 l 1
 478 426 l 1
472 424 m 1
 474 422 l 1
 472 424 l 1
510 416 m 1
 512 414 l 1
 510 416 l 1
466 414 m 1
 468 412 l 1
 466 414 l 1
442 410 m 1
 444 408 l 1
 442 410 l 1
460 410 m 1
 462 408 l 1
 460 410 l 1
456 408 m 1
 458 406 l 1
 456 408 l 1
504 406 m 1
 506 404 l 1
 504 406 l 1
524 404 m 1
 526 402 l 1
 524 404 l 1
498 400 m 1
 500 398 l 1
 498 400 l 1
490 398 m 1
 492 396 l 1
 490 398 l 1
484 396 m 1
 486 394 l 1
 484 396 l 1
520 392 m 1
 522 390 l 1
 520 392 l 1
452 390 m 1
 454 388 l 1
 452 390 l 1
478 388 m 1
 480 386 l 1
 478 388 l 1
468 384 m 1
 470 382 l 1
 468 384 l 1
516 380 m 1
 518 378 l 1
 516 380 l 1
534 376 m 1
 536 374 l 1
 534 376 l 1
462 374 m 1
 464 372 l 1
 462 374 l 1
508 374 m 1
 510 372 l 1
 508 374 l 1
504 372 m 1
 506 370 l 1
 504 372 l 1
496 370 m 1
 498 368 l 1
 496 370 l 1
490 368 m 1
 492 366 l 1
 490 368 l 1
482 366 m 1
 484 364 l 1
 482 366 l 1
478 364 m 1
 480 362 l 1
 478 364 l 1
530 364 m 1
 532 362 l 1
 530 364 l 1
460 360 m 1
 462 358 l 1
 460 360 l 1
546 354 m 1
 548 352 l 1
 546 354 l 1
524 352 m 1
 526 350 l 1
 524 352 l 1
474 350 m 1
 476 348 l 1
 474 350 l 1
540 346 m 1
 542 344 l 1
 540 346 l 1
516 344 m 1
 518 342 l 1
 516 344 l 1
510 342 m 1
 512 340 l 1
 510 342 l 1
494 340 m 1
 496 338 l 1
 494 340 l 1
504 340 m 1
 506 338 l 1
 504 340 l 1
490 338 m 1
 492 336 l 1
 490 338 l 1
484 334 m 1
 486 332 l 1
 484 334 l 1
536 334 m 1
 538 332 l 1
 536 334 l 1
474 332 m 1
 476 330 l 1
 474 332 l 1
554 328 m 1
 556 326 l 1
 554 328 l 1
532 322 m 1
 534 320 l 1
 532 322 l 1
526 316 m 1
 528 314 l 1
 526 316 l 1
548 316 m 1
 550 314 l 1
 548 316 l 1
522 314 m 1
 524 312 l 1
 522 314 l 1
508 312 m 1
 510 310 l 1
 508 312 l 1
518 312 m 1
 520 310 l 1
 518 312 l 1
484 310 m 1
 486 308 l 1
 484 310 l 1
496 310 m 1
 498 308 l 1
 496 310 l 1
564 310 m 1
 566 308 l 1
 564 310 l 1
546 300 m 1
 548 298 l 1
 546 300 l 1
558 300 m 1
 560 298 l 1
 558 300 l 1
498 292 m 1
 500 290 l 1
 498 292 l 1
510 292 m 1
 512 290 l 1
 510 292 l 1
492 290 m 1
 494 288 l 1
 492 290 l 1
538 288 m 1
 540 286 l 1
 538 288 l 1
524 286 m 1
 526 284 l 1
 524 286 l 1
572 284 m 1
 574 282 l 1
 572 284 l 1
554 282 m 1
 556 280 l 1
 554 282 l 1
568 282 m 1
 570 280 l 1
 568 282 l 1
516 272 m 1
 518 270 l 1
 516 272 l 1
536 272 m 1
 538 270 l 1
 536 272 l 1
548 272 m 1
 550 270 l 1
 548 272 l 1
512 270 m 1
 514 268 l 1
 512 270 l 1
532 270 m 1
 534 268 l 1
 532 270 l 1
506 268 m 1
 508 266 l 1
 506 268 l 1
500 266 m 1
 502 264 l 1
 500 266 l 1
566 264 m 1
 568 262 l 1
 566 264 l 1
582 260 m 1
 584 258 l 1
 582 260 l 1
558 254 m 1
 560 252 l 1
 558 254 l 1
554 252 m 1
 556 250 l 1
 554 252 l 1
532 250 m 1
 534 248 l 1
 532 250 l 1
550 250 m 1
 552 248 l 1
 550 250 l 1
546 248 m 1
 548 246 l 1
 546 248 l 1
576 248 m 1
 578 246 l 1
 576 248 l 1
526 242 m 1
 528 240 l 1
 526 242 l 1
592 242 m 1
 594 240 l 1
 592 242 l 1
516 240 m 1
 518 238 l 1
 516 240 l 1
512 238 m 1
 514 236 l 1
 512 238 l 1
576 232 m 1
 578 230 l 1
 576 232 l 1
544 230 m 1
 546 228 l 1
 544 230 l 1
588 230 m 1
 590 228 l 1
 588 230 l 1
568 224 m 1
 570 222 l 1
 568 224 l 1
562 222 m 1
 564 220 l 1
 562 222 l 1
536 220 m 1
 538 218 l 1
 536 220 l 1
530 216 m 1
 532 214 l 1
 530 216 l 1
604 216 m 1
 606 214 l 1
 604 216 l 1
524 214 m 1
 526 212 l 1
 524 214 l 1
554 214 m 1
 556 212 l 1
 554 214 l 1
600 214 m 1
 602 212 l 1
 600 214 l 1
588 212 m 1
 590 210 l 1
 588 212 l 1
582 204 m 1
 584 202 l 1
 582 204 l 1
552 200 m 1
 554 198 l 1
 552 200 l 1
576 200 m 1
 578 198 l 1
 576 200 l 1
570 198 m 1
 572 196 l 1
 570 198 l 1
566 196 m 1
 568 194 l 1
 566 196 l 1
530 192 m 1
 532 190 l 1
 530 192 l 1
544 192 m 1
 546 190 l 1
 544 192 l 1
602 192 m 1
 604 190 l 1
 602 192 l 1
616 188 m 1
 618 186 l 1
 616 188 l 1
562 180 m 1
 564 178 l 1
 562 180 l 1
596 180 m 1
 598 178 l 1
 596 180 l 1
558 178 m 1
 560 176 l 1
 558 178 l 1
542 174 m 1
 544 172 l 1
 542 174 l 1
552 174 m 1
 554 172 l 1
 552 174 l 1
612 174 m 1
 614 172 l 1
 612 174 l 1
584 170 m 1
 586 168 l 1
 584 170 l 1
580 168 m 1
 582 166 l 1
 580 168 l 1
602 164 m 1
 604 162 l 1
 602 164 l 1
598 162 m 1
 600 160 l 1
 598 162 l 1
626 160 m 1
 628 158 l 1
 626 160 l 1
542 158 m 1
 544 156 l 1
 542 158 l 1
622 158 m 1
 624 156 l 1
 622 158 l 1
576 154 m 1
 578 152 l 1
 576 154 l 1
572 152 m 1
 574 150 l 1
 572 152 l 1
558 150 m 1
 560 148 l 1
 558 150 l 1
618 148 m 1
 620 146 l 1
 618 148 l 1
594 144 m 1
 596 142 l 1
 594 144 l 1
610 140 m 1
 612 138 l 1
 610 140 l 1
554 136 m 1
 556 134 l 1
 554 136 l 1
568 134 m 1
 570 132 l 1
 568 134 l 1
586 132 m 1
 588 130 l 1
 586 132 l 1
582 130 m 1
 584 128 l 1
 582 130 l 1
634 130 m 1
 636 128 l 1
 634 130 l 1
602 128 m 1
 604 126 l 1
 602 128 l 1
630 128 m 1
 632 126 l 1
 630 128 l 1
626 126 m 1
 628 124 l 1
 626 126 l 1
622 124 m 1
 624 122 l 1
 622 124 l 1
618 122 m 1
 620 120 l 1
 618 122 l 1
564 118 m 1
 566 116 l 1
 564 118 l 1
578 116 m 1
 580 114 l 1
 578 116 l 1
608 112 m 1
 610 110 l 1
 608 112 l 1
598 110 m 1
 600 108 l 1
 598 110 l 1
650 102 m 1
 652 100 l 1
 650 102 l 1
572 100 m 1
 574 98 l 1
 572 100 l 1
590 100 m 1
 592 98 l 1
 590 100 l 1
586 98 m 1
 588 96 l 1
 586 98 l 1
622 98 m 1
 624 96 l 1
 622 98 l 1
640 96 m 1
 642 94 l 1
 640 96 l 1
636 94 m 1
 638 92 l 1
 636 94 l 1
612 92 m 1
 614 90 l 1
 612 92 l 1
608 90 m 1
 610 88 l 1
 608 90 l 1
580 84 m 1
 582 82 l 1
 580 84 l 1
574 82 m 1
 576 80 l 1
 574 82 l 1
602 78 m 1
 604 76 l 1
 602 78 l 1
630 78 m 1
 632 76 l 1
 630 78 l 1
598 76 m 1
 600 74 l 1
 598 76 l 1
654 76 m 1
 656 74 l 1
 654 76 l 1
646 72 m 1
 648 70 l 1
 646 72 l 1
622 68 m 1
 624 66 l 1
 622 68 l 1
640 62 m 1
 642 60 l 1
 640 62 l 1
592 60 m 1
 594 58 l 1
 592 60 l 1
666 60 m 1
 668 58 l 1
 666 60 l 1
616 58 m 1
 618 56 l 1
 616 58 l 1
608 54 m 1
 610 52 l 1
 608 54 l 1
634 52 m 1
 636 50 l 1
 634 52 l 1
658 52 m 1
 660 50 l 1
 658 52 l 1
592 44 m 1
 594 42 l 1
 592 44 l 1
604 44 m 1
 606 42 l 1
 604 44 l 1
652 44 m 1
 654 42 l 1
 652 44 l 1
630 40 m 1
 632 38 l 1
 630 40 l 1
646 36 m 1
 648 34 l 1
 646 36 l 1
624 34 m 1
 626 32 l 1
 624 34 l 1
672 34 m 1
 674 32 l 1
 672 34 l 1
616 26 m 1
 618 24 l 1
 616 26 l 1
666 26 m 1
 668 24 l 1
 666 26 l 1
606 24 m 1
 608 22 l 1
 606 24 l 1
602 22 m 1
 604 20 l 1
 602 22 l 1
644 20 m 1
 646 18 l 1
 644 20 l 1
658 18 m 1
 660 16 l 1
 658 18 l 1
638 16 m 1
 640 14 l 1
 638 16 l 1
630 10 m 1
 632 8 l 1
 630 10 l 1
680 10 m 1
 682 8 l 1
 680 10 l 1
674 4 m 1
 676 2 l 1
 674 4 l 1
622 2 m 1
 624 0 l 1
 622 2 l 1
666 0 m 1
 668 -2 l 1
 666 0 l 1
616 -2 m 1
 618 -4 l 1
 616 -2 l 1
658 -2 m 1
 660 -4 l 1
 658 -2 l 1
654 -4 m 1
 656 -6 l 1
 654 -4 l 1
650 -6 m 1
 652 -8 l 1
 650 -6 l 1
646 -8 m 1
 648 -10 l 1
 646 -8 l 1
640 -10 m 1
 642 -12 l 1
 640 -10 l 1
EndSplineSet
EndChar

StartChar: plus
Encoding: 43 43 77
Width: 1000
VWidth: 0
Flags: HW
LayerCount: 2
Back
Fore
SplineSet
544 144 m 1
 548 129 545 110 544 94 c 0
 543 70 547 40 535 18 c 0
 520 -10 479 -14 460 12 c 0
 444 34 444 78 445 104 c 0
 445 114 451 139 443 147 c 0
 436 154 417 150 408 151 c 0
 366 154 273 132 274 200 c 0
 275 257 367 246 406 246 c 0
 416 246 435 242 443 248 c 0
 451 254 446 277 446 286 c 0
 445 313 443 354 461 376 c 0
 481 401 521 396 536 368 c 0
 544 353 539 340 539 324 c 0
 538 299 548 270 542 246 c 1
 577 238 631 253 660 226 c 0
 682 205 678 168 652 153 c 0
 634 142 610 147 590 146 c 0
 576 145 560 142 546 146 c 1
 544 144 l 1
488 368 m 1
 490 366 l 1
 488 368 l 1
500 364 m 1
 502 362 l 1
 500 364 l 1
512 362 m 1
 514 360 l 1
 512 362 l 1
524 360 m 1
 526 358 l 1
 524 360 l 1
482 358 m 1
 484 356 l 1
 482 358 l 1
498 346 m 1
 500 344 l 1
 498 346 l 1
476 344 m 1
 478 342 l 1
 476 344 l 1
494 344 m 1
 496 342 l 1
 494 344 l 1
510 344 m 1
 512 342 l 1
 510 344 l 1
522 342 m 1
 524 340 l 1
 522 342 l 1
470 334 m 1
 472 332 l 1
 470 334 l 1
490 334 m 1
 492 332 l 1
 490 334 l 1
536 334 m 1
 538 332 l 1
 536 334 l 1
518 324 m 1
 520 322 l 1
 518 324 l 1
530 324 m 1
 532 322 l 1
 530 324 l 1
486 322 m 1
 488 320 l 1
 486 322 l 1
512 322 m 1
 514 320 l 1
 512 322 l 1
470 318 m 1
 472 316 l 1
 470 318 l 1
506 316 m 1
 508 314 l 1
 506 316 l 1
464 310 m 1
 466 308 l 1
 464 310 l 1
498 308 m 1
 500 306 l 1
 498 308 l 1
484 306 m 1
 486 304 l 1
 484 306 l 1
528 298 m 1
 530 296 l 1
 528 298 l 1
524 296 m 1
 526 294 l 1
 524 296 l 1
476 294 m 1
 478 292 l 1
 476 294 l 1
516 294 m 1
 518 292 l 1
 516 294 l 1
464 292 m 1
 466 290 l 1
 464 292 l 1
510 292 m 1
 512 290 l 1
 510 292 l 1
492 290 m 1
 494 288 l 1
 492 290 l 1
502 290 m 1
 504 288 l 1
 502 290 l 1
460 278 m 1
 462 276 l 1
 460 278 l 1
486 278 m 1
 488 276 l 1
 486 278 l 1
482 276 m 1
 484 274 l 1
 482 276 l 1
476 274 m 1
 478 272 l 1
 476 274 l 1
504 268 m 1
 506 266 l 1
 504 268 l 1
516 266 m 1
 518 264 l 1
 516 266 l 1
528 266 m 1
 530 264 l 1
 528 266 l 1
470 260 m 1
 472 258 l 1
 470 260 l 1
466 258 m 1
 468 256 l 1
 466 258 l 1
500 254 m 1
 502 252 l 1
 500 254 l 1
488 250 m 1
 490 248 l 1
 488 250 l 1
516 248 m 1
 518 246 l 1
 516 248 l 1
534 248 m 1
 536 246 l 1
 534 248 l 1
528 246 m 1
 530 244 l 1
 528 246 l 1
396 226 m 1
 398 224 l 1
 396 226 l 1
570 224 m 1
 572 222 l 1
 570 224 l 1
388 218 m 1
 390 216 l 1
 388 218 l 1
410 218 m 1
 412 216 l 1
 410 218 l 1
308 216 m 1
 310 214 l 1
 308 216 l 1
320 216 m 1
 322 214 l 1
 320 216 l 1
374 216 m 1
 376 214 l 1
 374 216 l 1
584 216 m 1
 586 214 l 1
 584 216 l 1
304 214 m 1
 306 212 l 1
 304 214 l 1
364 214 m 1
 366 212 l 1
 364 214 l 1
424 214 m 1
 426 212 l 1
 424 214 l 1
564 214 m 1
 566 212 l 1
 564 214 l 1
612 214 m 1
 614 212 l 1
 612 214 l 1
336 212 m 1
 338 210 l 1
 336 212 l 1
354 212 m 1
 356 210 l 1
 354 212 l 1
436 212 m 1
 438 210 l 1
 436 212 l 1
598 212 m 1
 600 210 l 1
 598 212 l 1
608 212 m 1
 610 210 l 1
 608 212 l 1
626 212 m 1
 628 210 l 1
 626 212 l 1
350 210 m 1
 352 208 l 1
 350 210 l 1
638 210 m 1
 640 208 l 1
 638 210 l 1
558 208 m 1
 560 206 l 1
 558 208 l 1
650 208 m 1
 652 206 l 1
 650 208 l 1
404 206 m 1
 406 204 l 1
 404 206 l 1
300 202 m 1
 302 200 l 1
 300 202 l 1
398 202 m 1
 400 200 l 1
 398 202 l 1
580 202 m 1
 582 200 l 1
 580 202 l 1
388 200 m 1
 390 198 l 1
 388 200 l 1
420 200 m 1
 422 198 l 1
 420 200 l 1
330 198 m 1
 332 196 l 1
 330 198 l 1
384 198 m 1
 386 196 l 1
 384 198 l 1
594 198 m 1
 596 196 l 1
 594 198 l 1
326 196 m 1
 328 194 l 1
 326 196 l 1
552 196 m 1
 554 194 l 1
 552 196 l 1
666 196 m 1
 668 194 l 1
 666 196 l 1
294 194 m 1
 296 192 l 1
 294 194 l 1
344 194 m 1
 346 192 l 1
 344 194 l 1
378 194 m 1
 380 192 l 1
 378 194 l 1
436 194 m 1
 438 192 l 1
 436 194 l 1
446 194 m 1
 448 192 l 1
 446 194 l 1
662 194 m 1
 664 192 l 1
 662 194 l 1
374 192 m 1
 376 190 l 1
 374 192 l 1
628 192 m 1
 630 190 l 1
 628 192 l 1
638 192 m 1
 640 190 l 1
 638 192 l 1
318 190 m 1
 320 188 l 1
 318 190 l 1
370 190 m 1
 372 188 l 1
 370 190 l 1
572 190 m 1
 574 188 l 1
 572 190 l 1
622 190 m 1
 624 188 l 1
 622 190 l 1
652 190 m 1
 654 188 l 1
 652 190 l 1
364 188 m 1
 366 186 l 1
 364 188 l 1
610 188 m 1
 612 186 l 1
 610 188 l 1
358 186 m 1
 360 184 l 1
 358 186 l 1
428 184 m 1
 430 182 l 1
 428 184 l 1
566 184 m 1
 568 182 l 1
 566 184 l 1
586 184 m 1
 588 182 l 1
 586 184 l 1
416 182 m 1
 418 180 l 1
 416 182 l 1
550 182 m 1
 552 180 l 1
 550 182 l 1
604 182 m 1
 606 180 l 1
 604 182 l 1
310 180 m 1
 312 178 l 1
 310 180 l 1
412 180 m 1
 414 178 l 1
 412 180 l 1
600 180 m 1
 602 178 l 1
 600 180 l 1
294 176 m 1
 296 174 l 1
 294 176 l 1
350 176 m 1
 352 174 l 1
 350 176 l 1
342 174 m 1
 344 172 l 1
 342 174 l 1
404 174 m 1
 406 172 l 1
 404 174 l 1
336 172 m 1
 338 170 l 1
 336 172 l 1
444 172 m 1
 446 170 l 1
 444 172 l 1
650 172 m 1
 652 170 l 1
 650 172 l 1
326 170 m 1
 328 168 l 1
 326 170 l 1
646 170 m 1
 648 168 l 1
 646 170 l 1
662 170 m 1
 664 168 l 1
 662 170 l 1
548 168 m 1
 550 166 l 1
 548 168 l 1
564 168 m 1
 566 166 l 1
 564 168 l 1
584 168 m 1
 586 166 l 1
 584 168 l 1
626 168 m 1
 628 166 l 1
 626 168 l 1
640 168 m 1
 642 166 l 1
 640 168 l 1
308 166 m 1
 310 164 l 1
 308 166 l 1
398 166 m 1
 400 164 l 1
 398 166 l 1
438 166 m 1
 440 164 l 1
 438 166 l 1
580 166 m 1
 582 164 l 1
 580 166 l 1
434 164 m 1
 436 162 l 1
 434 164 l 1
598 164 m 1
 600 162 l 1
 598 164 l 1
322 160 m 1
 324 158 l 1
 322 160 l 1
368 160 m 1
 370 158 l 1
 368 160 l 1
390 160 m 1
 392 158 l 1
 390 160 l 1
620 160 m 1
 622 158 l 1
 620 160 l 1
382 158 m 1
 384 156 l 1
 382 158 l 1
428 158 m 1
 430 156 l 1
 428 158 l 1
424 156 m 1
 426 154 l 1
 424 156 l 1
362 154 m 1
 364 152 l 1
 362 154 l 1
420 154 m 1
 422 152 l 1
 420 154 l 1
562 154 m 1
 564 152 l 1
 562 154 l 1
614 154 m 1
 616 152 l 1
 614 154 l 1
546 152 m 1
 548 150 l 1
 546 152 l 1
558 152 m 1
 560 150 l 1
 558 152 l 1
576 152 m 1
 578 150 l 1
 576 152 l 1
522 146 m 1
 524 144 l 1
 522 146 l 1
536 146 m 1
 538 144 l 1
 536 146 l 1
496 144 m 1
 498 142 l 1
 496 144 l 1
506 144 m 1
 508 142 l 1
 506 144 l 1
516 144 m 1
 518 142 l 1
 516 144 l 1
486 142 m 1
 488 140 l 1
 486 142 l 1
476 140 m 1
 478 138 l 1
 476 140 l 1
470 138 m 1
 472 136 l 1
 470 138 l 1
466 136 m 1
 468 134 l 1
 466 136 l 1
536 124 m 1
 538 122 l 1
 536 124 l 1
500 122 m 1
 502 120 l 1
 500 122 l 1
510 122 m 1
 512 120 l 1
 510 122 l 1
532 122 m 1
 534 120 l 1
 532 122 l 1
466 120 m 1
 468 118 l 1
 466 120 l 1
496 120 m 1
 498 118 l 1
 496 120 l 1
524 120 m 1
 526 118 l 1
 524 120 l 1
490 114 m 1
 492 112 l 1
 490 114 l 1
486 112 m 1
 488 110 l 1
 486 112 l 1
480 106 m 1
 482 104 l 1
 480 106 l 1
466 102 m 1
 468 100 l 1
 466 102 l 1
522 102 m 1
 524 100 l 1
 522 102 l 1
516 96 m 1
 518 94 l 1
 516 96 l 1
512 94 m 1
 514 92 l 1
 512 94 l 1
536 94 m 1
 538 92 l 1
 536 94 l 1
478 88 m 1
 480 86 l 1
 478 88 l 1
506 88 m 1
 508 86 l 1
 506 88 l 1
466 86 m 1
 468 84 l 1
 466 86 l 1
500 86 m 1
 502 84 l 1
 500 86 l 1
492 84 m 1
 494 82 l 1
 492 84 l 1
536 76 m 1
 538 74 l 1
 536 76 l 1
466 70 m 1
 468 68 l 1
 466 70 l 1
484 70 m 1
 486 68 l 1
 484 70 l 1
530 70 m 1
 532 68 l 1
 530 70 l 1
478 68 m 1
 480 66 l 1
 478 68 l 1
524 64 m 1
 526 62 l 1
 524 64 l 1
498 62 m 1
 500 60 l 1
 498 62 l 1
520 62 m 1
 522 60 l 1
 520 62 l 1
510 60 m 1
 512 58 l 1
 510 60 l 1
466 52 m 1
 468 50 l 1
 466 52 l 1
478 48 m 1
 480 46 l 1
 478 48 l 1
494 46 m 1
 496 44 l 1
 494 46 l 1
510 42 m 1
 512 40 l 1
 510 42 l 1
524 38 m 1
 526 36 l 1
 524 38 l 1
472 34 m 1
 474 32 l 1
 472 34 l 1
468 32 m 1
 470 30 l 1
 468 32 l 1
490 32 m 1
 492 30 l 1
 490 32 l 1
504 30 m 1
 506 28 l 1
 504 30 l 1
520 24 m 1
 522 22 l 1
 520 24 l 1
488 18 m 1
 490 16 l 1
 488 18 l 1
502 14 m 1
 504 12 l 1
 502 14 l 1
514 12 m 1
 516 10 l 1
 514 12 l 1
474 10 m 1
 476 8 l 1
 474 10 l 1
488 2 m 1
 490 0 l 1
 488 2 l 1
502 -2 m 1
 504 -4 l 1
 502 -2 l 1
EndSplineSet
EndChar

StartChar: bar
Encoding: 124 124 78
Width: 1000
VWidth: 0
Flags: HW
LayerCount: 2
Back
Fore
SplineSet
538 384 m 1
 524 383 512 378 498 385 c 0
 478 394 472 414 468 434 c 0
 458 478 466 525 467 570 c 0
 468 600 461 643 490 661 c 0
 517 678 553 662 559 631 c 0
 568 579 564 520 563 468 c 0
 562 434 565 413 542 386 c 1
 538 388 l 1
 538 384 l 1
522 644 m 1
 524 642 l 1
 522 644 l 1
518 642 m 1
 520 640 l 1
 518 642 l 1
512 636 m 1
 514 634 l 1
 512 636 l 1
538 636 m 1
 540 634 l 1
 538 636 l 1
508 634 m 1
 510 632 l 1
 508 634 l 1
504 632 m 1
 506 630 l 1
 504 632 l 1
498 630 m 1
 500 628 l 1
 498 630 l 1
494 628 m 1
 496 626 l 1
 494 628 l 1
552 624 m 1
 554 622 l 1
 552 624 l 1
488 622 m 1
 490 620 l 1
 488 622 l 1
546 620 m 1
 548 618 l 1
 546 620 l 1
536 618 m 1
 538 616 l 1
 536 618 l 1
482 612 m 1
 484 610 l 1
 482 612 l 1
530 610 m 1
 532 608 l 1
 530 610 l 1
522 602 m 1
 524 600 l 1
 522 602 l 1
506 600 m 1
 508 598 l 1
 506 600 l 1
518 600 m 1
 520 598 l 1
 518 600 l 1
500 598 m 1
 502 596 l 1
 500 598 l 1
496 596 m 1
 498 594 l 1
 496 596 l 1
548 596 m 1
 550 594 l 1
 548 596 l 1
490 592 m 1
 492 590 l 1
 490 592 l 1
542 592 m 1
 544 590 l 1
 542 592 l 1
536 580 m 1
 538 578 l 1
 536 580 l 1
488 576 m 1
 490 574 l 1
 488 576 l 1
526 576 m 1
 528 574 l 1
 526 576 l 1
522 574 m 1
 524 572 l 1
 522 574 l 1
518 572 m 1
 520 570 l 1
 518 572 l 1
506 568 m 1
 508 566 l 1
 506 568 l 1
552 568 m 1
 554 566 l 1
 552 568 l 1
500 562 m 1
 502 560 l 1
 500 562 l 1
488 560 m 1
 490 558 l 1
 488 560 l 1
546 560 m 1
 548 558 l 1
 546 560 l 1
482 554 m 1
 484 552 l 1
 482 554 l 1
522 550 m 1
 524 548 l 1
 522 550 l 1
540 550 m 1
 542 548 l 1
 540 550 l 1
518 548 m 1
 520 546 l 1
 518 548 l 1
536 548 m 1
 538 546 l 1
 536 548 l 1
508 542 m 1
 510 540 l 1
 508 542 l 1
480 540 m 1
 482 538 l 1
 480 540 l 1
502 540 m 1
 504 538 l 1
 502 540 l 1
496 536 m 1
 498 534 l 1
 496 536 l 1
556 530 m 1
 558 528 l 1
 556 530 l 1
532 526 m 1
 534 524 l 1
 532 526 l 1
544 526 m 1
 546 524 l 1
 544 526 l 1
528 524 m 1
 530 522 l 1
 528 524 l 1
492 522 m 1
 494 520 l 1
 492 522 l 1
488 520 m 1
 490 518 l 1
 488 520 l 1
522 518 m 1
 524 516 l 1
 522 518 l 1
516 514 m 1
 518 512 l 1
 516 514 l 1
482 512 m 1
 484 510 l 1
 482 512 l 1
510 512 m 1
 512 510 l 1
 510 512 l 1
476 508 m 1
 478 506 l 1
 476 508 l 1
552 506 m 1
 554 504 l 1
 552 506 l 1
548 504 m 1
 550 502 l 1
 548 504 l 1
504 498 m 1
 506 496 l 1
 504 498 l 1
542 498 m 1
 544 496 l 1
 542 498 l 1
498 490 m 1
 500 488 l 1
 498 490 l 1
534 490 m 1
 536 488 l 1
 534 490 l 1
494 488 m 1
 496 486 l 1
 494 488 l 1
522 488 m 1
 524 486 l 1
 522 488 l 1
488 486 m 1
 490 484 l 1
 488 486 l 1
518 486 m 1
 520 484 l 1
 518 486 l 1
484 484 m 1
 486 482 l 1
 484 484 l 1
548 474 m 1
 550 472 l 1
 548 474 l 1
542 470 m 1
 544 468 l 1
 542 470 l 1
516 468 m 1
 518 466 l 1
 516 468 l 1
538 468 m 1
 540 466 l 1
 538 468 l 1
534 466 m 1
 536 464 l 1
 534 466 l 1
484 464 m 1
 486 462 l 1
 484 464 l 1
508 460 m 1
 510 458 l 1
 508 460 l 1
502 458 m 1
 504 456 l 1
 502 458 l 1
530 456 m 1
 532 454 l 1
 530 456 l 1
496 450 m 1
 498 448 l 1
 496 450 l 1
482 448 m 1
 484 446 l 1
 482 448 l 1
526 446 m 1
 528 444 l 1
 526 446 l 1
550 438 m 1
 552 436 l 1
 550 438 l 1
518 436 m 1
 520 434 l 1
 518 436 l 1
546 436 m 1
 548 434 l 1
 546 436 l 1
492 432 m 1
 494 430 l 1
 492 432 l 1
508 432 m 1
 510 430 l 1
 508 432 l 1
486 430 m 1
 488 428 l 1
 486 430 l 1
504 430 m 1
 506 428 l 1
 504 430 l 1
540 430 m 1
 542 428 l 1
 540 430 l 1
534 426 m 1
 536 424 l 1
 534 426 l 1
528 416 m 1
 530 414 l 1
 528 416 l 1
490 410 m 1
 492 408 l 1
 490 410 l 1
504 408 m 1
 506 406 l 1
 504 408 l 1
520 408 m 1
 522 406 l 1
 520 408 l 1
516 406 m 1
 518 404 l 1
 516 406 l 1
546 402 m 1
 548 400 l 1
 546 402 l 1
540 398 m 1
 542 396 l 1
 540 398 l 1
502 392 m 1
 504 390 l 1
 502 392 l 1
518 386 m 1
 520 384 l 1
 518 386 l 1
496 267 m 0
 520 268 540 251 545 228 c 0
 549 210 546 189 548 170 c 0
 552 120 555 68 550 18 c 0
 547 -11 536 -41 502 -42 c 0
 476 -43 458 -21 455 3 c 0
 449 46 454 91 454 134 c 0
 454 165 449 201 455 232 c 0
 458 251 477 266 496 267 c 0
492 238 m 1
 494 236 l 1
 492 238 l 1
504 238 m 1
 506 236 l 1
 504 238 l 1
488 236 m 1
 490 234 l 1
 488 236 l 1
516 236 m 1
 518 234 l 1
 516 236 l 1
484 234 m 1
 486 232 l 1
 484 234 l 1
480 232 m 1
 482 230 l 1
 480 232 l 1
528 232 m 1
 530 230 l 1
 528 232 l 1
474 226 m 1
 476 224 l 1
 474 226 l 1
470 224 m 1
 472 222 l 1
 470 224 l 1
512 216 m 1
 514 214 l 1
 512 216 l 1
522 216 m 1
 524 214 l 1
 522 216 l 1
536 214 m 1
 538 212 l 1
 536 214 l 1
506 208 m 1
 508 206 l 1
 506 208 l 1
500 204 m 1
 502 202 l 1
 500 204 l 1
474 202 m 1
 476 200 l 1
 474 202 l 1
496 202 m 1
 498 200 l 1
 496 202 l 1
470 200 m 1
 472 198 l 1
 470 200 l 1
490 200 m 1
 492 198 l 1
 490 200 l 1
528 196 m 1
 530 194 l 1
 528 196 l 1
538 196 m 1
 540 194 l 1
 538 196 l 1
522 188 m 1
 524 186 l 1
 522 188 l 1
470 182 m 1
 472 180 l 1
 470 182 l 1
488 182 m 1
 490 180 l 1
 488 182 l 1
514 176 m 1
 516 174 l 1
 514 176 l 1
504 174 m 1
 506 172 l 1
 504 174 l 1
538 172 m 1
 540 170 l 1
 538 172 l 1
484 170 m 1
 486 168 l 1
 484 170 l 1
532 170 m 1
 534 168 l 1
 532 170 l 1
476 164 m 1
 478 162 l 1
 476 164 l 1
500 164 m 1
 502 162 l 1
 500 164 l 1
526 160 m 1
 528 158 l 1
 526 160 l 1
518 154 m 1
 520 152 l 1
 518 154 l 1
472 152 m 1
 474 150 l 1
 472 152 l 1
494 150 m 1
 496 148 l 1
 494 150 l 1
510 146 m 1
 512 144 l 1
 510 146 l 1
488 144 m 1
 490 142 l 1
 488 144 l 1
540 142 m 1
 542 140 l 1
 540 142 l 1
536 140 m 1
 538 138 l 1
 536 140 l 1
530 136 m 1
 532 134 l 1
 530 136 l 1
478 134 m 1
 480 132 l 1
 478 134 l 1
474 132 m 1
 476 130 l 1
 474 132 l 1
508 132 m 1
 510 130 l 1
 508 132 l 1
522 130 m 1
 524 128 l 1
 522 130 l 1
500 126 m 1
 502 124 l 1
 500 126 l 1
496 124 m 1
 498 122 l 1
 496 124 l 1
474 112 m 1
 476 110 l 1
 474 112 l 1
488 112 m 1
 490 110 l 1
 488 112 l 1
520 112 m 1
 522 110 l 1
 520 112 l 1
532 110 m 1
 534 108 l 1
 532 110 l 1
542 110 m 1
 544 108 l 1
 542 110 l 1
514 104 m 1
 516 102 l 1
 514 104 l 1
506 102 m 1
 508 100 l 1
 506 102 l 1
502 100 m 1
 504 98 l 1
 502 100 l 1
482 96 m 1
 484 94 l 1
 482 96 l 1
474 94 m 1
 476 92 l 1
 474 94 l 1
494 94 m 1
 496 92 l 1
 494 94 l 1
534 90 m 1
 536 88 l 1
 534 90 l 1
528 82 m 1
 530 80 l 1
 528 82 l 1
472 78 m 1
 474 76 l 1
 472 78 l 1
546 78 m 1
 548 76 l 1
 546 78 l 1
518 76 m 1
 520 74 l 1
 518 76 l 1
490 74 m 1
 492 72 l 1
 490 74 l 1
504 74 m 1
 506 72 l 1
 504 74 l 1
514 74 m 1
 516 72 l 1
 514 74 l 1
484 64 m 1
 486 62 l 1
 484 64 l 1
540 64 m 1
 542 62 l 1
 540 64 l 1
480 62 m 1
 482 60 l 1
 480 62 l 1
470 60 m 1
 472 58 l 1
 470 60 l 1
502 58 m 1
 504 56 l 1
 502 58 l 1
534 58 m 1
 536 56 l 1
 534 58 l 1
528 52 m 1
 530 50 l 1
 528 52 l 1
516 50 m 1
 518 48 l 1
 516 50 l 1
468 44 m 1
 470 42 l 1
 468 44 l 1
498 42 m 1
 500 40 l 1
 498 42 l 1
494 40 m 1
 496 38 l 1
 494 40 l 1
510 40 m 1
 512 38 l 1
 510 40 l 1
482 38 m 1
 484 36 l 1
 482 38 l 1
528 32 m 1
 530 30 l 1
 528 32 l 1
542 32 m 1
 544 30 l 1
 542 32 l 1
476 26 m 1
 478 24 l 1
 476 26 l 1
472 24 m 1
 474 22 l 1
 472 24 l 1
522 22 m 1
 524 20 l 1
 522 22 l 1
494 20 m 1
 496 18 l 1
 494 20 l 1
518 20 m 1
 520 18 l 1
 518 20 l 1
508 18 m 1
 510 16 l 1
 508 18 l 1
540 14 m 1
 542 12 l 1
 540 14 l 1
488 4 m 1
 490 2 l 1
 488 4 l 1
474 2 m 1
 476 0 l 1
 474 2 l 1
484 2 m 1
 486 0 l 1
 484 2 l 1
500 2 m 1
 502 0 l 1
 500 2 l 1
512 0 m 1
 514 -2 l 1
 512 0 l 1
536 0 m 1
 538 -2 l 1
 536 0 l 1
532 -2 m 1
 534 -4 l 1
 532 -2 l 1
528 -4 m 1
 530 -6 l 1
 528 -4 l 1
474 -14 m 1
 476 -16 l 1
 474 -14 l 1
524 -16 m 1
 526 -18 l 1
 524 -16 l 1
506 -18 m 1
 508 -20 l 1
 506 -18 l 1
518 -18 m 1
 520 -20 l 1
 518 -18 l 1
500 -20 m 1
 502 -22 l 1
 500 -20 l 1
490 -22 m 1
 492 -24 l 1
 490 -22 l 1
486 -34 m 1
 488 -36 l 1
 486 -34 l 1
EndSplineSet
EndChar

StartChar: s
Encoding: 115 115 79
Width: 1000
VWidth: 0
Flags: HW
LayerCount: 2
Back
Fore
SplineSet
546 80 m 1
 540 122 495 142 462 159 c 0
 423 179 385 206 371 250 c 0
 361 281 363 323 383 350 c 0
 426 408 549 430 597 366 c 0
 617 339 626 288 588 272 c 0
 570 264 548 269 535 284 c 0
 529 291 528 301 521 306 c 0
 508 317 480 307 469 297 c 0
 460 289 466 278 473 271 c 0
 487 256 510 247 528 238 c 0
 551 226 575 212 594 194 c 0
 638 153 671 66 623 15 c 0
 549 -64 408 -6 354 66 c 0
 331 97 314 159 372 164 c 0
 405 167 416 135 436 117 c 0
 469 88 502 74 546 80 c 1
EndSplineSet
EndChar

StartChar: j
Encoding: 106 106 80
Width: 1000
VWidth: 0
Flags: HW
LayerCount: 2
Back
Fore
SplineSet
457 533 m 0
 514 546 537 460 480 445 c 0
 423 430 399 519 457 533 c 0
459 383 m 0
 479 387 501 376 509 358 c 0
 514 346 513 334 514 322 c 0
 517 296 520 270 522 244 c 0
 529 148 527 47 503 -46 c 0
 488 -105 459 -153 395 -161 c 0
 352 -166 306 -158 272 -130 c 0
 247 -110 239 -75 266 -52 c 0
 297 -26 321 -58 350 -65 c 0
 367 -69 389 -68 397 -50 c 0
 401 -40 403 -30 406 -20 c 0
 431 78 436 192 425 293 c 0
 421 326 415 375 459 383 c 0
EndSplineSet
EndChar

StartChar: C
Encoding: 67 67 81
Width: 1000
VWidth: 0
Flags: HW
LayerCount: 2
Back
Fore
SplineSet
501 661 m 0
 569 671 626 623 651 564 c 0
 663 536 681 500 646 479 c 0
 640 475 633 473 626 472 c 0
 582 468 578 514 558 542 c 0
 547 557 532 571 512 566 c 0
 469 555 433 515 409 480 c 0
 357 404 326 312 327 220 c 0
 327 180 333 135 359 102 c 0
 405 43 512 40 574 73 c 0
 609 91 650 155 692 115 c 0
 712 96 708 67 691 48 c 0
 664 17 630 -8 592 -23 c 0
 557 -37 519 -43 481 -43 c 0
 449 -43 417 -39 386 -29 c 0
 364 -22 341 -11 322 2 c 0
 187 96 217 308 273 438 c 0
 285 467 300 494 317 520 c 0
 360 584 422 649 501 661 c 0
EndSplineSet
EndChar

StartChar: J
Encoding: 74 74 82
Width: 1000
VWidth: 0
Flags: HW
LayerCount: 2
Back
Fore
SplineSet
593 669 m 0
 615 673 638 660 645 640 c 0
 650 626 645 614 646 600 c 0
 648 570 652 541 655 511 c 0
 666 387 675 269 660 145 c 0
 653 83 626 17 558 4 c 0
 481 -11 391 31 341 90 c 0
 318 117 282 173 324 200 c 0
 368 229 390 178 414 152 c 0
 431 134 455 119 478 110 c 0
 498 102 537 88 550 114 c 0
 566 147 564 191 567 226 c 0
 576 328 565 428 560 530 c 0
 558 572 533 657 593 669 c 0
EndSplineSet
EndChar

StartChar: W
Encoding: 87 87 83
Width: 1000
VWidth: 0
Flags: HW
LayerCount: 2
Back
Fore
SplineSet
508 58 m 1
 489 -2 417 -70 350 -44 c 0
 314 -30 292 4 274 36 c 0
 198 169 201 345 196 494 c 0
 195 530 197 568 200 604 c 0
 201 618 198 632 202 646 c 0
 209 669 235 683 258 676 c 0
 275 671 288 657 291 639 c 0
 297 601 288 558 288 520 c 0
 288 392 296 251 339 130 c 0
 349 102 368 79 380 52 c 1
 430 82 447 167 456 220 c 0
 461 252 457 292 496 303 c 0
 520 310 548 298 557 274 c 0
 564 254 561 228 562 207 c 0
 563 181 571 155 582 132 c 0
 588 119 613 71 632 78 c 0
 671 93 681 159 687 194 c 0
 698 264 697 334 696 404 c 0
 695 456 698 509 693 561 c 0
 691 583 683 613 688 634 c 0
 696 665 732 678 758 661 c 0
 774 651 778 632 781 614 c 0
 786 578 787 542 788 506 c 0
 790 405 798 305 786 204 c 0
 780 151 771 96 741 50 c 0
 705 -5 640 -46 576 -11 c 0
 562 -3 549 7 538 19 c 0
 527 30 516 43 510 58 c 1
 508 58 l 1
EndSplineSet
EndChar

StartChar: six
Encoding: 54 54 84
Width: 1000
VWidth: 0
Flags: HW
LayerCount: 2
Back
Fore
SplineSet
308 196 m 1
 327 323 472 478 602 383 c 0
 633 361 662 329 673 292 c 0
 684 254 679 213 668 176 c 0
 647 101 606 22 536 -18 c 0
 452 -66 329 -28 266 40 c 0
 159 156 222 330 279 454 c 0
 293 485 309 515 327 544 c 0
 354 586 384 633 426 662 c 0
 451 679 484 683 508 663 c 0
 530 644 535 611 512 591 c 0
 497 578 476 585 463 572 c 0
 393 502 350 393 323 300 c 0
 315 271 299 226 308 196 c 1
380 80 m 1
 407 64 450 52 480 65 c 0
 523 84 549 137 564 178 c 0
 573 202 586 236 579 262 c 0
 576 273 568 281 561 289 c 0
 515 338 468 305 437 258 c 0
 423 237 413 214 404 190 c 0
 391 154 385 118 380 80 c 1
EndSplineSet
EndChar

